<svg width="15" height="14" viewBox="0 0 15 14" fill="none" xmlns="http://www.w3.org/2000/svg">
<path fill-rule="evenodd" clip-rule="evenodd" d="M11.2631 1.5999C10.8887 1.5999 10.5216 1.69544 10.1981 1.87617C9.87463 2.05685 9.60664 2.316 9.4193 2.6267C9.23203 2.9373 9.13144 3.28922 9.12643 3.64781C9.12155 3.99652 9.20718 4.34126 9.37599 4.64998L11.2631 7.286L13.1501 4.64998C13.3189 4.34126 13.4046 3.99653 13.3997 3.64781C13.3947 3.28922 13.2941 2.9373 13.1068 2.6267C12.9195 2.316 12.6515 2.05685 12.3281 1.87617C12.0045 1.69544 11.6374 1.5999 11.2631 1.5999ZM9.61286 0.828545C10.1163 0.547333 10.685 0.399902 11.2631 0.399902C11.8411 0.399902 12.4099 0.547333 12.9133 0.828545C13.4168 1.1098 13.8381 1.51558 14.1345 2.00707C14.4309 2.49868 14.5916 3.05846 14.5996 3.63103C14.6076 4.2036 14.4626 4.76758 14.18 5.26708C14.1695 5.2856 14.1581 5.30355 14.1457 5.32086L11.7509 8.66601C11.6383 8.82339 11.4566 8.91675 11.2631 8.91675C11.0695 8.91675 10.8879 8.82339 10.7752 8.66601L8.38046 5.32086C8.36808 5.30355 8.35662 5.2856 8.34614 5.26708C8.0635 4.76758 7.91854 4.2036 7.92655 3.63103C7.93456 3.05846 8.09524 2.49867 8.39165 2.00707C8.688 1.51558 9.10937 1.1098 9.61286 0.828545ZM4.84162 1.75638C5.00791 1.67508 5.2024 1.67508 5.36869 1.75638L6.395 2.25815C6.6927 2.4037 6.81604 2.76302 6.6705 3.06072C6.52495 3.35841 6.16563 3.48175 5.86793 3.33621L5.70516 3.25662V10.6183L8.61041 12.0387V9.65478C8.61041 9.32341 8.87904 9.05478 9.21041 9.05478C9.54178 9.05478 9.81041 9.32341 9.81041 9.65478V12.0387L12.7157 10.6183V9.65475C12.7157 9.32338 12.9843 9.05475 13.3157 9.05475C13.647 9.05475 13.9157 9.32338 13.9157 9.65475V10.9928C13.9157 11.222 13.7851 11.4312 13.5792 11.5318L9.47394 13.5389C9.30766 13.6202 9.11316 13.6202 8.94687 13.5389L5.10516 11.6607L1.26344 13.5389C1.07748 13.6298 0.857787 13.6185 0.682192 13.5089C0.506598 13.3993 0.399902 13.2069 0.399902 12.9999V4.3025C0.399902 4.07331 0.530468 3.86414 0.736368 3.76347L4.84162 1.75638ZM4.50516 10.6183V3.25662L1.5999 4.67703V12.0387L4.50516 10.6183ZM11.263 3.50365C11.1694 3.50365 11.1166 3.5744 11.1166 3.6335C11.1166 3.6926 11.1694 3.76335 11.263 3.76335C11.3567 3.76335 11.4094 3.6926 11.4094 3.6335C11.4094 3.5744 11.3567 3.50365 11.263 3.50365ZM9.91663 3.6335C9.91663 2.88642 10.5322 2.30365 11.263 2.30365C11.9939 2.30365 12.6094 2.88642 12.6094 3.6335C12.6094 4.38057 11.9939 4.96335 11.263 4.96335C10.5322 4.96335 9.91663 4.38057 9.91663 3.6335Z" fill="#F0A431"/>
</svg>
