<svg width="124" height="43" viewBox="0 0 124 43" fill="none" xmlns="http://www.w3.org/2000/svg">
<path fill-rule="evenodd" clip-rule="evenodd" d="M102.323 3.07946e-05C97.4437 -0.00778251 92.7055 1.62498 88.8819 4.63186C85.0584 1.62478 80.3201 -0.00800367 75.4404 3.07946e-05C70.5611 -0.0074584 65.8231 1.62528 61.9996 4.63186C58.1765 1.62464 53.4384 -0.00817716 48.5589 3.07946e-05C43.6795 -0.0074584 38.9416 1.62528 35.1181 4.63186C31.2947 1.62518 26.5568 -0.00756893 21.6774 3.07946e-05C9.70345 3.07946e-05 0 9.62337 0 21.5C0 33.3752 9.70275 43 21.6774 43C26.5567 43.0074 31.2946 41.3747 35.1181 38.3681C38.9416 41.3748 43.6795 43.0076 48.5589 43C53.4384 43.0081 58.1765 41.3753 61.9996 38.3681C65.8231 41.3747 70.5611 43.0075 75.4404 43C80.3201 43.0079 85.0584 41.3752 88.8819 38.3681C92.7054 41.3752 97.4437 43.0079 102.323 43C114.297 43 124 33.3759 124 21.5C124 9.62407 114.297 3.07946e-05 102.323 3.07946e-05ZM31.5713 34.856C28.8091 36.8545 25.3582 38.0742 21.6774 38.0742C12.4403 38.0742 4.96567 30.6615 4.96567 21.5C4.96567 12.3385 12.4403 4.92507 21.6774 4.92507C25.3582 4.92507 28.807 6.14548 31.5713 8.14474C28.5256 11.9398 26.872 16.6495 26.8822 21.5C26.8845 26.3486 28.5367 31.0546 31.5713 34.856ZM35.1188 31.348C32.9885 28.4999 31.8416 25.0462 31.8486 21.5C31.8396 17.9535 32.9867 14.4991 35.1188 11.652C37.2505 14.4993 38.3976 17.9536 38.3891 21.5C38.3958 25.0461 37.2489 28.4998 35.1188 31.348ZM58.4535 34.856C55.5837 36.9515 52.1113 38.0779 48.5476 38.0693C44.9913 38.0765 41.5267 36.95 38.6649 34.856C41.6998 31.055 43.3521 26.3492 43.354 21.5007C43.3642 16.6502 41.7106 11.9405 38.6649 8.14544C41.5265 6.05079 44.9911 4.924 48.5476 4.93136C52.2553 4.93136 55.6807 6.12099 58.4535 8.14544C55.4079 11.9405 53.7543 16.6502 53.7645 21.5007C53.7665 26.3492 55.4187 31.055 58.4535 34.856ZM61.9996 31.348C59.8694 28.4999 58.7225 25.0462 58.7294 21.5C58.7208 17.9536 59.8679 14.4993 61.9996 11.652C64.1319 14.4991 65.2792 17.9534 65.2706 21.5C65.2774 25.0463 64.1302 28.5001 61.9996 31.348ZM85.3351 34.856C82.5623 36.8811 79.1368 38.0693 75.4298 38.0693C71.7229 38.0693 68.3193 36.879 65.5465 34.856C68.5817 31.0552 70.2339 26.3492 70.2356 21.5007C70.2458 16.6502 68.5922 11.9405 65.5465 8.14544C68.3193 6.12169 71.7229 4.93136 75.4298 4.93136C79.1368 4.93136 82.5623 6.12099 85.3351 8.14544C82.2897 11.9407 80.6362 16.6503 80.646 21.5007C80.6484 26.3491 82.3006 31.0548 85.3351 34.856ZM88.8826 31.348C86.7523 28.4999 85.6054 25.0462 85.6124 21.5C85.6031 17.9535 86.7502 14.499 88.8826 11.652C91.0143 14.4993 92.1613 17.9536 92.1528 21.5C92.1592 25.0461 91.0124 28.4997 88.8826 31.348ZM102.323 38.0742C98.6411 38.0742 95.1909 36.8545 92.4294 34.856C95.464 31.0548 97.1162 26.3491 97.1185 21.5007C97.1283 16.6503 95.4747 11.9407 92.4294 8.14544C95.1937 6.14688 98.6418 4.92577 102.323 4.92577C111.559 4.92577 119.035 12.3392 119.035 21.5007C119.035 30.6608 111.559 38.0742 102.323 38.0742Z" fill="#C5C8CC"/>
</svg>
