<svg width="75" height="75" viewBox="0 0 75 75" fill="none" xmlns="http://www.w3.org/2000/svg">
<path d="M37.5 0C16.8094 0 0 16.8094 0 37.5C0 58.1906 16.8094 75 37.5 75C58.1906 75 75 58.1906 75 37.5C75 16.8094 58.1906 0 37.5 0ZM37.5 3.125C56.5062 3.125 71.875 18.4938 71.875 37.5C71.875 56.5 56.5062 71.875 37.5 71.875C18.5 71.875 3.125 56.5 3.125 37.5C3.125 18.4938 18.5 3.125 37.5 3.125ZM35.1078 4.24844L31.8359 4.63906L31.4937 14.5016L34.0328 14.1109L34.2781 7.51875L36.5719 14.1125H38.4281L40.7219 7.51875L40.9672 14.1125L43.5062 14.5031L43.1641 4.63906L39.8922 4.24844L37.5 11.1813L35.1078 4.24844ZM59.0312 11.8172L53.1234 19.6297L54.9297 21.2891L61.4734 18.3109L57.1266 24.0234L58.3969 26.1719L67.2844 22.0703L66.0141 19.9219L60.8875 22.2656L64.5484 17.4797L62.9391 15.4797L57.4703 18.0172L60.8875 13.525L59.0312 11.8172ZM15.5266 12.9891C15.1961 13.0085 14.8733 13.0967 14.5789 13.2482C14.2845 13.3997 14.0251 13.6111 13.8172 13.8688C13.6641 14.0563 13.5297 14.2641 13.3781 14.4531C12.5844 15.4484 11.7781 16.4375 10.9844 17.4312C10.3016 18.2859 9.61719 19.1156 8.93437 19.9703C8.89062 20.025 8.82969 20.1109 8.7875 20.1656C8.78125 20.1719 8.87969 20.2094 8.88594 20.2141C9.15312 20.4281 9.45313 20.6359 9.71406 20.85C10.7156 21.6484 11.6922 22.4438 12.6937 23.2422C13.6828 24.0359 14.6781 24.8406 15.6719 25.6344L16.4531 26.2703C16.4656 26.2812 16.4906 26.3313 16.5016 26.3172C16.5516 26.2578 16.6 26.1844 16.6484 26.1234C17.3266 25.275 18.0234 24.4328 18.7 23.5844C19.5172 22.5641 20.3234 21.5266 21.1406 20.5078C21.5625 19.9828 22.0141 19.5078 22.2156 18.8469C22.3188 18.5063 22.3438 18.1219 22.3125 17.7734C22.2529 17.3192 22.0781 16.8877 21.8046 16.5201C21.5311 16.1525 21.168 15.861 20.75 15.6734C19.8844 15.2766 18.8766 15.4234 18.1141 15.9672C18.0516 16.0094 17.9797 16.0641 17.9188 16.1141C18.0469 15.6797 18.1266 15.2391 18.0156 14.7953C17.9125 14.3609 17.65 13.9828 17.3328 13.6719C17.0974 13.4363 16.8146 13.2535 16.5033 13.1355C16.1919 13.0175 15.8589 12.9671 15.5266 12.9875V12.9891ZM15.3297 15.4781C15.5001 15.4622 15.672 15.4846 15.8326 15.5439C15.9932 15.6031 16.1385 15.6975 16.2578 15.8203C16.5078 16.0953 16.5812 16.4859 16.5016 16.8453C16.4109 17.1625 16.1672 17.3766 15.9656 17.6266C15.5625 18.1328 15.1469 18.6344 14.7453 19.1406C14.3359 19.6469 13.9266 20.1484 13.5234 20.6547C13.1094 20.325 12.7187 20.0078 12.3031 19.6781L11.8141 19.2875C11.8094 19.2813 11.9984 19.1047 12.0109 19.0922C12.7797 18.1328 13.5359 17.1703 14.3047 16.2109C14.5078 15.9609 14.6781 15.6563 14.9891 15.5266C15.0922 15.4844 15.2203 15.4844 15.3313 15.4797L15.3297 15.4781ZM37.5 15.625C25.4391 15.625 15.625 25.4391 15.625 37.5C15.625 49.5609 25.4391 59.375 37.5 59.375C49.5609 59.375 59.375 49.5609 59.375 37.5C59.375 25.4391 49.5609 15.625 37.5 15.625ZM18.75 17.6766C18.9646 17.6682 19.1768 17.7241 19.3594 17.8371C19.5421 17.9501 19.6868 18.1151 19.775 18.3109C19.8581 18.5014 19.8883 18.7108 19.8625 18.917C19.8366 19.1233 19.7557 19.3187 19.6281 19.4828L18.8469 20.4594C18.1328 21.3563 17.4141 22.2469 16.7 23.1453C16.6625 23.1141 16.5906 23.1266 16.5531 23.0953C16.3578 22.9375 16.1625 22.7672 15.9672 22.6078C15.6312 22.3391 15.3266 22.0453 14.9906 21.7781L16.8953 19.3844L17.8703 18.1641C18.0969 17.8828 18.3703 17.6875 18.75 17.675V17.6766ZM37.5 18.75C47.875 18.75 56.25 27.125 56.25 37.5H37.5V56.25C27.125 56.25 18.75 47.875 18.75 37.5H37.5V18.75Z" fill="#C5C8CC"/>
</svg>
