<svg width="97" height="77" viewBox="0 0 97 77" fill="none" xmlns="http://www.w3.org/2000/svg">
<g opacity="0.8">
<path fill-rule="evenodd" clip-rule="evenodd" d="M52.4579 27.4746C53.6831 31.2944 51.5752 35.3979 47.7592 36.6219C43.9431 37.8459 39.8417 35.734 38.6165 31.9142C37.3913 28.0944 39.4991 23.991 43.3152 22.7669C47.1312 21.5429 51.2327 23.6548 52.4579 27.4746ZM47.8441 28.9545C47.4357 27.6812 46.0685 26.9773 44.7965 27.3853C43.5245 27.7933 42.8219 29.1611 43.2303 30.4344C43.6387 31.7076 45.0058 32.4116 46.2778 32.0036C47.5499 31.5956 48.2525 30.2277 47.8441 28.9545Z" fill="#AA4D2B"/>
<path fill-rule="evenodd" clip-rule="evenodd" d="M72.1397 49.1756C68.3236 50.3996 64.2222 48.2877 62.997 44.4679C61.7718 40.6481 63.8796 36.5446 67.6957 35.3206C71.5118 34.0966 75.6132 36.2085 76.8384 40.0283C78.0636 43.8481 75.9558 47.9515 72.1397 49.1756ZM70.6584 44.5572C71.9304 44.1492 72.633 42.7814 72.2246 41.5082C71.8162 40.2349 70.449 39.5309 69.177 39.9389C67.905 40.3469 67.2024 41.7148 67.6108 42.988C68.0192 44.2613 69.3863 44.9652 70.6584 44.5572Z" fill="#AA4D2B"/>
<path d="M48.1924 49.2162L62.935 20.5158L67.2443 22.7346L52.5017 51.4351L48.1924 49.2162Z" fill="#AA4D2B"/>
<path d="M28.4784 47.8997L33.0922 46.4198L36.0549 55.6564L31.4411 57.1363L28.4784 47.8997Z" fill="#AA4D2B"/>
<path d="M28.6482 32.5649L24.0344 34.0447L26.9971 43.2814L31.6109 41.8015L28.6482 32.5649Z" fill="#AA4D2B"/>
<path fill-rule="evenodd" clip-rule="evenodd" d="M87.1302 23.9935L84.8233 24.7335C83.5513 25.1415 82.8487 26.5093 83.2571 27.7826C83.6655 29.0558 85.0326 29.7598 86.3047 29.3518L88.6116 28.6118L96.0182 51.7034L17.2761 76.9601L9.86944 53.8685L12.1763 53.1286C13.4484 52.7206 14.151 51.3528 13.7426 50.0795C13.3342 48.8062 11.967 48.1023 10.695 48.5103L8.38811 49.2502L0.981445 26.1587L79.7236 0.901978L87.1302 23.9935ZM78.6433 29.2624C77.6776 26.2518 78.7823 23.0651 81.162 21.2507L76.5911 7.00017L25.6856 23.3282L27.1669 27.9465L22.5531 29.4264L21.0718 24.8081L7.07657 29.2971L11.6475 43.5477C14.6386 43.6394 17.3907 45.5889 18.3564 48.5996C19.322 51.6103 18.2174 54.7969 15.8377 56.6113L20.4086 70.8619L34.4037 66.3729L32.9224 61.7546L37.5362 60.2747L39.0175 64.893L89.9231 48.5649L85.3522 34.3144C82.3611 34.2227 79.609 32.2731 78.6433 29.2624Z" fill="#AA4D2B"/>
</g>
</svg>
