<svg width="114" height="55" viewBox="0 0 114 55" fill="none" xmlns="http://www.w3.org/2000/svg">
<g opacity="0.8">
<path fill-rule="evenodd" clip-rule="evenodd" d="M26.4622 38.3949C23.4514 38.3949 21.002 40.8413 21.002 43.848C21.002 46.8549 23.4514 49.3013 26.4622 49.3013C29.4729 49.3013 31.9224 46.8549 31.9224 43.848C31.9224 40.8413 29.4729 38.3949 26.4622 38.3949ZM26.4622 45.9659C25.293 45.9659 24.3418 45.0159 24.3418 43.8482C24.3418 42.6805 25.293 41.7308 26.4622 41.7308C27.6314 41.7308 28.5825 42.6805 28.5825 43.8482C28.5825 45.0159 27.6314 45.9659 26.4622 45.9659Z" fill="#AA4D2B"/>
<path fill-rule="evenodd" clip-rule="evenodd" d="M87.3538 43.848C87.3538 40.8413 89.8032 38.3949 92.8139 38.3949C95.8247 38.3949 98.2741 40.8413 98.2741 43.848C98.2741 46.8549 95.8247 49.3013 92.8139 49.3013C89.8032 49.3013 87.3538 46.8549 87.3538 43.848ZM90.6936 43.8482C90.6936 45.0159 91.6448 45.9659 92.8139 45.9659C93.9831 45.9659 94.9343 45.0159 94.9343 43.8482C94.9343 42.6805 93.9831 41.7308 92.8139 41.7308C91.6448 41.7308 90.6936 42.6805 90.6936 43.8482Z" fill="#AA4D2B"/>
<path fill-rule="evenodd" clip-rule="evenodd" d="M108.734 22.2839C105.536 20.6161 102.18 19.2628 98.759 18.2614C97.874 18.003 96.9462 18.5089 96.6868 19.3928C96.4274 20.2768 96.9346 21.2034 97.8196 21.4625C101.032 22.4027 104.184 23.6738 107.189 25.2408C107.521 25.4141 107.832 25.616 108.123 25.8379C106.3 25.8561 104.507 25.9326 103.116 26.2013C100.009 26.8019 99.3562 28.3803 99.3562 29.5985C99.3562 33.0259 103.978 36.0326 109.247 36.0326C109.723 36.0326 110.194 36.0131 110.66 35.9819V37.5452H102.018C100.003 34.6199 96.63 32.697 92.8141 32.697C88.9983 32.697 85.6248 34.6199 83.6102 37.5452H35.6663C33.6515 34.6199 30.278 32.697 26.4621 32.697C22.6463 32.697 19.2728 34.6199 17.2582 37.5452H3.34005V33.5714H5.58887C6.51111 33.5714 7.25879 32.8249 7.25879 31.9036V30.645H11.0911C13.3562 30.645 15.1991 28.8046 15.1991 26.5424V25.1067C15.1991 24.2597 14.9417 23.4456 14.455 22.752L11.0551 17.9076H15.094C15.6647 17.9076 16.1962 17.6163 16.5028 17.1355C18.5864 13.8673 21.7082 10.8735 25.7813 8.23724C28.3291 6.58811 31.0838 5.34882 33.971 4.52626C33.4627 4.81779 32.9617 5.12045 32.471 5.43822C29.2823 7.50251 26.5893 9.8063 24.4669 12.2853C23.5854 13.3151 23.3766 14.7228 23.9216 15.9592C24.4629 17.1867 25.6341 17.9772 26.9785 18.0226C26.9785 18.0226 80.6979 19.8351 80.7139 19.8354C80.7235 19.8354 80.7331 19.8349 80.7427 19.8344C80.7492 19.8341 80.7557 19.8338 80.7622 19.8336C80.8079 19.8325 80.8533 19.8307 80.8978 19.826L80.9034 19.8258C84.033 19.4836 87.2618 19.5176 90.5005 19.927C91.4165 20.0437 92.251 19.3955 92.3668 18.4818C92.4826 17.568 91.8347 16.7335 90.9196 16.6178C87.6855 16.2089 84.4561 16.1471 81.3084 16.4333C78.6737 13.9776 76.0967 11.6089 73.6402 9.38468C67.7536 4.05794 60.1486 0.890894 52.2265 0.467049L44.4532 0.0512116C37.1017 -0.340611 30.0164 1.52177 23.9646 5.43844C19.8023 8.13227 16.5206 11.2017 14.1972 14.5722C11.9785 14.5818 10.5673 14.5755 9.63508 14.5714C8.23387 14.5652 7.9148 14.5638 7.56249 14.6283C5.50226 14.9474 3.91874 16.7264 3.91874 18.8729V28.958C3.91874 28.9599 3.91866 28.9618 3.91855 28.9637C3.91847 28.9651 3.91838 28.9664 3.91829 28.9677C3.9182 28.9689 3.91812 28.9702 3.91804 28.9714C3.91793 28.9734 3.91784 28.9754 3.91784 28.9774C3.91784 28.9806 3.91807 28.9838 3.91829 28.987C3.91851 28.9902 3.91874 28.9935 3.91874 28.9967V30.236H2.34233C1.05071 30.236 0 31.2845 0 32.5732V42.7781C0 43.8895 0.791985 44.8533 1.8781 45.069L16.0759 47.9336C17.7116 52.0669 21.749 55 26.4619 55C30.8885 55 34.7216 52.414 36.5264 48.6755H42.6855C43.6077 48.6755 44.3554 47.929 44.3554 47.0077C44.3554 46.0864 43.6077 45.3399 42.6855 45.3399H37.5248C37.5905 44.8517 37.6274 44.3547 37.6274 43.8488C37.6274 42.8213 37.4847 41.8268 37.2229 40.8813H82.0532C81.7914 41.8268 81.6486 42.8213 81.6486 43.8488C81.6486 44.3547 81.6858 44.8517 81.7513 45.3399H50.4784C49.5562 45.3399 48.8085 46.0864 48.8085 47.0077C48.8085 47.929 49.5562 48.6755 50.4784 48.6755H82.7497C84.5545 52.4142 88.3875 55 92.8139 55C97.2405 55 101.074 52.414 102.878 48.6755H107.966C111.293 48.6755 114 45.9721 114 42.6491V30.9501C114 27.2976 111.982 23.9773 108.734 22.2839ZM26.9783 14.6142C26.9407 14.5293 26.9822 14.4801 27.0049 14.4532L27.0054 14.4526C31.6954 8.9744 39.0219 4.52248 47.4505 3.55138L50.9338 3.73773C51.4888 5.79135 52.2392 10.7358 50.9244 15.4926L27.0914 14.6883L27.0911 14.6883C27.0529 14.687 27.0096 14.6855 26.9783 14.6142ZM76.3111 16.3494L54.3357 15.6078C55.3423 11.3098 55.0144 6.87497 54.4254 4.01836C60.7164 4.84314 66.6704 7.5779 71.3976 11.8557C72.9898 13.2974 74.6336 14.801 76.3111 16.3494ZM11.8593 25.1065V26.5422C11.8593 26.9651 11.5148 27.3091 11.0911 27.3091H7.25879V18.8725C7.25879 18.7213 7.29686 18.5801 7.35898 18.4524L11.7201 24.6664C11.811 24.7959 11.8593 24.9482 11.8593 25.1065ZM3.34005 41.9604V40.8808H15.7014C15.3844 42.0263 15.2546 43.1873 15.3102 44.3756L3.34005 41.9604ZM26.4621 51.6637C22.1473 51.6637 18.6367 48.1576 18.6367 43.8482C18.6367 39.5388 22.1473 36.0326 26.4621 36.0326C30.7772 36.0326 34.2878 39.5388 34.2878 43.8482C34.2878 48.1576 30.7772 51.6637 26.4621 51.6637ZM109.246 32.6968C105.472 32.6968 102.997 30.7648 102.722 29.7717C103.413 29.371 105.605 29.1682 109.246 29.1682C109.641 29.1682 110.033 29.1822 110.421 29.2075C110.577 29.7659 110.66 30.3508 110.66 30.9494V32.641C110.197 32.6779 109.725 32.6968 109.246 32.6968ZM92.8139 51.6637C88.4991 51.6637 84.9885 48.1576 84.9885 43.8482C84.9885 39.5388 88.4991 36.0326 92.8139 36.0326C97.129 36.0326 100.64 39.5388 100.64 43.8482C100.64 48.1576 97.129 51.6637 92.8139 51.6637ZM107.966 45.3392H103.877C103.942 44.8511 103.979 44.3541 103.979 43.8482C103.979 42.8206 103.836 41.8261 103.575 40.8806H110.66V42.6485C110.66 44.1321 109.451 45.3392 107.966 45.3392Z" fill="#AA4D2B"/>
</g>
</svg>
