<svg width="85" height="67" viewBox="0 0 85 67" fill="none" xmlns="http://www.w3.org/2000/svg">
<path fill-rule="evenodd" clip-rule="evenodd" d="M79.4561 23.4342H82.7842C83.4556 23.4342 84 23.9786 84 24.65V42.0087C84 42.6802 83.4556 43.2245 82.7842 43.2245H73.2844C71.2853 49.4346 67.3593 55.0104 62.1533 59.0015C56.5275 63.3146 49.7988 65.6159 42.6945 65.6571C42.463 65.6597 42.3941 65.6585 42.3446 65.6576C42.3311 65.6574 42.3191 65.6572 42.3056 65.6571C35.2012 65.6159 28.4727 63.3146 22.8468 59.0015C17.6409 55.0104 13.7149 49.4346 11.7158 43.2245H2.21582C1.54436 43.2245 1 42.6802 1 42.0087V24.65C1 23.9786 1.54436 23.4342 2.21582 23.4342H11.7149C13.4946 17.8896 16.7395 12.9354 21.1414 9.0616C21.6454 8.61791 22.4138 8.66719 22.8574 9.17119C23.3009 9.67519 23.2519 10.4434 22.7478 10.8871C21.5616 11.9309 20.47 13.0621 19.4725 14.2642H28.2344C29.8441 10.1604 31.9546 6.84054 34.3937 4.54912C31.8556 5.26176 29.4153 6.3085 27.1431 7.67119C26.5669 8.01664 25.8202 7.82957 25.4749 7.25376C25.1297 6.67778 25.3166 5.93095 25.8924 5.58565C30.8353 2.62148 36.5105 1.03638 42.3056 1.00169C42.5611 1.00169 42.5893 1.00029 42.6175 1.00025C42.6323 1.00022 42.647 1.00057 42.6945 1.00169C49.7987 1.04286 56.5273 3.34417 62.1532 7.65725C67.3591 11.6484 71.2851 17.2241 73.2842 23.4342H73.7822C74.4537 23.4342 74.9981 23.9786 74.9981 24.65C74.9981 25.3215 74.4537 25.8659 73.7822 25.8659H72.3904C72.3896 25.8659 72.3889 25.8659 72.3881 25.866C72.3873 25.8661 72.3866 25.8662 72.3858 25.8662C72.3845 25.8662 72.3832 25.8659 72.3819 25.8659H66.6413V40.7929H72.3589H72.3701H81.5684V25.8659H79.4561C78.7846 25.8659 78.2403 25.3215 78.2403 24.65C78.2403 23.9786 78.7846 23.4342 79.4561 23.4342ZM59.2632 23.4342H65.4255H70.7195C69.8728 21.023 68.7265 18.764 67.3301 16.6957H57.6311C58.3021 18.7838 58.8521 21.0387 59.2632 23.4342ZM29.9403 16.6957C29.2273 18.765 28.6409 21.0243 28.206 23.4342H41.2842V16.6957H29.9403ZM55.0599 16.6958H43.7158V23.4344H56.794C56.3591 21.0245 55.7727 18.7651 55.0599 16.6958ZM54.1276 14.2642C51.5462 8.19043 47.7964 4.198 43.7158 3.53189V14.2642H54.1276ZM56.766 14.2642H65.5012C61.6506 9.65103 56.4592 6.24284 50.6377 4.57652C53.0632 6.86713 55.1629 10.1764 56.766 14.2642ZM41.2842 14.2642V3.53319C37.201 4.20367 33.453 8.1948 30.8727 14.2642H41.2842ZM27.369 16.6958H17.6543C16.2527 18.7848 15.1197 21.0465 14.2832 23.4344H25.7368C26.148 21.0389 26.6979 18.7838 27.369 16.6958ZM3.43164 40.7931H15.5671C16.2386 40.7931 16.7828 41.3374 16.7828 42.0089C16.7828 42.6803 16.2384 43.2247 15.567 43.2247H14.2805C15.1272 45.6359 16.2735 47.8949 17.6699 49.9633H27.3689C26.6979 47.8751 26.1479 45.6202 25.7368 43.2247H21.241C20.5695 43.2247 20.0252 42.6803 20.0252 42.0089C20.0252 41.3374 20.5695 40.7931 21.241 40.7931H64.2097V25.866H3.43164V40.7931ZM41.2842 63.127V52.3947H30.8724C33.4538 58.4685 37.2036 62.4609 41.2842 63.127ZM28.206 43.2245C28.6409 45.6344 29.2273 47.8938 29.9401 49.9631H41.2842V43.2245H28.206ZM43.7158 52.3947V63.1257C47.799 62.4552 51.547 58.4641 54.1273 52.3947H43.7158ZM43.7158 43.2247V49.9631V49.9633H55.0597C55.7727 47.8939 56.3591 45.6346 56.794 43.2247H43.7158ZM28.2341 52.3947H19.4988C23.3494 57.0079 28.5408 60.4161 34.3623 62.0824C31.9368 59.7918 29.8372 56.4825 28.2341 52.3947ZM56.7656 52.3947C55.1619 56.4831 53.0611 59.7929 50.6337 62.0835C56.457 60.4175 61.6498 57.009 65.5012 52.3947H56.7656ZM57.631 49.9631H67.33C68.7264 47.8947 69.8727 45.6359 70.7195 43.2245H65.4255H59.2632C58.852 45.62 58.3021 47.8751 57.631 49.9631ZM73.6137 37.0017C71.3179 37.0017 69.4502 35.134 69.4502 32.8383C69.4502 30.5426 71.3177 28.675 73.6135 28.675C75.9093 28.675 77.777 30.5426 77.777 32.8384C77.777 33.5447 77.5996 34.2102 77.2881 34.7935L78.4034 35.9088C78.8782 36.3834 78.8782 37.1533 78.4034 37.6281C78.1661 37.8656 77.8548 37.9843 77.5437 37.9843C77.2326 37.9843 76.9214 37.8654 76.6841 37.6281L75.5687 36.5128C74.9855 36.8244 74.32 37.0017 73.6137 37.0017ZM74.883 34.0124C75.1691 33.7034 75.3455 33.2915 75.3455 32.8383C75.3455 31.8834 74.5687 31.1066 73.6137 31.1066C72.6587 31.1066 71.8819 31.8834 71.8819 32.8384C71.8819 33.7934 72.6587 34.5702 73.6137 34.5702C74.067 34.5702 74.4789 34.3937 74.7879 34.1077C74.7924 34.1027 74.7968 34.0976 74.8012 34.0926C74.8116 34.0807 74.8218 34.0689 74.8331 34.0576C74.8413 34.0494 74.8498 34.0417 74.8584 34.0341C74.8666 34.0268 74.8749 34.0197 74.883 34.0124Z" fill="#AA4D2B"/>
<path d="M73.2844 43.2245V42.7245H72.9201L72.8085 43.0713L73.2844 43.2245ZM62.1533 59.0015L61.8491 58.6047H61.8491L62.1533 59.0015ZM42.6945 65.6571L42.6916 65.1571L42.6888 65.1571L42.6945 65.6571ZM42.3446 65.6576L42.3355 66.1575L42.3356 66.1576L42.3446 65.6576ZM42.3056 65.6571L42.3096 65.1571L42.3085 65.1571L42.3056 65.6571ZM22.8468 59.0015L23.151 58.6047H23.151L22.8468 59.0015ZM11.7158 43.2245L12.1917 43.0713L12.0801 42.7245H11.7158V43.2245ZM11.7149 23.4342V23.9342H12.0796L12.191 23.587L11.7149 23.4342ZM21.1414 9.0616L21.4718 9.43696L21.4718 9.43689L21.1414 9.0616ZM22.8574 9.17119L22.482 9.50151L22.8574 9.17119ZM22.7478 10.8871L23.0781 11.2625L23.0781 11.2625L22.7478 10.8871ZM19.4725 14.2642L19.0877 13.9449L18.4079 14.7642H19.4725V14.2642ZM28.2344 14.2642V14.7642H28.5753L28.6998 14.4468L28.2344 14.2642ZM34.3937 4.54912L34.7361 4.91354L34.2586 4.06774L34.3937 4.54912ZM27.1431 7.67119L27.4002 8.10001L27.4002 8.09999L27.1431 7.67119ZM25.4749 7.25376L25.0461 7.51085L25.0461 7.5109L25.4749 7.25376ZM25.8924 5.58565L26.1495 6.01446L26.1495 6.01446L25.8924 5.58565ZM42.3056 1.00169V0.501677L42.3026 0.501695L42.3056 1.00169ZM42.6175 1.00025L42.6167 0.500246L42.6167 0.500246L42.6175 1.00025ZM42.6945 1.00169L42.6828 1.50163L42.6916 1.50168L42.6945 1.00169ZM62.1532 7.65725L61.849 8.05405L61.849 8.05406L62.1532 7.65725ZM73.2842 23.4342L72.8083 23.5874L72.9199 23.9342H73.2842V23.4342ZM66.6413 25.8659V25.3659H66.1413V25.8659H66.6413ZM66.6413 40.7929H66.1413V41.2929H66.6413V40.7929ZM81.5684 40.7929V41.2929H82.0684V40.7929H81.5684ZM81.5684 25.8659H82.0684V25.3659H81.5684V25.8659ZM59.2632 23.4342L58.7705 23.5188L58.8417 23.9342H59.2632V23.4342ZM70.7195 23.4342V23.9342H71.425L71.1913 23.2686L70.7195 23.4342ZM67.3301 16.6957L67.7445 16.4159L67.5958 16.1957H67.3301V16.6957ZM57.6311 16.6957V16.1957H56.9453L57.1551 16.8486L57.6311 16.6957ZM28.206 23.4342L27.714 23.3454L27.6077 23.9342H28.206V23.4342ZM29.9403 16.6957V16.1957H29.5837L29.4675 16.5328L29.9403 16.6957ZM41.2842 23.4342V23.9342H41.7842V23.4342H41.2842ZM41.2842 16.6957H41.7842V16.1957H41.2842V16.6957ZM43.7158 16.6958V16.1958H43.2158V16.6958H43.7158ZM55.0599 16.6958L55.5326 16.533L55.4165 16.1958H55.0599V16.6958ZM43.7158 23.4344H43.2158V23.9344H43.7158V23.4344ZM56.794 23.4344V23.9344H57.3923L57.286 23.3456L56.794 23.4344ZM43.7158 3.53189L43.7964 3.03842L43.2158 2.94365V3.53189H43.7158ZM54.1276 14.2642V14.7642H54.8834L54.5878 14.0686L54.1276 14.2642ZM43.7158 14.2642H43.2158V14.7642H43.7158V14.2642ZM65.5012 14.2642V14.7642H66.5699L65.8851 13.9438L65.5012 14.2642ZM56.766 14.2642L56.3005 14.4467L56.425 14.7642H56.766V14.2642ZM50.6377 4.57652L50.7753 4.09583L50.2944 4.94004L50.6377 4.57652ZM41.2842 3.53319H41.7842V2.94439L41.2032 3.03979L41.2842 3.53319ZM41.2842 14.2642V14.7642H41.7842V14.2642H41.2842ZM30.8727 14.2642L30.4126 14.0686L30.1168 14.7642H30.8727V14.2642ZM17.6543 16.6958V16.1958H17.3877L17.2391 16.4172L17.6543 16.6958ZM27.369 16.6958L27.8451 16.8488L28.0549 16.1958H27.369V16.6958ZM14.2832 23.4344L13.8114 23.2691L13.5783 23.9344H14.2832V23.4344ZM25.7368 23.4344V23.9344H26.1582L26.2295 23.519L25.7368 23.4344ZM3.43164 40.7931H2.93164V41.2931H3.43164V40.7931ZM14.2805 43.2247V42.7247H13.575L13.8087 43.3904L14.2805 43.2247ZM17.6699 49.9633L17.2555 50.243L17.4042 50.4633H17.6699V49.9633ZM27.3689 49.9633V50.4633H28.0547L27.8449 49.8103L27.3689 49.9633ZM25.7368 43.2247L26.2296 43.1401L26.1583 42.7247H25.7368V43.2247ZM64.2097 40.7931V41.2931H64.7097V40.7931H64.2097ZM64.2097 25.866H64.7097V25.366H64.2097V25.866ZM3.43164 25.866V25.366H2.93164V25.866H3.43164ZM41.2842 52.3947H41.7842V51.8947H41.2842V52.3947ZM41.2842 63.127L41.2036 63.6205L41.7842 63.7153V63.127H41.2842ZM30.8724 52.3947V51.8947H30.1166L30.4122 52.5903L30.8724 52.3947ZM29.9401 49.9631L29.4674 50.1259L29.5835 50.4631H29.9401V49.9631ZM28.206 43.2245V42.7245H27.6077L27.714 43.3133L28.206 43.2245ZM41.2842 49.9631V50.4631H41.7842V49.9631H41.2842ZM41.2842 43.2245H41.7842V42.7245H41.2842V43.2245ZM43.7158 63.1257H43.2158V63.7145L43.7968 63.6191L43.7158 63.1257ZM43.7158 52.3947V51.8947H43.2158V52.3947H43.7158ZM54.1273 52.3947L54.5874 52.5904L54.8832 51.8947H54.1273V52.3947ZM43.7158 43.2247V42.7247H43.2158V43.2247H43.7158ZM43.7158 49.9633H43.2158V50.4633H43.7158V49.9633ZM55.0597 49.9633V50.4633H55.4163L55.5325 50.1261L55.0597 49.9633ZM56.794 43.2247L57.286 43.3135L57.3923 42.7247H56.794V43.2247ZM19.4988 52.3947V51.8947H18.4301L19.1149 52.7151L19.4988 52.3947ZM28.2341 52.3947L28.6995 52.2122L28.575 51.8947H28.2341V52.3947ZM34.3623 62.0824L34.2247 62.5631L34.7056 61.7189L34.3623 62.0824ZM50.6337 62.0835L50.2905 61.7199L50.7712 62.5642L50.6337 62.0835ZM56.7656 52.3947V51.8947H56.4247L56.3002 52.2121L56.7656 52.3947ZM65.5012 52.3947L65.8851 52.7151L66.5698 51.8947H65.5012V52.3947ZM67.33 49.9631V50.4631H67.5957L67.7444 50.2429L67.33 49.9631ZM57.631 49.9631L57.155 49.8101L56.9451 50.4631H57.631V49.9631ZM70.7195 43.2245L71.1913 43.3902L71.425 42.7245H70.7195V43.2245ZM59.2632 43.2245V42.7245H58.8418L58.7705 43.1399L59.2632 43.2245ZM77.2881 34.7935L76.8471 34.5579L76.6724 34.8849L76.9345 35.147L77.2881 34.7935ZM78.4034 35.9088L78.0498 36.2623L78.0499 36.2624L78.4034 35.9088ZM78.4034 37.6281L78.0498 37.2745L78.0497 37.2747L78.4034 37.6281ZM76.6841 37.6281L76.3305 37.9817L76.6841 37.6281ZM75.5687 36.5128L75.9223 36.1592L75.6602 35.8971L75.3332 36.0718L75.5687 36.5128ZM74.883 34.0124L75.2161 34.3853L75.2338 34.3695L75.2499 34.3521L74.883 34.0124ZM74.7879 34.1077L75.1275 34.4747L75.1448 34.4586L75.1606 34.441L74.7879 34.1077ZM74.8012 34.0926L74.4244 33.7639L74.4242 33.7641L74.8012 34.0926ZM74.8331 34.0576L74.4795 33.7041L74.4795 33.7041L74.8331 34.0576ZM74.8584 34.0341L74.527 33.6596L74.5269 33.6598L74.8584 34.0341ZM82.7842 22.9342H79.4561V23.9342H82.7842V22.9342ZM84.5 24.65C84.5 23.7024 83.7318 22.9342 82.7842 22.9342V23.9342C83.1795 23.9342 83.5 24.2547 83.5 24.65H84.5ZM84.5 42.0087V24.65H83.5V42.0087H84.5ZM82.7842 43.7245C83.7318 43.7245 84.5 42.9563 84.5 42.0087H83.5C83.5 42.404 83.1795 42.7245 82.7842 42.7245V43.7245ZM73.2844 43.7245H82.7842V42.7245H73.2844V43.7245ZM62.4575 59.3983C67.7441 55.3454 71.73 49.6847 73.7604 43.3778L72.8085 43.0713C70.8405 49.1846 66.9745 54.6754 61.8491 58.6047L62.4575 59.3983ZM42.6974 66.1571C49.9104 66.1152 56.745 63.7779 62.4575 59.3983L61.8491 58.6047C56.31 62.8513 49.6872 65.1165 42.6916 65.1571L42.6974 66.1571ZM42.3356 66.1576C42.3911 66.1585 42.465 66.1598 42.7003 66.157L42.6888 65.1571C42.461 65.1597 42.3972 65.1585 42.3535 65.1577L42.3356 66.1576ZM42.3017 66.1571C42.3123 66.1571 42.3219 66.1573 42.3355 66.1575L42.3536 65.1577C42.3403 65.1575 42.3259 65.1572 42.3096 65.1571L42.3017 66.1571ZM22.5426 59.3983C28.2552 63.7779 35.0896 66.1152 42.3027 66.1571L42.3085 65.1571C35.3128 65.1165 28.6902 62.8513 23.151 58.6047L22.5426 59.3983ZM11.2398 43.3778C13.2701 49.6847 17.256 55.3454 22.5426 59.3983L23.151 58.6047C18.0257 54.6754 14.1597 49.1846 12.1917 43.0713L11.2398 43.3778ZM2.21582 43.7245H11.7158V42.7245H2.21582V43.7245ZM0.5 42.0087C0.5 42.9563 1.26822 43.7245 2.21582 43.7245V42.7245C1.82051 42.7245 1.5 42.404 1.5 42.0087H0.5ZM0.5 24.65V42.0087H1.5V24.65H0.5ZM2.21582 22.9342C1.26822 22.9342 0.5 23.7024 0.5 24.65H1.5C1.5 24.2547 1.82051 23.9342 2.21582 23.9342V22.9342ZM11.7149 22.9342H2.21582V23.9342H11.7149V22.9342ZM20.8111 8.68625C16.3417 12.6195 13.0462 17.6505 11.2389 23.2814L12.191 23.587C13.943 18.1287 17.1374 13.2513 21.4718 9.43696L20.8111 8.68625ZM23.2327 8.84087C22.6069 8.1297 21.5225 8.05999 20.8111 8.68631L21.4718 9.43689C21.7684 9.17583 22.2208 9.20468 22.482 9.50151L23.2327 8.84087ZM23.0781 11.2625C23.7896 10.6363 23.8587 9.55218 23.2327 8.84087L22.482 9.50151C22.7431 9.79819 22.7143 10.2505 22.4175 10.5118L23.0781 11.2625ZM19.8573 14.5835C20.8387 13.4008 21.9122 12.2884 23.0781 11.2625L22.4175 10.5118C21.211 11.5734 20.1013 12.7235 19.0877 13.9449L19.8573 14.5835ZM28.2344 13.7642H19.4725V14.7642H28.2344V13.7642ZM34.0514 4.18471C31.5444 6.5399 29.3978 9.92906 27.7689 14.0816L28.6998 14.4468C30.2905 10.3917 32.3649 7.14118 34.7361 4.91354L34.0514 4.18471ZM27.4002 8.09999C29.6339 6.76042 32.0331 5.73125 34.5289 5.03051L34.2586 4.06774C31.6781 4.79227 29.1967 5.85657 26.8859 7.24239L27.4002 8.09999ZM25.0461 7.5109C25.5334 8.32349 26.5872 8.58749 27.4002 8.10001L26.8859 7.24237C26.5467 7.4458 26.1071 7.33565 25.9038 6.99662L25.0461 7.5109ZM25.6352 5.15684C24.8226 5.64417 24.5589 6.69811 25.0461 7.51085L25.9038 6.99667C25.7004 6.65746 25.8106 6.21772 26.1495 6.01446L25.6352 5.15684ZM42.3026 0.501695C36.4185 0.53692 30.6554 2.14635 25.6352 5.15685L26.1495 6.01446C31.0152 3.09662 36.6026 1.53584 42.3086 1.50168L42.3026 0.501695ZM42.6167 0.500246C42.6024 0.500269 42.5746 0.500733 42.5426 0.501C42.502 0.501339 42.4326 0.501686 42.3056 0.501686V1.50169C42.4342 1.50169 42.5066 1.50134 42.551 1.50097C42.604 1.50052 42.6043 1.50027 42.6183 1.50024L42.6167 0.500246ZM42.7063 0.501824C42.6622 0.500789 42.6394 0.500212 42.6167 0.500246L42.6182 1.50024C42.6251 1.50023 42.6319 1.50035 42.6828 1.50155L42.7063 0.501824ZM62.4574 7.26044C56.7448 2.88088 49.9103 0.543501 42.6974 0.501695L42.6916 1.50168C49.687 1.54222 56.3098 3.80745 61.849 8.05405L62.4574 7.26044ZM73.7602 23.281C71.7299 16.9741 67.744 11.3134 62.4574 7.26044L61.849 8.05406C66.9743 11.9834 70.8403 17.4742 72.8083 23.5874L73.7602 23.281ZM73.7822 22.9342H73.2842V23.9342H73.7822V22.9342ZM75.4981 24.65C75.4981 23.7024 74.7298 22.9342 73.7822 22.9342V23.9342C74.1776 23.9342 74.4981 24.2547 74.4981 24.65H75.4981ZM73.7822 26.3659C74.7298 26.3659 75.4981 25.5976 75.4981 24.65H74.4981C74.4981 25.0454 74.1776 25.3659 73.7822 25.3659V26.3659ZM72.3904 26.3659H73.7822V25.3659H72.3904V26.3659ZM72.441 26.3632C72.441 26.3632 72.441 26.3632 72.441 26.3632C72.441 26.3632 72.441 26.3632 72.441 26.3632C72.4409 26.3632 72.4409 26.3632 72.4408 26.3632C72.4407 26.3632 72.4405 26.3633 72.4403 26.3633C72.4398 26.3633 72.439 26.3634 72.4381 26.3635C72.4362 26.3637 72.433 26.364 72.429 26.3643C72.4215 26.3649 72.4077 26.3659 72.3904 26.3659V25.3659C72.3723 25.3659 72.3577 25.3668 72.3495 25.3675C72.3451 25.3678 72.3416 25.3682 72.3393 25.3684C72.3372 25.3686 72.3354 25.3688 72.3352 25.3688L72.441 26.3632ZM72.3858 26.3662C72.4038 26.3662 72.4183 26.3652 72.4266 26.3646C72.431 26.3642 72.4346 26.3639 72.4369 26.3636C72.439 26.3634 72.4408 26.3632 72.441 26.3632L72.3352 25.3688C72.3352 25.3688 72.3352 25.3688 72.3352 25.3688C72.3352 25.3688 72.3352 25.3688 72.3352 25.3688C72.3353 25.3688 72.3353 25.3688 72.3354 25.3688C72.3355 25.3688 72.3357 25.3688 72.3359 25.3688C72.3364 25.3687 72.3372 25.3686 72.3382 25.3685C72.3401 25.3683 72.3433 25.368 72.3473 25.3677C72.3549 25.3671 72.3686 25.3662 72.3858 25.3662V26.3662ZM72.3819 26.3659C72.3619 26.3659 72.3457 26.3646 72.3362 26.3637C72.3314 26.3633 72.3275 26.3628 72.3252 26.3626C72.3231 26.3623 72.3214 26.3621 72.3219 26.3622C72.3219 26.3622 72.3224 26.3622 72.3231 26.3623C72.3238 26.3624 72.3249 26.3625 72.3262 26.3627C72.3288 26.363 72.333 26.3635 72.3382 26.364C72.3483 26.3649 72.3651 26.3662 72.3858 26.3662V25.3662C72.4059 25.3662 72.422 25.3674 72.4315 25.3683C72.4364 25.3688 72.4403 25.3692 72.4426 25.3695C72.4446 25.3697 72.4464 25.3699 72.4459 25.3699C72.4459 25.3699 72.4453 25.3698 72.4447 25.3697C72.444 25.3696 72.4429 25.3695 72.4416 25.3694C72.439 25.3691 72.4348 25.3686 72.4296 25.3681C72.4194 25.3671 72.4027 25.3659 72.3819 25.3659V26.3659ZM66.6413 26.3659H72.3819V25.3659H66.6413V26.3659ZM67.1413 40.7929V25.8659H66.1413V40.7929H67.1413ZM72.3589 40.2929H66.6413V41.2929H72.3589V40.2929ZM72.3701 40.2929H72.3589V41.2929H72.3701V40.2929ZM81.5684 40.2929H72.3701V41.2929H81.5684V40.2929ZM81.0684 25.8659V40.7929H82.0684V25.8659H81.0684ZM79.4561 26.3659H81.5684V25.3659H79.4561V26.3659ZM77.7403 24.65C77.7403 25.5976 78.5085 26.3659 79.4561 26.3659V25.3659C79.0608 25.3659 78.7403 25.0454 78.7403 24.65H77.7403ZM79.4561 22.9342C78.5085 22.9342 77.7403 23.7024 77.7403 24.65H78.7403C78.7403 24.2547 79.0608 23.9342 79.4561 23.9342V22.9342ZM65.4255 22.9342H59.2632V23.9342H65.4255V22.9342ZM70.7195 22.9342H65.4255V23.9342H70.7195V22.9342ZM66.9157 16.9754C68.2887 19.009 69.4155 21.2297 70.2477 23.5999L71.1913 23.2686C70.3302 20.8163 69.1644 18.519 67.7445 16.4159L66.9157 16.9754ZM57.6311 17.1957H67.3301V16.1957H57.6311V17.1957ZM59.756 23.3496C59.3412 20.9326 58.7858 18.6547 58.1072 16.5427L57.1551 16.8486C57.8184 18.9129 58.363 21.1449 58.7705 23.5188L59.756 23.3496ZM28.6981 23.523C29.1288 21.1364 29.7089 18.902 30.413 16.8585L29.4675 16.5328C28.7456 18.628 28.1531 20.9122 27.714 23.3454L28.6981 23.523ZM41.2842 22.9342H28.206V23.9342H41.2842V22.9342ZM40.7842 16.6957V23.4342H41.7842V16.6957H40.7842ZM29.9403 17.1957H41.2842V16.1957H29.9403V17.1957ZM43.7158 17.1958H55.0599V16.1958H43.7158V17.1958ZM44.2158 23.4344V16.6958H43.2158V23.4344H44.2158ZM56.794 22.9344H43.7158V23.9344H56.794V22.9344ZM54.5872 16.8587C55.2911 18.9021 55.8712 21.1366 56.3019 23.5232L57.286 23.3456C56.8469 20.9124 56.2544 18.6282 55.5326 16.533L54.5872 16.8587ZM43.6353 4.02536C47.4554 4.64895 51.1064 8.43405 53.6675 14.4598L54.5878 14.0686C51.9859 7.9468 48.1375 3.74705 43.7964 3.03842L43.6353 4.02536ZM44.2158 14.2642V3.53189H43.2158V14.2642H44.2158ZM54.1276 13.7642H43.7158V14.7642H54.1276V13.7642ZM65.5012 13.7642H56.766V14.7642H65.5012V13.7642ZM50.5001 5.05722C56.2244 6.6957 61.3303 10.0475 65.1174 14.5846L65.8851 13.9438C61.971 9.25453 56.6941 5.78999 50.7753 4.09583L50.5001 5.05722ZM57.2314 14.0816C55.6093 9.94528 53.4738 6.56711 50.981 4.21301L50.2944 4.94004C52.6527 7.16714 54.7164 10.4076 56.3005 14.4467L57.2314 14.0816ZM40.7842 3.53319V14.2642H41.7842V3.53319H40.7842ZM31.3328 14.4598C33.8926 8.43869 37.542 4.65437 41.3652 4.02658L41.2032 3.03979C36.86 3.75297 33.0134 7.95091 30.4126 14.0686L31.3328 14.4598ZM41.2842 13.7642H30.8727V14.7642H41.2842V13.7642ZM17.6543 17.1958H27.369V16.1958H17.6543V17.1958ZM14.7551 23.5997C15.5776 21.2518 16.6915 19.0282 18.0695 16.9744L17.2391 16.4172C15.8139 18.5414 14.6619 20.8412 13.8114 23.2691L14.7551 23.5997ZM25.7368 22.9344H14.2832V23.9344H25.7368V22.9344ZM26.893 16.5428C26.2142 18.6547 25.6589 20.9328 25.244 23.3498L26.2295 23.519C26.6371 21.145 27.1816 18.9129 27.8451 16.8488L26.893 16.5428ZM15.5671 40.2931H3.43164V41.2931H15.5671V40.2931ZM17.2828 42.0089C17.2828 41.0614 16.5148 40.2931 15.5671 40.2931V41.2931C15.9624 41.2931 16.2828 41.6135 16.2828 42.0089H17.2828ZM15.567 43.7247C16.5146 43.7247 17.2828 42.9565 17.2828 42.0089H16.2828C16.2828 42.4042 15.9623 42.7247 15.567 42.7247V43.7247ZM14.2805 43.7247H15.567V42.7247H14.2805V43.7247ZM18.0843 49.6835C16.7113 47.6499 15.5845 45.4292 14.7522 43.059L13.8087 43.3904C14.6698 45.8426 15.8356 48.1399 17.2555 50.243L18.0843 49.6835ZM27.3689 49.4633H17.6699V50.4633H27.3689V49.4633ZM25.244 43.3093C25.6588 45.7263 26.2142 48.0042 26.8928 50.1162L27.8449 49.8103C27.1816 47.746 26.637 45.5141 26.2296 43.1401L25.244 43.3093ZM21.241 43.7247H25.7368V42.7247H21.241V43.7247ZM19.5252 42.0089C19.5252 42.9565 20.2934 43.7247 21.241 43.7247V42.7247C20.8457 42.7247 20.5252 42.4042 20.5252 42.0089H19.5252ZM21.241 40.2931C20.2934 40.2931 19.5252 41.0613 19.5252 42.0089H20.5252C20.5252 41.6136 20.8457 41.2931 21.241 41.2931V40.2931ZM64.2097 40.2931H21.241V41.2931H64.2097V40.2931ZM63.7097 25.866V40.7931H64.7097V25.866H63.7097ZM3.43164 26.366H64.2097V25.366H3.43164V26.366ZM3.93164 40.7931V25.866H2.93164V40.7931H3.93164ZM40.7842 52.3947V63.127H41.7842V52.3947H40.7842ZM30.8724 52.8947H41.2842V51.8947H30.8724V52.8947ZM41.3647 62.6336C37.5446 62.01 33.8936 58.2249 31.3325 52.1992L30.4122 52.5903C33.0141 58.7121 36.8625 62.9119 41.2036 63.6205L41.3647 62.6336ZM30.4128 49.8003C29.7089 47.7568 29.1288 45.5224 28.6981 43.1357L27.714 43.3133C28.1531 45.7465 28.7456 48.0308 29.4674 50.1259L30.4128 49.8003ZM41.2842 49.4631H29.9401V50.4631H41.2842V49.4631ZM40.7842 43.2245V49.9631H41.7842V43.2245H40.7842ZM28.206 43.7245H41.2842V42.7245H28.206V43.7245ZM44.2158 63.1257V52.3947H43.2158V63.1257H44.2158ZM53.6672 52.1991C51.1074 58.2202 47.458 62.0045 43.6348 62.6323L43.7968 63.6191C48.14 62.9059 51.9866 58.708 54.5874 52.5904L53.6672 52.1991ZM43.7158 52.8947H54.1273V51.8947H43.7158V52.8947ZM44.2158 49.9631V43.2247H43.2158V49.9631H44.2158ZM44.2158 49.9633V49.9631H43.2158V49.9633H44.2158ZM55.0597 49.4633H43.7158V50.4633H55.0597V49.4633ZM56.3019 43.1359C55.8712 45.5225 55.2911 47.7569 54.587 49.8004L55.5325 50.1261C56.2544 48.0309 56.8469 45.7467 57.286 43.3135L56.3019 43.1359ZM43.7158 43.7247H56.794V42.7247H43.7158V43.7247ZM19.4988 52.8947H28.2341V51.8947H19.4988V52.8947ZM34.4999 61.6017C28.7756 59.9632 23.6697 56.6114 19.8826 52.0743L19.1149 52.7151C23.029 57.4044 28.3059 60.8689 34.2247 62.5631L34.4999 61.6017ZM27.7686 52.5773C29.3907 56.7136 31.5262 60.0918 34.019 62.4459L34.7056 61.7189C32.3473 59.4918 30.2836 56.2513 28.6995 52.2122L27.7686 52.5773ZM50.9768 62.4472C53.4716 60.093 55.6083 56.7143 57.2311 52.5773L56.3002 52.2121C54.7155 56.2519 52.6506 59.4928 50.2905 61.7199L50.9768 62.4472ZM65.1174 52.0743C61.3295 56.6125 56.2222 59.9646 50.4962 61.6028L50.7712 62.5642C56.6918 60.8704 61.9701 57.4055 65.8851 52.7151L65.1174 52.0743ZM56.7656 52.8947H65.5012V51.8947H56.7656V52.8947ZM67.33 49.4631H57.631V50.4631H67.33V49.4631ZM70.2478 43.0589C69.4153 45.4292 68.2885 47.6497 66.9156 49.6833L67.7444 50.2429C69.1643 48.1397 70.33 45.8426 71.1913 43.3902L70.2478 43.0589ZM65.4255 43.7245H70.7195V42.7245H65.4255V43.7245ZM59.2632 43.7245H65.4255V42.7245H59.2632V43.7245ZM58.107 50.1161C58.7858 48.0042 59.3411 45.7261 59.756 43.3091L58.7705 43.1399C58.3629 45.5139 57.8184 47.7461 57.155 49.8101L58.107 50.1161ZM68.9502 32.8383C68.9502 35.4102 71.0418 37.5017 73.6137 37.5017V36.5017C71.5941 36.5017 69.9502 34.8579 69.9502 32.8383H68.9502ZM73.6135 28.175C71.0416 28.175 68.9502 30.2665 68.9502 32.8383H69.9502C69.9502 30.8188 71.5939 29.175 73.6135 29.175V28.175ZM78.277 32.8384C78.277 30.2665 76.1855 28.175 73.6135 28.175V29.175C75.6332 29.175 77.277 30.8188 77.277 32.8384H78.277ZM77.7291 35.029C78.0782 34.3755 78.277 33.6294 78.277 32.8384H77.277C77.277 33.46 77.1211 34.0448 76.8471 34.5579L77.7291 35.029ZM78.7569 35.5552L77.6416 34.4399L76.9345 35.147L78.0498 36.2623L78.7569 35.5552ZM78.7569 37.9817C79.427 37.3116 79.4271 36.2251 78.7569 35.5552L78.0499 36.2624C78.3293 36.5417 78.3294 36.995 78.0498 37.2745L78.7569 37.9817ZM77.5437 38.4843C77.9819 38.4843 78.4221 38.3167 78.7571 37.9815L78.0497 37.2747C77.91 37.4145 77.7277 37.4843 77.5437 37.4843V38.4843ZM76.3305 37.9817C76.6653 38.3165 77.1054 38.4843 77.5437 38.4843V37.4843C77.3599 37.4843 77.1775 37.4144 77.0376 37.2745L76.3305 37.9817ZM75.2152 36.8663L76.3305 37.9817L77.0376 37.2745L75.9223 36.1592L75.2152 36.8663ZM73.6137 37.5017C74.4047 37.5017 75.1508 37.3029 75.8043 36.9538L75.3332 36.0718C74.8201 36.3458 74.2353 36.5017 73.6137 36.5017V37.5017ZM74.8455 32.8383C74.8455 33.1589 74.7213 33.4511 74.5162 33.6727L75.2499 34.3521C75.617 33.9557 75.8455 33.4241 75.8455 32.8383H74.8455ZM73.6137 31.6066C74.2926 31.6066 74.8455 32.1596 74.8455 32.8383H75.8455C75.8455 31.6073 74.8448 30.6066 73.6137 30.6066V31.6066ZM72.3819 32.8384C72.3819 32.1596 72.9349 31.6066 73.6137 31.6066V30.6066C72.3826 30.6066 71.3819 31.6073 71.3819 32.8384H72.3819ZM73.6137 34.0702C72.9349 34.0702 72.3819 33.5173 72.3819 32.8384H71.3819C71.3819 34.0695 72.3826 35.0702 73.6137 35.0702V34.0702ZM74.4482 33.7408C74.2266 33.946 73.9342 34.0702 73.6137 34.0702V35.0702C74.1997 35.0702 74.7312 34.8414 75.1275 34.4747L74.4482 33.7408ZM74.4242 33.7641C74.4198 33.7692 74.4172 33.7721 74.4151 33.7745L75.1606 34.441C75.1675 34.4333 75.1738 34.426 75.1782 34.421L74.4242 33.7641ZM74.4795 33.7041C74.4542 33.7294 74.4329 33.7542 74.4244 33.7639L75.178 34.4212C75.1837 34.4147 75.186 34.412 75.188 34.4099C75.1895 34.4082 75.1889 34.409 75.1867 34.4111L74.4795 33.7041ZM74.5269 33.6598C74.5155 33.6699 74.4983 33.6854 74.4795 33.7041L75.1866 34.4112C75.1843 34.4135 75.1842 34.4135 75.19 34.4083L74.5269 33.6598ZM74.5499 33.6395C74.5398 33.6486 74.5449 33.6438 74.527 33.6596L75.1898 34.4085C75.1926 34.406 75.1953 34.4036 75.2001 34.3995C75.2043 34.3958 75.21 34.3907 75.2161 34.3853L74.5499 33.6395Z" fill="#AA4D2B"/>
</svg>
