<svg width="99" height="94" viewBox="0 0 99 94" fill="none" xmlns="http://www.w3.org/2000/svg">
<path fill-rule="evenodd" clip-rule="evenodd" d="M73.7478 9.7152L75.7089 2.40316C75.9795 1.39344 77.0173 0.794694 78.0263 1.06524C79.036 1.33578 79.6347 2.3736 79.3642 3.38333L77.4039 10.6954C77.1326 11.7058 76.0948 12.3031 75.0858 12.0333C74.076 11.762 73.4773 10.7249 73.7478 9.7152ZM28.8066 88.8953L19.277 72.3885C13.2881 74.7864 6.23482 72.5068 2.88927 66.7115C-0.772665 60.3737 1.41681 52.2649 7.73759 48.617L23.8082 39.3387L48.5281 7.84788C49.5793 6.20319 51.3533 5.23042 53.3077 5.23042C53.3321 5.23042 53.3558 5.23042 53.3801 5.23116C55.4026 5.25629 57.2143 6.31702 58.2255 8.06889L65.2071 20.162L72.4874 19.7251C73.2007 19.683 73.8815 20.0467 74.24 20.6676L78.0246 27.2227C78.3831 27.8436 78.3595 28.6131 77.9648 29.2119L73.9458 35.2991L80.2348 46.1917C82.3592 49.8692 79.8393 54.4691 75.6334 54.6975L75.2054 54.7815C41.5946 61.3748 39.6803 61.7504 39.3881 61.807L41.8488 66.0692C42.3714 66.9739 42.061 68.1308 41.1562 68.6541L36.2399 71.4926L41.9168 81.3267C44.011 84.9495 42.7669 89.5746 39.1471 91.6665C35.4889 93.7813 30.863 92.4611 28.8066 88.8953ZM37.2533 88.3889C39.0665 87.3415 39.6852 85.0278 38.64 83.2198C38.6278 83.1986 38.6244 83.1929 38.6252 83.1942L38.6335 83.2089L38.6376 83.216C38.639 83.2184 38.6399 83.2199 38.6399 83.2199C38.6397 83.22 38.3239 82.6729 34.7843 76.5413L29.1777 66.8291L22.6226 70.6137L32.0842 87.0037C33.1176 88.7947 35.4342 89.4408 37.2533 88.3889ZM32.4553 64.9367L34.3476 68.2143L37.6251 66.322L35.7328 63.0444L32.4553 64.9367ZM74.1624 28.1023L71.5471 23.5726L67.3227 23.8261L71.8302 31.6342L74.1624 28.1023ZM53.3336 9.01505C53.0069 9.00618 52.2011 9.09193 51.6933 9.92277C51.6296 10.0273 51.5807 10.0893 51.4156 10.2983C51.3296 10.407 51.2123 10.5556 51.0451 10.7706L74.3272 51.097C74.542 51.0568 74.6996 51.0248 74.8233 50.9997C75.0801 50.9475 75.1909 50.925 75.365 50.921C76.8028 50.8855 77.6743 49.3251 76.9572 48.084L54.9472 9.96047C54.4616 9.11928 53.6566 9.01875 53.3336 9.01505ZM70.4014 51.8672L48.5266 13.9787L27.3497 40.9561L37.3878 58.3425L70.4014 51.8672ZM4.8969 60.098C4.8969 61.7494 5.33597 63.3815 6.16682 64.8192C8.77541 69.3371 14.5729 70.8909 19.0915 68.283L33.8405 59.7669L24.3789 43.3791L9.62991 51.8945C6.71086 53.5799 4.8969 56.7229 4.8969 60.098ZM27.7243 56.7429C28.2462 57.6477 27.9365 58.806 27.0317 59.3279C26.127 59.8505 24.9686 59.54 24.4468 58.6353C23.9242 57.7312 24.2346 56.5729 25.1394 56.0503C26.0442 55.5285 27.2017 55.8389 27.7243 56.7429ZM21.1692 60.5276C20.6466 59.6229 19.489 59.3124 18.5842 59.835L15.3067 61.7274C14.4034 62.2492 13.2436 61.938 12.7218 61.0347C12.1992 60.13 11.0416 59.8195 10.1368 60.3421C9.23206 60.8647 8.9216 62.0223 9.44421 62.9271C11.0017 65.6251 14.4759 66.5764 17.199 65.0049L20.4766 63.1126C21.3813 62.59 21.6918 61.4332 21.1692 60.5276ZM84.6429 15.146L95.1874 9.27834C96.1003 8.76978 97.2527 9.09798 97.7605 10.0116C98.2691 10.9245 97.9408 12.0769 97.0272 12.5855L86.4835 18.4531C85.5683 18.9624 84.4167 18.632 83.9096 17.7199C83.401 16.807 83.73 15.6546 84.6429 15.146ZM94.0822 28.8771L86.7709 26.9182C85.7612 26.6477 84.7234 27.2464 84.4528 28.2562C84.1823 29.2659 84.7818 30.303 85.7915 30.5735L93.1035 32.5324C94.1192 32.8051 95.1518 32.1968 95.4209 31.1944C95.6914 30.1847 95.0919 29.1469 94.0822 28.8771Z" fill="#AA4D2B"/>
<path d="M75.7089 2.40316L76.1918 2.53269L76.1919 2.53257L75.7089 2.40316ZM73.7478 9.7152L73.2649 9.58568L73.2649 9.58579L73.7478 9.7152ZM78.0263 1.06524L77.8968 1.54818L77.8969 1.5482L78.0263 1.06524ZM79.3642 3.38333L79.8471 3.5128L79.8472 3.51273L79.3642 3.38333ZM77.4039 10.6954L77.8868 10.825L77.8868 10.8248L77.4039 10.6954ZM75.0858 12.0333L74.956 12.5162L74.9566 12.5163L75.0858 12.0333ZM19.277 72.3885L19.7101 72.1385L19.4934 71.7633L19.0912 71.9243L19.277 72.3885ZM28.8066 88.8953L29.2398 88.6455L29.2396 88.6453L28.8066 88.8953ZM2.88927 66.7115L3.32229 66.4615L3.3222 66.4614L2.88927 66.7115ZM7.73759 48.617L7.98752 49.05L7.98759 49.05L7.73759 48.617ZM23.8082 39.3387L24.0582 39.7717L24.1419 39.7234L24.2015 39.6474L23.8082 39.3387ZM48.5281 7.84788L48.9214 8.15661L48.9364 8.13755L48.9494 8.11714L48.5281 7.84788ZM53.3801 5.23116L53.365 5.73101L53.3739 5.73112L53.3801 5.23116ZM58.2255 8.06889L57.7925 8.31885L57.7925 8.31889L58.2255 8.06889ZM65.2071 20.162L64.7741 20.412L64.9286 20.6796L65.2371 20.6611L65.2071 20.162ZM72.4874 19.7251L72.4579 19.226L72.4574 19.226L72.4874 19.7251ZM74.24 20.6676L74.673 20.4176L74.673 20.4176L74.24 20.6676ZM78.0246 27.2227L77.5916 27.4727L77.5916 27.4727L78.0246 27.2227ZM77.9648 29.2119L78.382 29.4873L78.3822 29.4871L77.9648 29.2119ZM73.9458 35.2991L73.5285 35.0236L73.3583 35.2814L73.5128 35.5491L73.9458 35.2991ZM80.2348 46.1917L79.8018 46.4417L79.8018 46.4418L80.2348 46.1917ZM75.6334 54.6975L75.6062 54.1983L75.5714 54.2002L75.5371 54.2069L75.6334 54.6975ZM75.2054 54.7815L75.1092 54.2908H75.1092L75.2054 54.7815ZM39.3881 61.807L39.2929 61.3162L38.6044 61.4497L38.9551 62.057L39.3881 61.807ZM41.8488 66.0692L41.4158 66.3192L41.4159 66.3193L41.8488 66.0692ZM41.1562 68.6541L41.4062 69.0871L41.4066 69.0869L41.1562 68.6541ZM36.2399 71.4926L35.9899 71.0596L35.5569 71.3096L35.8069 71.7426L36.2399 71.4926ZM41.9168 81.3267L41.4838 81.5767L41.484 81.577L41.9168 81.3267ZM39.1471 91.6665L38.8969 91.2336L38.8969 91.2336L39.1471 91.6665ZM38.64 83.2198L39.0729 82.9696L39.0727 82.9692L38.64 83.2198ZM37.2533 88.3889L37.0032 87.956L37.003 87.9561L37.2533 88.3889ZM38.6252 83.1942L38.1876 83.4362L38.1912 83.4425L38.6252 83.1942ZM38.6335 83.2089L38.1996 83.4572L38.1998 83.4575L38.6335 83.2089ZM38.6376 83.216L39.0715 82.9675L39.0714 82.9673L38.6376 83.216ZM38.6399 83.2199L38.906 83.6432L38.9536 83.6133L38.9934 83.5735L38.6399 83.2199ZM34.7843 76.5413L35.2173 76.2913L34.7843 76.5413ZM29.1777 66.8291L29.6107 66.5791L29.3607 66.146L28.9277 66.396L29.1777 66.8291ZM22.6226 70.6137L22.3726 70.1807L21.9396 70.4307L22.1896 70.8637L22.6226 70.6137ZM32.0842 87.0037L32.5173 86.7538L32.5172 86.7537L32.0842 87.0037ZM34.3476 68.2143L33.9146 68.4643L34.1646 68.8973L34.5976 68.6473L34.3476 68.2143ZM32.4553 64.9367L32.2053 64.5037L31.7722 64.7537L32.0222 65.1867L32.4553 64.9367ZM37.6251 66.322L37.8751 66.755L38.3081 66.505L38.0581 66.072L37.6251 66.322ZM35.7328 63.0444L36.1658 62.7944L35.9158 62.3614L35.4828 62.6114L35.7328 63.0444ZM71.5471 23.5726L71.9802 23.3226L71.8256 23.055L71.5172 23.0735L71.5471 23.5726ZM74.1624 28.1023L74.5796 28.3778L74.7499 28.12L74.5954 27.8523L74.1624 28.1023ZM67.3227 23.8261L67.2927 23.327L66.4852 23.3755L66.8897 24.0761L67.3227 23.8261ZM71.8302 31.6342L71.3972 31.8841L71.8017 32.5848L72.2475 31.9097L71.8302 31.6342ZM51.6933 9.92277L51.2667 9.66202L51.2663 9.66262L51.6933 9.92277ZM53.3336 9.01505L53.32 9.51493L53.3279 9.51502L53.3336 9.01505ZM51.4156 10.2983L51.0232 9.98833L51.0232 9.98834L51.4156 10.2983ZM51.0451 10.7706L50.6504 10.4637L50.4438 10.7293L50.612 11.0206L51.0451 10.7706ZM74.3272 51.097L73.8942 51.347L74.0712 51.6534L74.419 51.5885L74.3272 51.097ZM74.8233 50.9997L74.9228 51.4897H74.9228L74.8233 50.9997ZM75.365 50.921L75.3765 51.4209L75.3774 51.4209L75.365 50.921ZM76.9572 48.084L76.5242 48.334L76.5243 48.3341L76.9572 48.084ZM54.9472 9.96047L54.5142 10.2105L54.5142 10.2105L54.9472 9.96047ZM48.5266 13.9787L48.9597 13.7287L48.5899 13.0883L48.1334 13.67L48.5266 13.9787ZM70.4014 51.8672L70.4976 52.3578L71.1843 52.2232L70.8344 51.6172L70.4014 51.8672ZM27.3497 40.9561L26.9564 40.6473L26.7476 40.9133L26.9167 41.2061L27.3497 40.9561ZM37.3878 58.3425L36.9548 58.5925L37.1335 58.9019L37.4841 58.8331L37.3878 58.3425ZM6.16682 64.8192L6.59983 64.5692L6.59973 64.569L6.16682 64.8192ZM19.0915 68.283L19.3414 68.7161L19.3415 68.716L19.0915 68.283ZM33.8405 59.7669L34.0905 60.1999L34.5235 59.9499L34.2735 59.5169L33.8405 59.7669ZM24.3789 43.3791L24.8119 43.1291L24.5619 42.6961L24.1289 42.9461L24.3789 43.3791ZM9.62991 51.8945L9.37991 51.4615H9.3799L9.62991 51.8945ZM27.0317 59.3279L26.7819 58.8948L26.7816 58.8949L27.0317 59.3279ZM27.7243 56.7429L28.1575 56.4931L28.1572 56.4927L27.7243 56.7429ZM24.4468 58.6353L24.8799 58.3854L24.8797 58.385L24.4468 58.6353ZM25.1394 56.0503L24.8896 55.6172L24.8893 55.6174L25.1394 56.0503ZM18.5842 59.835L18.8343 60.268L18.8343 60.268L18.5842 59.835ZM21.1692 60.5276L21.6022 60.2777L21.6021 60.2776L21.1692 60.5276ZM15.3067 61.7274L15.0567 61.2943L15.0566 61.2944L15.3067 61.7274ZM12.7218 61.0347L12.2888 61.2848L12.2888 61.2849L12.7218 61.0347ZM10.1368 60.3421L9.88674 59.9091H9.88674L10.1368 60.3421ZM9.44421 62.9271L9.87723 62.6771L9.87717 62.677L9.44421 62.9271ZM17.199 65.0049L17.4489 65.438L17.449 65.4379L17.199 65.0049ZM20.4766 63.1126L20.7266 63.5456L20.7267 63.5456L20.4766 63.1126ZM95.1874 9.27834L95.4305 9.71525L95.4307 9.71513L95.1874 9.27834ZM84.6429 15.146L84.3997 14.7091L84.3995 14.7092L84.6429 15.146ZM97.7605 10.0116L97.3235 10.2545L97.3237 10.2549L97.7605 10.0116ZM97.0272 12.5855L97.2704 13.0224L97.2704 13.0223L97.0272 12.5855ZM86.4835 18.4531L86.2403 18.0162L86.2403 18.0162L86.4835 18.4531ZM83.9096 17.7199L84.3466 17.4769L84.3464 17.4765L83.9096 17.7199ZM86.7709 26.9182L86.6415 27.4012H86.6415L86.7709 26.9182ZM94.0822 28.8771L93.9528 29.3601L93.9531 29.3601L94.0822 28.8771ZM84.4528 28.2562L84.9358 28.3856V28.3856L84.4528 28.2562ZM85.7915 30.5735L85.6621 31.0565L85.6621 31.0565L85.7915 30.5735ZM93.1035 32.5324L93.2332 32.0495L93.2329 32.0494L93.1035 32.5324ZM95.4209 31.1944L95.9038 31.3241L95.9038 31.3238L95.4209 31.1944ZM75.226 2.27364L73.2649 9.58568L74.2308 9.84472L76.1918 2.53269L75.226 2.27364ZM78.1558 0.582296C76.88 0.240232 75.568 0.997247 75.2259 2.27376L76.1919 2.53257C76.3909 1.78962 77.1545 1.34916 77.8968 1.54818L78.1558 0.582296ZM79.8472 3.51273C80.1891 2.23645 79.4323 0.924333 78.1557 0.582272L77.8969 1.5482C78.6397 1.74723 79.0803 2.51074 78.8812 3.25392L79.8472 3.51273ZM77.8868 10.8248L79.8471 3.5128L78.8812 3.25385L76.9209 10.5659L77.8868 10.8248ZM74.9566 12.5163C76.2317 12.8573 77.5438 12.1025 77.8868 10.825L76.921 10.5657C76.7214 11.3092 75.9578 11.7489 75.2149 11.5503L74.9566 12.5163ZM73.2649 9.58579C72.9229 10.8623 73.68 12.1733 74.956 12.5162L75.2155 11.5504C74.4721 11.3507 74.0318 10.5875 74.2308 9.8446L73.2649 9.58579ZM18.844 72.6385L28.3736 89.1452L29.2396 88.6453L19.7101 72.1385L18.844 72.6385ZM2.45624 66.9615C5.92875 72.9766 13.248 75.341 19.4629 72.8527L19.0912 71.9243C13.3282 74.2318 6.5409 72.0369 3.32229 66.4615L2.45624 66.9615ZM7.48766 48.1839C0.928174 51.9696 -1.34411 60.3842 2.45634 66.9617L3.3222 66.4614C-0.201219 60.3633 1.90544 52.5602 7.98752 49.05L7.48766 48.1839ZM23.5583 38.9057L7.48759 48.184L7.98759 49.05L24.0582 39.7717L23.5583 38.9057ZM48.1348 7.53914L23.4149 39.03L24.2015 39.6474L48.9214 8.15661L48.1348 7.53914ZM53.3077 4.73042C51.1826 4.73042 49.2498 5.79025 48.1068 7.57862L48.9494 8.11714C49.9087 6.61613 51.524 5.73042 53.3077 5.73042V4.73042ZM53.3953 4.73139C53.3621 4.73038 53.331 4.73042 53.3077 4.73042V5.73042C53.3332 5.73042 53.3494 5.73045 53.365 5.73093L53.3953 4.73139ZM58.6586 7.81894C57.5591 5.9142 55.5851 4.75852 53.3864 4.73119L53.3739 5.73112C55.22 5.75406 56.8695 6.71984 57.7925 8.31885L58.6586 7.81894ZM65.6402 19.912L58.6585 7.8189L57.7925 8.31889L64.7741 20.412L65.6402 19.912ZM72.4574 19.226L65.1772 19.6629L65.2371 20.6611L72.5173 20.2242L72.4574 19.226ZM74.673 20.4176C74.2193 19.6318 73.3589 19.1728 72.4579 19.226L72.5169 20.2243C73.0424 20.1932 73.5437 20.4615 73.807 20.9176L74.673 20.4176ZM78.4576 26.9727L74.673 20.4176L73.807 20.9176L77.5916 27.4727L78.4576 26.9727ZM78.3822 29.4871C78.8808 28.7307 78.911 27.758 78.4576 26.9727L77.5916 27.4727C77.8552 27.9293 77.8381 28.4955 77.5473 28.9366L78.3822 29.4871ZM74.3631 35.5745L78.382 29.4873L77.5475 28.9364L73.5285 35.0236L74.3631 35.5745ZM80.6678 45.9417L74.3788 35.049L73.5128 35.5491L79.8018 46.4417L80.6678 45.9417ZM75.6605 55.1968C80.2371 54.9483 82.9796 49.9436 80.6678 45.9416L79.8018 46.4418C81.7388 49.7948 79.4416 53.99 75.6062 54.1983L75.6605 55.1968ZM75.3017 55.2721L75.7296 55.1882L75.5371 54.2069L75.1092 54.2908L75.3017 55.2721ZM39.4833 62.2979C39.7762 62.2411 41.6915 61.8653 75.3017 55.2721L75.1092 54.2908C41.4977 60.8843 39.5844 61.2596 39.2929 61.3162L39.4833 62.2979ZM42.2819 65.8192L39.8211 61.557L38.9551 62.057L41.4158 66.3192L42.2819 65.8192ZM41.4066 69.0869C42.5498 68.4257 42.9428 66.9634 42.2818 65.8191L41.4159 66.3193C41.8001 66.9845 41.5722 67.8359 40.9059 68.2213L41.4066 69.0869ZM36.4899 71.9256L41.4062 69.0871L40.9062 68.2211L35.9899 71.0596L36.4899 71.9256ZM42.3499 81.0768L36.6729 71.2426L35.8069 71.7426L41.4838 81.5767L42.3499 81.0768ZM39.3973 92.0994C43.2556 89.8696 44.5824 84.9389 42.3497 81.0765L41.484 81.577C43.4395 84.96 42.2782 89.2795 38.8969 91.2336L39.3973 92.0994ZM28.3735 89.1451C30.5656 92.9461 35.4957 94.3549 39.3974 92.0993L38.8969 91.2336C35.482 93.2077 31.1605 91.9761 29.2398 88.6455L28.3735 89.1451ZM38.2072 83.47C39.1139 85.0386 38.5776 87.0465 37.0032 87.956L37.5034 88.8219C39.5554 87.6365 40.2566 85.0171 39.0729 82.9696L38.2072 83.47ZM39.0627 82.9523C39.0631 82.953 39.064 82.9545 39.065 82.9565C39.0652 82.9568 39.0688 82.9635 39.073 82.9719C39.0743 82.9745 39.0766 82.9791 39.0793 82.985C39.081 82.9887 39.0874 83.0027 39.0942 83.0212C39.0971 83.029 39.1052 83.0513 39.1121 83.0808C39.1155 83.0966 39.1218 83.1369 39.124 83.1614C39.125 83.2023 39.1099 83.3163 39.0864 83.3868C39.0209 83.4995 38.7985 83.663 38.6531 83.6933C38.5576 83.6895 38.4165 83.6484 38.3706 83.6244C38.3044 83.5853 38.2632 83.5391 38.2596 83.5352C38.2375 83.5116 38.2225 83.4906 38.2208 83.4883C38.2158 83.4814 38.212 83.4758 38.2102 83.473C38.2063 83.4673 38.2034 83.4628 38.2024 83.4612C38.2 83.4573 38.1981 83.4543 38.1976 83.4534C38.1968 83.4521 38.1962 83.4511 38.1959 83.4506C38.1953 83.4495 38.1948 83.4487 38.1947 83.4485C38.1943 83.4478 38.1943 83.4479 38.1955 83.45C38.1975 83.4534 38.2012 83.4598 38.2073 83.4704L39.0727 82.9692C39.0666 82.9586 39.0625 82.9516 39.0599 82.9472C39.0588 82.9453 39.0575 82.9429 39.0563 82.9409C39.0559 82.9403 39.0553 82.9393 39.0545 82.938C39.0541 82.9373 39.0535 82.9362 39.0527 82.9349C39.0521 82.934 39.0502 82.9309 39.0478 82.927C39.0467 82.9253 39.0438 82.9208 39.04 82.9151C39.0382 82.9123 39.0344 82.9067 39.0294 82.8998C39.0276 82.8975 39.0127 82.8765 38.9906 82.8529C38.9869 82.849 38.9457 82.8028 38.8796 82.7637C38.8337 82.7396 38.6925 82.6986 38.5971 82.6948C38.4517 82.7251 38.2292 82.8886 38.1637 83.0013C38.1402 83.0718 38.1251 83.1858 38.1261 83.2267C38.1284 83.2512 38.1347 83.2915 38.1381 83.3073C38.1449 83.3368 38.153 83.3591 38.1559 83.3669C38.1627 83.3854 38.1692 83.3994 38.1709 83.4031C38.1736 83.409 38.1759 83.4136 38.1771 83.4162C38.1813 83.4247 38.185 83.4313 38.1852 83.4317C38.1863 83.4338 38.1872 83.4354 38.1876 83.4362L39.0627 82.9523ZM39.0675 82.9606L39.0592 82.9459L38.1912 83.4425L38.1996 83.4572L39.0675 82.9606ZM39.0714 82.9673L39.0673 82.9602L38.1998 83.4575L38.2039 83.4647L39.0714 82.9673ZM38.9934 83.5735C39.1334 83.4335 39.1386 83.2678 39.1396 83.2359C39.1414 83.1813 39.1336 83.139 39.1302 83.1223C39.1229 83.0853 39.1128 83.0575 39.1101 83.0499C39.1027 83.0295 39.0956 83.0141 39.094 83.0107C39.0892 83.0003 39.0851 82.9923 39.0842 82.9907C39.0815 82.9855 39.0793 82.9814 39.0789 82.9806C39.0774 82.9779 39.0762 82.9758 39.076 82.9753C39.0751 82.9738 39.0743 82.9725 39.074 82.9719C39.0732 82.9704 39.0723 82.9689 39.0715 82.9675L38.2038 83.4645C38.2043 83.4655 38.2045 83.4659 38.2045 83.4658C38.2045 83.4658 38.2044 83.4656 38.2043 83.4654C38.2041 83.4652 38.2039 83.4647 38.2035 83.464C38.2033 83.4637 38.2022 83.4617 38.2008 83.4591C38.2004 83.4583 38.1982 83.4543 38.1955 83.4491C38.1947 83.4475 38.1905 83.4395 38.1857 83.4291C38.1842 83.4257 38.177 83.4103 38.1697 83.3899C38.1669 83.3824 38.1569 83.3546 38.1495 83.3176C38.1462 83.3008 38.1384 83.2585 38.1401 83.2039C38.1417 83.1767 38.1516 83.1123 38.1611 83.0757C38.179 83.0261 38.2402 82.9195 38.2863 82.8664L38.9934 83.5735ZM34.3513 76.7913C36.1211 79.857 37.0849 81.5267 37.6063 82.43C37.8671 82.8816 38.0172 83.1416 38.1021 83.2887C38.1446 83.3623 38.1708 83.4076 38.1864 83.4347C38.1942 83.4481 38.1994 83.4572 38.2027 83.4629C38.2044 83.4657 38.2057 83.4679 38.2066 83.4696C38.2071 83.4703 38.2077 83.4714 38.2084 83.4726C38.2086 83.473 38.2095 83.4745 38.2106 83.4763C38.2109 83.4769 38.2126 83.4797 38.2148 83.4832C38.2162 83.4855 38.2205 83.4923 38.2235 83.4967C38.2326 83.5099 38.5507 83.7119 38.906 83.6432L38.3738 82.7966C38.7291 82.7279 39.0472 82.9299 39.0563 82.9431C39.0592 82.9476 39.0635 82.9543 39.0649 82.9566C39.0671 82.9601 39.0687 82.9628 39.069 82.9633C39.07 82.965 39.0708 82.9663 39.0708 82.9664C39.0712 82.967 39.0713 82.9673 39.071 82.9668C39.0706 82.966 39.0697 82.9644 39.0681 82.9617C39.065 82.9564 39.06 82.9477 39.0522 82.9343C39.0367 82.9074 39.0106 82.8622 38.9681 82.7886C38.8832 82.6416 38.7331 82.3816 38.4724 81.93C37.951 81.0268 36.9871 79.3571 35.2173 76.2913L34.3513 76.7913ZM28.7447 67.079L34.3513 76.7913L35.2173 76.2913L29.6107 66.5791L28.7447 67.079ZM22.8726 71.0467L29.4277 67.2621L28.9277 66.396L22.3726 70.1807L22.8726 71.0467ZM32.5172 86.7537L23.0556 70.3637L22.1896 70.8637L31.6512 87.2537L32.5172 86.7537ZM37.003 87.9561C35.4258 88.868 33.4141 88.3083 32.5173 86.7538L31.6511 87.2536C32.821 89.2812 35.4425 90.0135 37.5036 88.8218L37.003 87.9561ZM34.7806 67.9643L32.8883 64.6867L32.0222 65.1867L33.9146 68.4643L34.7806 67.9643ZM37.3751 65.889L34.0976 67.7813L34.5976 68.6473L37.8751 66.755L37.3751 65.889ZM35.2998 63.2944L37.1921 66.572L38.0581 66.072L36.1658 62.7944L35.2998 63.2944ZM32.7053 65.3698L35.9828 63.4774L35.4828 62.6114L32.2053 64.5037L32.7053 65.3698ZM71.1141 23.8226L73.7294 28.3523L74.5954 27.8523L71.9802 23.3226L71.1141 23.8226ZM67.3526 24.3252L71.5771 24.0717L71.5172 23.0735L67.2927 23.327L67.3526 24.3252ZM72.2633 31.3842L67.7557 23.5762L66.8897 24.0761L71.3972 31.8841L72.2633 31.3842ZM73.7451 27.8268L71.413 31.3587L72.2475 31.9097L74.5796 28.3778L73.7451 27.8268ZM52.1199 10.1835C52.494 9.57161 53.0781 9.5083 53.32 9.51487L53.3471 8.51524C52.9356 8.50406 51.9083 8.61225 51.2667 9.66202L52.1199 10.1835ZM51.8079 10.6082C51.9678 10.4058 52.0377 10.3186 52.1203 10.1829L51.2663 9.66262C51.2216 9.73601 51.1935 9.7728 51.0232 9.98833L51.8079 10.6082ZM51.4398 11.0776C51.6058 10.8641 51.7222 10.7167 51.8079 10.6082L51.0232 9.98834C50.9371 10.0974 50.8188 10.2471 50.6504 10.4637L51.4398 11.0776ZM74.7602 50.847L51.4781 10.5206L50.612 11.0206L73.8942 51.347L74.7602 50.847ZM74.7238 50.5097C74.6006 50.5347 74.4462 50.5661 74.2354 50.6055L74.419 51.5885C74.6379 51.5476 74.7986 51.5149 74.9228 51.4897L74.7238 50.5097ZM75.3536 50.4212C75.1284 50.4263 74.9754 50.4586 74.7238 50.5097L74.9228 51.4897C75.1848 51.4365 75.2535 51.4237 75.3765 51.4209L75.3536 50.4212ZM76.5243 48.3341C77.0518 49.2471 76.4105 50.3951 75.3527 50.4212L75.3774 51.4209C77.195 51.376 78.2968 49.4031 77.3902 47.8339L76.5243 48.3341ZM54.5142 10.2105L76.5242 48.334L77.3903 47.834L55.3802 9.71048L54.5142 10.2105ZM53.3279 9.51502C53.5769 9.51787 54.1583 9.59397 54.5142 10.2105L55.3802 9.71048C54.7649 8.64459 53.7363 8.51963 53.3393 8.51509L53.3279 9.51502ZM48.0936 14.2287L69.9684 52.1172L70.8344 51.6172L48.9597 13.7287L48.0936 14.2287ZM27.743 41.2648L48.9199 14.2874L48.1334 13.67L26.9564 40.6473L27.743 41.2648ZM37.8209 58.0925L27.7827 40.706L26.9167 41.2061L36.9548 58.5925L37.8209 58.0925ZM70.3052 51.3765L37.2916 57.8518L37.4841 58.8331L70.4976 52.3578L70.3052 51.3765ZM6.59973 64.569C5.81257 63.2069 5.3969 61.661 5.3969 60.098H4.3969C4.3969 61.8377 4.85938 63.5561 5.73391 65.0694L6.59973 64.569ZM18.8416 67.85C14.562 70.3198 9.07035 68.848 6.59983 64.5692L5.73381 65.0692C8.48047 69.8263 14.5837 71.462 19.3414 68.7161L18.8416 67.85ZM33.5905 59.3339L18.8415 67.85L19.3415 68.716L34.0905 60.1999L33.5905 59.3339ZM23.9459 43.6291L33.4075 60.0169L34.2735 59.5169L24.8119 43.1291L23.9459 43.6291ZM9.87991 52.3275L24.6289 43.8121L24.1289 42.9461L9.37991 51.4615L9.87991 52.3275ZM5.3969 60.098C5.3969 56.9013 7.11573 53.9235 9.87991 52.3275L9.3799 51.4615C6.30599 53.2363 4.3969 56.5445 4.3969 60.098H5.3969ZM27.2815 59.761C28.426 59.1009 28.817 57.6366 28.1575 56.4931L27.2912 56.9928C27.6754 57.6588 27.447 58.5111 26.7819 58.8948L27.2815 59.761ZM24.0137 58.8851C24.6736 60.0292 26.1379 60.4216 27.2818 59.7608L26.7816 58.8949C26.116 59.2794 25.2637 59.0508 24.8799 58.3854L24.0137 58.8851ZM24.8893 55.6174C23.7457 56.2779 23.3529 57.742 24.0139 58.8855L24.8797 58.385C24.4955 57.7204 24.7236 56.8679 25.3895 56.4833L24.8893 55.6174ZM28.1572 56.4927C27.4966 55.3499 26.0335 54.9574 24.8896 55.6172L25.3892 56.4834C26.0548 56.0995 26.9069 56.3279 27.2915 56.9932L28.1572 56.4927ZM18.8343 60.268C19.4998 59.8836 20.3516 60.1119 20.7362 60.7777L21.6021 60.2776C20.9416 59.1339 19.4783 58.7412 18.3342 59.4021L18.8343 60.268ZM15.5567 62.1604L18.8343 60.268L18.3342 59.402L15.0567 61.2943L15.5567 62.1604ZM12.2888 61.2849C12.9486 62.4269 14.4141 62.8205 15.5568 62.1603L15.0566 61.2944C14.3927 61.6779 13.5386 61.4491 13.1547 60.7846L12.2888 61.2849ZM10.3869 60.7751C11.0523 60.3907 11.9042 60.619 12.2888 61.2848L13.1547 60.7846C12.4941 59.641 11.0308 59.2483 9.88674 59.9091L10.3869 60.7751ZM9.87717 62.677C9.49281 62.0115 9.72105 61.1597 10.3869 60.7751L9.88674 59.9091C8.74307 60.5697 8.35039 62.033 9.01124 63.1771L9.87717 62.677ZM16.9491 64.5718C14.4664 66.0046 11.2974 65.1373 9.87723 62.6771L9.01118 63.177C10.7059 66.1129 14.4853 67.1482 17.4489 65.438L16.9491 64.5718ZM20.2266 62.6796L16.949 64.5719L17.449 65.4379L20.7266 63.5456L20.2266 62.6796ZM20.7361 60.7776C21.1207 61.4439 20.8923 62.295 20.2265 62.6796L20.7267 63.5456C21.8704 62.8849 22.2629 61.4224 21.6022 60.2777L20.7361 60.7776ZM94.9443 8.84143L84.3997 14.7091L84.886 15.5829L95.4305 9.71525L94.9443 8.84143ZM98.1975 9.7687C97.5554 8.6135 96.0983 8.19853 94.944 8.84155L95.4307 9.71513C96.1022 9.34103 96.9499 9.58246 97.3235 10.2545L98.1975 9.7687ZM97.2704 13.0223C98.4252 12.3795 98.8404 10.9226 98.1973 9.76828L97.3237 10.2549C97.6977 10.9264 97.4565 11.7743 96.784 12.1486L97.2704 13.0223ZM86.7266 18.89L97.2704 13.0224L96.7841 12.1486L86.2403 18.0162L86.7266 18.89ZM83.4726 17.9628C84.1137 19.1161 85.5698 19.5338 86.7266 18.89L86.2403 18.0162C85.5668 18.391 84.7196 18.1479 84.3466 17.4769L83.4726 17.9628ZM84.3995 14.7092C83.2459 15.3519 82.8296 16.8086 83.4728 17.9632L84.3464 17.4765C83.9725 16.8053 84.2141 15.9572 84.8862 15.5828L84.3995 14.7092ZM86.6415 27.4012L93.9528 29.36L94.2116 28.3941L86.9003 26.4353L86.6415 27.4012ZM84.9358 28.3856C85.1348 27.6428 85.8983 27.2021 86.6415 27.4012L86.9003 26.4353C85.624 26.0933 84.3119 26.8501 83.9699 28.1268L84.9358 28.3856ZM85.9209 30.0905C85.1776 29.8914 84.7368 29.1283 84.9358 28.3856L83.9699 28.1268C83.6278 29.4035 84.3859 30.7145 85.6621 31.0565L85.9209 30.0905ZM93.2329 32.0494L85.9209 30.0905L85.6621 31.0565L92.9742 33.0153L93.2329 32.0494ZM94.938 31.0648C94.7397 31.8034 93.9792 32.2498 93.2332 32.0495L92.9739 33.0152C94.2591 33.3604 95.5639 32.5902 95.9038 31.3241L94.938 31.0648ZM93.9531 29.3601C94.6959 29.5586 95.137 30.3221 94.9379 31.065L95.9038 31.3238C96.2459 30.0474 95.488 28.7352 94.2113 28.394L93.9531 29.3601Z" fill="#AA4D2B"/>
</svg>
