<svg width="9" height="12" viewBox="0 0 9 12" fill="none" xmlns="http://www.w3.org/2000/svg">
<path d="M4.03125 11.7541C4.24219 12.082 4.73438 12.082 4.94531 11.7541C8.36719 6.83707 9 6.32195 9 4.49561C9 2.01366 6.98438 0 4.5 0C1.99219 0 0 2.01366 0 4.49561C0 6.32195 0.609375 6.83707 4.03125 11.7541ZM4.5 6.36878C3.44531 6.36878 2.625 5.54927 2.625 4.49561C2.625 3.46537 3.44531 2.62244 4.5 2.62244C5.53125 2.62244 6.375 3.46537 6.375 4.49561C6.375 5.54927 5.53125 6.36878 4.5 6.36878Z" fill="#161E29"/>
</svg>
