<svg width="14" height="16" viewBox="0 0 14 16" fill="none" xmlns="http://www.w3.org/2000/svg">
<path d="M3.76786 2H2.57143C2.15466 2 1.75496 2.1712 1.46026 2.47595C1.16556 2.7807 1 3.19402 1 3.625V13.375C1 13.806 1.16556 14.2193 1.46026 14.524C1.75496 14.8288 3.15466 15 3.57143 15H11.4286C11.8453 15 12.245 14.8288 12.5397 14.524C12.8344 14.2193 13 13.806 13 13.375V3.625C13 3.19402 12.8344 2.7807 12.5397 2.47595C12.245 2.1712 11.8453 2 11.4286 2H10" stroke="#F0A431" stroke-width="1.2" stroke-linecap="round" stroke-linejoin="round"/>
<rect x="4" y="1" width="6" height="2" stroke="#F0A431" stroke-width="1.2" stroke-linecap="round" stroke-linejoin="round"/>
<path d="M8.7101 6.1853H6.57256C6.23241 6.1853 5.9062 6.32484 5.66568 6.57321C5.42516 6.82158 5.29004 7.15845 5.29004 7.5097C5.29004 7.86096 5.42516 8.19782 5.66568 8.44619C5.9062 8.69457 6.23241 8.8341 6.57256 8.8341H7.42758C7.76772 8.8341 8.09394 8.97364 8.33445 9.22201C8.57497 9.47038 8.7101 9.80725 8.7101 10.1585C8.7101 10.5098 8.57497 10.8466 8.33445 11.095C8.09394 11.3434 7.76772 11.4829 7.42758 11.4829H5.29004" stroke="#F0A431" stroke-width="1.2" stroke-linecap="round" stroke-linejoin="round"/>
<path d="M6.9126 5.3479V6.23083M6.9126 11.5284V12.4114V11.5284Z" stroke="#F0A431" stroke-width="1.2" stroke-linecap="round" stroke-linejoin="round"/>
</svg>
