<svg width="19" height="18" viewBox="0 0 19 18" fill="none" xmlns="http://www.w3.org/2000/svg">
<path d="M17.5557 0H1.53565C1.27309 0 1.02128 0.104303 0.835619 0.289964C0.649958 0.475625 0.545654 0.727436 0.545654 0.99V17.01C0.545654 17.14 0.571261 17.2687 0.621014 17.3889C0.670766 17.509 0.743689 17.6181 0.835619 17.71C0.927549 17.802 1.03669 17.8749 1.1568 17.9246C1.27691 17.9744 1.40565 18 1.53565 18H10.1577V11.025H7.81765V8.325H10.1577V6.3C10.1092 5.82458 10.1653 5.34431 10.3221 4.89288C10.4789 4.44145 10.7325 4.02979 11.0653 3.68677C11.398 3.34375 11.8018 3.07768 12.2482 2.90721C12.6946 2.73675 13.173 2.66603 13.6497 2.7C14.3501 2.69569 15.0503 2.73175 15.7467 2.808V5.238H14.3157C13.1817 5.238 12.9657 5.778 12.9657 6.561V8.298H15.6657L15.3147 10.998H12.9657V18H17.5557C17.6857 18 17.8144 17.9744 17.9345 17.9246C18.0546 17.8749 18.1638 17.802 18.2557 17.71C18.3476 17.6181 18.4205 17.509 18.4703 17.3889C18.52 17.2687 18.5457 17.14 18.5457 17.01V0.99C18.5457 0.859991 18.52 0.731256 18.4703 0.611143C18.4205 0.491031 18.3476 0.381894 18.2557 0.289964C18.1638 0.198034 18.0546 0.125112 17.9345 0.0753593C17.8144 0.0256072 17.6857 0 17.5557 0V0Z" fill="white"/>
</svg>
