<svg width="14" height="15" viewBox="0 0 14 15" fill="none" xmlns="http://www.w3.org/2000/svg">
<path d="M13.6667 7.16275H7.613V5.42123H6.38716V7.16275H0.333414V3.65364H2.68879C2.24228 2.79365 2.31024 1.80897 2.94071 1.19563C3.2913 0.854489 3.77813 0.666626 4.31134 0.666626C4.99269 0.666626 5.69144 0.96628 6.22845 1.4887C6.73145 1.9781 6.92842 2.7731 7.00005 3.44315C7.07168 2.7731 7.26865 1.97803 7.77171 1.4887C8.30865 0.96628 9.00747 0.666626 9.68876 0.666626C10.222 0.666626 10.7087 0.854489 11.0595 1.19563C11.4745 1.59942 11.666 2.18902 11.5847 2.81314C11.5472 3.10076 11.4548 3.38525 11.3143 3.65364H13.6667V7.16275ZM5.31746 2.37494C5.02464 2.09001 4.64847 1.91988 4.31134 1.91988C4.17755 1.91988 3.98915 1.94802 3.85156 2.08187C3.54122 2.38371 3.68196 3.05026 4.15276 3.5082C4.38348 3.73265 4.9907 3.88674 5.74162 3.91895C5.71225 3.31877 5.58606 2.63624 5.31746 2.37494ZM10.1485 2.08187C10.0109 1.94802 9.82254 1.91988 9.68876 1.91988C9.35162 1.91988 8.97545 2.09001 8.68263 2.37494C8.41165 2.63856 8.28624 3.31457 8.25796 3.91895C9.00908 3.88681 9.61662 3.73272 9.84734 3.5082C10.1008 3.26162 10.2682 2.95094 10.3067 2.65561C10.3248 2.51643 10.3284 2.25682 10.1485 2.08187ZM7.613 8.27502V14.6666H12.7489V8.27502H7.613ZM6.3871 14.6666V8.27502H1.25123V14.6666H6.3871Z" fill="#F0A431"/>
</svg>
