<svg width="118" height="23" viewBox="0 0 118 23" fill="none" xmlns="http://www.w3.org/2000/svg">
<path d="M0 6.32281C0 2.54924 2.4364 0 7.04153 0H36.9362V5.35209H7.93986C7.12773 5.35209 6.40634 5.75437 6.40634 6.93498V15.8595C6.40634 16.9439 6.87819 17.6435 8.36181 17.6435H28.7831C29.8584 17.6435 30.6887 17.2762 30.6887 15.912V13.8219H18.7335V8.72338H36.9362V16.9264C36.9362 20.853 33.9735 23 29.3185 23H7.09143C2.5952 23 0.00453707 20.6519 0.00453707 16.7253L0 6.32281ZM63.6051 23L73.8181 5.5576V23H80.2199V0H70.3744L60.6379 16.5198L50.9013 0H41.0604V23H47.4622V5.5576L57.6752 23H63.6051ZM117.995 23H91.2268C86.7215 23 84.1399 20.6519 84.1399 16.7253V6.32281C84.1399 2.54924 86.5672 0 91.1723 0H118V5.78061H92.0752C91.2631 5.78061 90.5371 6.17852 90.5371 7.35913V15.431C90.5371 16.5198 91.0135 17.215 92.4972 17.215H118V23" fill="#C5C8CC"/>
</svg>
