<svg width="18" height="18" viewBox="0 0 18 18" fill="none" xmlns="http://www.w3.org/2000/svg">
<path d="M3.98926 10.8756L3.3627 13.2134L1.07239 13.2616C0.379802 11.9718 0.0118243 10.5327 0.000280266 9.06876C-0.0112638 7.6048 0.333973 6.16007 1.00614 4.8595L3.04451 5.23331L3.93854 7.25859C3.53701 8.43335 3.55493 9.71095 3.98926 10.874V10.8756Z" fill="#FBBB00"/>
<path d="M17.8391 7.31738C18.1441 8.92168 18.0067 10.5787 17.4417 12.1109C16.8767 13.6431 15.9054 14.9926 14.6318 16.0148L12.0642 15.8839L11.7011 13.6157C12.7613 12.9943 13.5759 12.0275 14.0085 10.8772H9.19727V7.31738H17.8399H17.8391Z" fill="#518EF8"/>
<path d="M14.631 16.0149C13.6016 16.8416 12.4028 17.4317 11.1197 17.7432C9.83665 18.0547 8.50075 18.08 7.20681 17.8173C5.91287 17.5546 4.6926 17.0104 3.63258 16.2232C2.57257 15.436 1.69879 14.4252 1.07324 13.2624L3.98929 10.8756C4.26304 11.6054 4.6929 12.2666 5.24881 12.8129C5.80473 13.3592 6.47328 13.7774 7.2077 14.0384C7.94213 14.2994 8.72471 14.3968 9.5007 14.3238C10.2767 14.2508 11.0274 14.0092 11.7002 13.6158L14.631 16.0149Z" fill="#28B446"/>
<path d="M14.7415 2.07179L11.827 4.45861C11.1442 4.03326 10.3743 3.76736 9.57448 3.68071C8.7747 3.59405 7.96566 3.68886 7.20758 3.95809C6.4495 4.22731 5.76189 4.66403 5.19592 5.23572C4.62994 5.80742 4.20017 6.49939 3.93858 7.26014L1.00781 4.86023C1.62594 3.66654 2.50368 2.62651 3.57652 1.81657C4.64937 1.00664 5.89006 0.447391 7.20743 0.179916C8.5248 -0.0875584 9.88535 -0.056458 11.1891 0.270932C12.4929 0.598322 13.7067 1.21368 14.7415 2.07179Z" fill="#F14336"/>
</svg>
