<svg width="82" height="67" viewBox="0 0 82 67" fill="none" xmlns="http://www.w3.org/2000/svg">
<path fill-rule="evenodd" clip-rule="evenodd" d="M14.9146 65.677C19.8375 66.5996 34.7919 67 41.3344 67C47.877 67 62.8372 66.5996 67.7426 65.6828C72.9848 64.6963 76.5086 61.702 78.2444 56.7696C79.7247 52.5625 80.8161 44.7518 81.4837 33.5522C81.9017 26.5366 81.8959 20.2346 81.4605 14.838C80.7232 5.652 76.4738 1.99039 67.5975 0.986489C61.6761 0.319158 48.4169 0 41.3344 0C34.252 0 20.9927 0.319158 15.0597 0.980686C6.18346 1.98458 1.9398 5.6462 1.19672 14.8322C0.767134 20.2288 0.761327 26.5308 1.17931 33.5464C1.85272 44.746 2.94411 52.5567 4.42446 56.7637C6.15443 61.6962 9.68404 64.6963 14.9146 65.677ZM71.5334 59.5286C70.234 60.6271 68.6719 61.3699 66.9995 61.6846C62.8604 62.4622 49.2644 62.9438 41.3344 62.9438C33.4044 62.9438 19.8026 62.4622 15.6635 61.6904C11.6462 60.9302 9.14995 57.9649 8.25594 55.4233C7.3271 52.7656 6.04413 46.7886 5.23719 33.3027C4.83082 26.4727 4.83083 20.3681 5.24881 15.1571C5.75387 8.92483 8.90032 5.76806 15.5183 5.01949C21.2946 4.36376 34.3391 4.06201 41.3344 4.06201C48.3298 4.06201 61.3742 4.36376 67.1447 5.01369C73.7685 5.76226 76.915 8.91902 77.4142 15.1513C77.838 20.3623 77.8438 26.4669 77.4316 33.2969C76.6247 46.7828 75.3417 52.7656 74.4129 55.4175C73.8248 57.0137 72.8327 58.4302 71.5334 59.5286ZM39.0191 44.3857C39.7163 44.2921 40.6009 44.2453 41.4796 44.2453C42.3 44.2399 43.1199 44.2868 43.9343 44.3857C47.2501 44.8305 48.492 45.6908 49.652 47.8855C50.4077 49.3018 51.925 53.5858 53.1377 59.0579C55.686 58.9643 58.1348 58.8472 60.2555 58.7068C61.0933 51.0283 62.9914 19.0738 63.0441 8.10035C62.7092 8.07834 62.3684 8.05486 62.0209 8.03092C60.9827 7.95938 59.8853 7.88376 58.7089 7.83114C58.6379 8.20874 58.5546 8.65603 58.4602 9.16282C57.2864 15.4662 54.3983 30.9755 52.007 36.1162C50.8588 38.5918 48.8552 39.4345 46.4065 39.6218C43.126 39.7915 39.8391 39.7915 36.5586 39.6218C34.104 39.4345 32.1005 38.5918 30.9522 36.1162C28.5402 30.9425 25.6299 15.2615 24.4755 9.04149C24.3907 8.58427 24.3153 8.17818 24.2503 7.83114C23.1071 7.87802 22.0416 7.95282 21.0288 8.02391C20.6507 8.05046 20.2799 8.07649 19.9152 8.10035C19.9679 19.0679 21.8718 51.0283 22.6979 58.7068C25.0687 58.8579 27.4415 58.975 29.8157 59.0579C31.0284 53.5917 32.5457 49.3018 33.3014 47.8855C34.4672 45.6908 35.7092 44.8305 39.0191 44.3857Z" fill="#C5C8CC"/>
</svg>
