<svg width="12" height="18" viewBox="0 0 12 18" fill="none" xmlns="http://www.w3.org/2000/svg">
<path fill-rule="evenodd" clip-rule="evenodd" d="M7.5 11.0326C9.66862 10.3872 11.25 8.37827 11.25 6C11.25 3.10051 8.8995 0.75 6 0.75C3.10051 0.75 0.75 3.10051 0.75 6C0.75 8.37827 2.33138 10.3872 4.5 11.0326L4.5 14.25H1.5V15.75H0V17.25H1.5H10.5H12V15.75H10.5V14.25H7.5L7.5 11.0326ZM3.97328 7.02857H6.24601L6.6683 8H8.25L5.86978 3H4.37254L2 8H3.55098L3.97328 7.02857ZM5.10964 4.38571L5.80068 5.98571H4.41861L5.10964 4.38571ZM9.5782 3H8.07178V4.50642H9.5782V3Z" fill="#54555a"/>
</svg>
