<svg width="125" height="62" viewBox="0 0 125 62" fill="none" xmlns="http://www.w3.org/2000/svg">
<path fill-rule="evenodd" clip-rule="evenodd" d="M62.4994 62C97.0167 62 125 48.1191 125 31.0012C125 13.8822 97.0167 -3.8147e-06 62.4994 -3.8147e-06C27.9845 -3.8147e-06 0 13.8809 0 31.0012C0.00123596 48.1178 27.9857 62 62.4994 62ZM68.429 55.1006C61.2954 57.6344 40.1014 55.1006 31.869 51.1282C29.2343 48.5895 43.6168 40.4332 60.7417 36.8976C85.2256 31.9371 73.5894 50.9092 68.429 55.1006ZM110.476 18.3698C115.858 22.2252 126.397 33.2587 108.939 44.7291C99.7171 50.1326 94.5579 51.3497 88.1911 52.6714C85.1154 53.3359 82.9204 52.5619 85.6654 50.2446C91.4835 44.1778 103.561 24.1068 104.657 19.6914C105.538 16.7109 107.293 15.943 110.476 18.3698ZM60.1966 5.57154C70.5149 4.47142 93.4592 7.88876 93.9002 10.8631C93.4592 18.0375 57.4505 29.9497 50.9746 23.3315C48.2272 18.1483 53.4966 5.90382 60.1966 5.57154ZM7.71578 26.424C10.353 20.356 19.2443 13.5138 37.9064 8.88061C40.7641 8.22352 41.7513 9.98571 39.8858 11.6409C36.8089 13.5151 21.988 38.442 20.1225 43.4087C19.0238 45.9475 16.9391 44.9506 15.6199 43.96C9.69027 40.1009 5.19009 33.8125 7.71578 26.424Z" fill="#C5C8CC"/>
</svg>
