<svg width="19" height="18" viewBox="0 0 19 18" fill="none" xmlns="http://www.w3.org/2000/svg">
<path d="M9.09106 6.768C8.64962 6.768 8.21808 6.8989 7.85103 7.14416C7.48398 7.38941 7.1979 7.73801 7.02896 8.14585C6.86003 8.5537 6.81583 9.00248 6.90195 9.43544C6.98807 9.86841 7.20065 10.2661 7.5128 10.5783C7.82495 10.8904 8.22266 11.103 8.65562 11.1891C9.08859 11.2752 9.53737 11.231 9.94521 11.0621C10.3531 10.8932 10.7016 10.6071 10.9469 10.24C11.1922 9.87298 11.3231 9.44145 11.3231 9C11.3231 8.70689 11.2653 8.41665 11.1532 8.14585C11.041 7.87505 10.8766 7.629 10.6693 7.42174C10.4621 7.21448 10.216 7.05007 9.94521 6.9379C9.67441 6.82573 9.38417 6.768 9.09106 6.768ZM18.0281 4.563C18.0233 3.86798 17.8953 3.17931 17.6501 2.529C17.4694 2.05313 17.1899 1.62098 16.83 1.26107C16.4701 0.901149 16.0379 0.621646 15.5621 0.441C14.9117 0.195717 14.2231 0.0677348 13.5281 0.0629999C12.3671 -6.03497e-08 12.0251 0 9.09106 0C6.15706 0 5.81506 -6.03497e-08 4.65406 0.0629999C3.95905 0.0677348 3.27038 0.195717 2.62006 0.441C2.1442 0.621646 1.71205 0.901149 1.35213 1.26107C0.992214 1.62098 0.71271 2.05313 0.532064 2.529C0.286782 3.17931 0.158799 3.86798 0.154064 4.563C0.0910644 5.724 0.0910645 6.066 0.0910645 9C0.0910645 11.934 0.0910644 12.276 0.154064 13.437C0.163752 14.1345 0.291561 14.8252 0.532064 15.48C0.71191 15.9537 0.99118 16.3833 1.35106 16.74C1.70944 17.1021 2.14251 17.3816 2.62006 17.559C3.27038 17.8043 3.95905 17.9323 4.65406 17.937C5.81506 18 6.15706 18 9.09106 18C12.0251 18 12.3671 18 13.5281 17.937C14.2231 17.9323 14.9117 17.8043 15.5621 17.559C16.0396 17.3816 16.4727 17.1021 16.8311 16.74C17.1909 16.3833 17.4702 15.9537 17.6501 15.48C17.8951 14.8265 18.0231 14.1349 18.0281 13.437C18.0911 12.276 18.0911 11.934 18.0911 9C18.0911 6.066 18.0911 5.724 18.0281 4.563ZM15.7421 11.763C15.7132 12.3184 15.5947 12.8655 15.3911 13.383C15.2163 13.8147 14.9566 14.2069 14.6273 14.5362C14.298 14.8655 13.9058 15.1253 13.4741 15.3C12.9516 15.4922 12.4015 15.5986 11.8451 15.615C11.1341 15.615 10.9451 15.615 9.09106 15.615C7.23706 15.615 7.04806 15.615 6.33706 15.615C5.78062 15.5986 5.2305 15.4922 4.70806 15.3C4.26176 15.1341 3.85871 14.8696 3.52906 14.526C3.20296 14.2031 2.95112 13.8131 2.79106 13.383C2.59807 12.8611 2.49461 12.3104 2.48506 11.754C2.48506 11.043 2.48506 10.854 2.48506 9C2.48506 7.146 2.48506 6.957 2.48506 6.246C2.49461 5.68964 2.59807 5.1389 2.79106 4.617C2.95692 4.17069 3.22151 3.76765 3.56506 3.438C3.88936 3.11366 4.279 2.86208 4.70806 2.7C5.2305 2.50777 5.78062 2.40139 6.33706 2.385C7.04806 2.385 7.23706 2.385 9.09106 2.385C10.9451 2.385 11.1341 2.385 11.8451 2.385C12.4015 2.40139 12.9516 2.50777 13.4741 2.7C13.9204 2.86585 14.3234 3.13045 14.6531 3.474C14.9792 3.79687 15.231 4.18692 15.3911 4.617C15.5833 5.13944 15.6897 5.68956 15.7061 6.246C15.7061 6.957 15.7061 7.146 15.7061 9C15.7061 10.854 15.7691 11.043 15.7421 11.754V11.763ZM14.3021 5.067C14.1949 4.77629 14.026 4.51228 13.8069 4.29319C13.5878 4.07411 13.3238 3.90516 13.0331 3.798C12.6339 3.65963 12.2135 3.59261 11.7911 3.6C11.0891 3.6 10.8911 3.6 9.09106 3.6C7.29106 3.6 7.09306 3.6 6.39106 3.6C5.9665 3.60415 5.54603 3.68337 5.14906 3.834C4.8628 3.93629 4.60159 4.09834 4.38279 4.30938C4.16399 4.52042 3.99262 4.77561 3.88006 5.058C3.74936 5.45883 3.68551 5.87844 3.69106 6.3C3.69106 7.002 3.69106 7.2 3.69106 9C3.69106 10.8 3.69106 10.998 3.69106 11.7C3.69999 12.1241 3.77906 12.5437 3.92506 12.942C4.03222 13.2327 4.20117 13.4967 4.42026 13.7158C4.63934 13.9349 4.90335 14.1038 5.19406 14.211C5.57806 14.3522 5.98215 14.4312 6.39106 14.445C7.09306 14.445 7.29106 14.445 9.09106 14.445C10.8911 14.445 11.0891 14.445 11.7911 14.445C12.2156 14.4408 12.6361 14.3616 13.0331 14.211C13.3238 14.1038 13.5878 13.9349 13.8069 13.7158C14.026 13.4967 14.1949 13.2327 14.3021 12.942C14.4527 12.545 14.5319 12.1246 14.5361 11.7C14.5361 10.998 14.5361 10.8 14.5361 9C14.5361 7.2 14.5361 7.002 14.5361 6.3C14.5363 5.87502 14.457 5.45375 14.3021 5.058V5.067ZM9.09106 12.438C8.64 12.438 8.19337 12.349 7.77676 12.1761C7.36015 12.0032 6.98174 11.7499 6.66321 11.4305C6.34468 11.1111 6.09229 10.732 5.92049 10.315C5.7487 9.89792 5.66088 9.45106 5.66206 9C5.66207 8.31964 5.86393 7.65459 6.2421 7.08902C6.62027 6.52345 7.15775 6.0828 7.78649 5.82285C8.41522 5.5629 9.10695 5.49535 9.7741 5.62873C10.4413 5.76212 11.0538 6.09045 11.5343 6.57217C12.0147 7.05388 12.3415 7.66731 12.4731 8.33481C12.6047 9.00231 12.5354 9.69386 12.2738 10.3219C12.0122 10.95 11.5701 11.4863 11.0036 11.863C10.437 12.2397 9.77142 12.4398 9.09106 12.438ZM12.6911 6.237C12.4921 6.21594 12.308 6.122 12.1742 5.97327C12.0404 5.82455 11.9663 5.63156 11.9663 5.4315C11.9663 5.23144 12.0404 5.03845 12.1742 4.88973C12.308 4.741 12.4921 4.64706 12.6911 4.626C12.89 4.64706 13.0741 4.741 13.2079 4.88973C13.3418 5.03845 13.4158 5.23144 13.4158 5.4315C13.4158 5.63156 13.3418 5.82455 13.2079 5.97327C13.0741 6.122 12.89 6.21594 12.6911 6.237Z" fill="white"/>
</svg>
