<svg width="112" height="45" viewBox="0 0 112 45" fill="none" xmlns="http://www.w3.org/2000/svg">
<path d="M93.4447 24.0266C93.3535 29.0456 94.4397 31.704 98.5856 31.704C102.725 31.704 103.319 27.1755 103.319 23.7295C103.319 20.2813 102.533 16.9338 98.1845 16.9338C95.5168 16.9338 93.5471 19.0025 93.4447 24.0266ZM85.0572 45V11.0264H93.5471V12.4045C93.5471 14.2427 94.2901 13.4847 94.8887 12.7683C94.9889 12.6486 96.881 10.3373 101.142 10.3373C105.391 10.3373 112 13.2907 112 23.7296C112 31.8041 108.057 37.7115 101.247 37.7115C97.4948 37.7115 95.3255 36.2371 94.8294 35.6421C94.3326 35.0553 93.6429 34.9529 93.6429 35.6421V44.9999L85.0572 45ZM19.4373 0H28.6147V24.0266C28.6147 28.1595 26.8365 36.8276 14.1094 36.8276C1.38088 36.8276 0 28.7485 0 24.2222V19.7916H8.88119V24.1222C8.88119 26.7806 10.6578 29.2412 14.0108 29.2412C17.3652 29.2412 19.4373 27.3711 19.4373 24.2222V0ZM47.8074 20.3821C47.8074 17.9177 46.4288 15.5548 43.2711 15.5548C40.2123 15.5548 39.126 17.7191 39.126 20.3821H47.8074ZM42.3861 10.0417C49.5932 10.0417 55.9055 12.7979 55.9055 25.501H38.8365C38.8365 29.5384 40.5123 31.2128 43.4724 31.2128C46.4333 31.2128 47.4193 28.8477 47.4193 28.8477H55.809C55.809 32.4924 50.7759 37.4159 43.1762 37.3181C34.4954 37.3181 30.2517 30.9172 30.2517 24.3193C30.2517 17.7191 33.9987 10.0417 42.3861 10.0417ZM75.0944 20.3821C75.0944 17.9177 73.7142 15.5548 70.5565 15.5548C67.4992 15.5548 66.4106 17.7191 66.4106 20.3821H75.0944ZM69.6731 10.0417C76.8794 10.0417 83.1901 12.7979 83.1901 25.501H66.1219C66.1219 29.5384 67.7991 31.2128 70.7616 31.2128C73.7194 31.2128 74.7069 28.8477 74.7069 28.8477H83.0966C83.0966 32.4924 78.0628 37.4159 70.4654 37.3181C61.7801 37.3181 57.5363 30.9172 57.5363 24.3193C57.5363 17.7191 61.2879 10.0417 69.6731 10.0417Z" fill="#C5C8CC"/>
</svg>
