<svg width="130" height="32" viewBox="0 0 130 32" fill="none" xmlns="http://www.w3.org/2000/svg">
<path d="M75.4185 28.3281C75.4185 28.5865 75.4965 28.7361 75.6394 28.7361C75.7564 28.7225 75.8604 28.6681 75.9514 28.6001L116.468 1.08797C117.153 0.587328 117.973 0.3299 118.808 0.353591H127.712C129.077 0.353591 130 1.30557 130 2.73353V20.5219C130 22.6706 129.545 23.9218 127.725 25.0642L116.923 31.864C116.816 31.9422 116.69 31.9892 116.559 32C116.429 32 116.299 31.8912 116.299 31.4968V10.7437C116.299 10.4989 116.234 10.3357 116.078 10.3357C115.964 10.3495 115.856 10.3966 115.766 10.4717L86.1554 30.5992C85.4795 31.0752 84.6865 31.3336 83.8806 31.32H64.2526C62.8747 31.32 61.9648 30.368 61.9648 28.9265V3.29112C61.9648 3.10072 61.8868 2.92393 61.7308 2.92393C61.617 2.93904 61.5092 2.98603 61.4189 3.05992L41.8818 15.3268C41.6868 15.4628 41.6348 15.558 41.6348 15.6532C41.6348 15.7348 41.6738 15.8164 41.8038 15.966L55.7644 30.5584C55.9464 30.7488 56.0764 30.8984 56.0764 31.0616C56.0764 31.1976 55.8684 31.3064 55.6214 31.3064H43.0127C42.0248 31.3064 41.2579 31.1568 40.7249 30.5992L32.2628 21.7595C32.2307 21.7193 32.1911 21.6865 32.1463 21.6631C32.1016 21.6397 32.0527 21.6262 32.0028 21.6235C31.911 21.6279 31.8218 21.6559 31.7428 21.7051L17.6002 30.5992C16.7423 31.1432 16.1574 31.2928 15.3125 31.2928H2.30077C0.909909 31.3064 0 30.3408 0 28.9129V11.4645C0 9.30217 0.454954 8.0646 2.28777 6.92223L13.1547 0.0951976C13.2399 0.036785 13.3388 0.00386584 13.4407 0C13.6096 0 13.7006 0.176796 13.7006 0.571186V23.9354C13.7006 24.1802 13.7526 24.289 13.9216 24.289C14.0386 24.2754 14.1426 24.221 14.2466 24.153L50.9549 1.04717C51.6568 0.543986 52.5147 0.299193 53.3727 0.339991H73.1307C74.4955 0.339991 75.4185 1.29197 75.4185 2.71993L75.4055 28.3281H75.4185Z" fill="#C5C8CC"/>
</svg>
