<svg width="149" height="75" viewBox="0 0 149 75" fill="none" xmlns="http://www.w3.org/2000/svg">
<path fill-rule="evenodd" clip-rule="evenodd" d="M148.383 37.2535C148.383 57.8291 115.164 74.5071 74.1919 74.5071C33.2177 74.5071 0 57.8291 0 37.2535C0 16.6788 33.2177 0 74.1919 0C115.164 0 148.383 16.6788 148.383 37.2535ZM74.1919 2.9327C34.8245 2.9327 2.90893 18.2988 2.90893 37.2535C2.90893 56.2074 34.8245 71.5735 74.1919 71.5735C113.558 71.5735 145.471 56.2074 145.471 37.2535C145.472 18.2988 113.558 2.9327 74.1919 2.9327Z" fill="#C5C8CC"/>
<path fill-rule="evenodd" clip-rule="evenodd" d="M143.629 37.2535C143.629 55.1896 112.54 69.729 74.1918 69.729C35.8422 69.729 4.75514 55.1896 4.75514 37.2535C4.75514 19.3192 35.843 4.77984 74.1918 4.77984C112.54 4.77896 143.629 19.3192 143.629 37.2535ZM118.693 22.0494H106.785L105.334 26.1963H113.043L104.251 29.2408L103.67 30.9224L117.198 26.4859L118.693 22.0494ZM42.7641 29.3279H37.9138C37.9138 29.3279 42.4093 17.3444 42.7703 16.4385C43.4121 14.8326 43.7942 14.9435 43.7942 14.9435H37.0941C37.9235 15.3397 37.1883 16.9051 37.1883 16.9051C37.1883 16.9051 31.8221 31.8495 31.448 32.5961C31.0738 33.3436 30.7938 33.4378 30.7938 33.4378H42.3978L44.0205 29.0119C43.8805 29.4327 42.7641 29.3279 42.7641 29.3279ZM63.1178 33.4193H68.5835C68.5835 33.4193 68.2093 32.8646 68.4427 32.258C68.7658 31.4154 71.665 23.525 71.665 23.525L72.9258 33.4193H77.8764L84.3661 15.8186C84.3661 15.8186 84.6311 14.9928 84.9938 14.9928L79.7333 14.977C79.7333 14.977 79.8847 15.5845 79.6954 16.052C79.5114 16.5186 76.5215 24.5049 76.5215 24.5049L75.354 14.977H69.7034C69.7034 14.977 69.9957 15.4436 69.8091 15.9577L63.8186 32.3971C63.8186 32.3971 63.4453 33.4193 63.1178 33.4193ZM88.1044 14.9822C88.1044 14.9822 88.5701 15.7297 87.9635 17.4571C87.3551 19.1863 82.5929 32.0282 82.5929 32.0282C82.5929 32.0282 82.2178 33.2362 81.7037 33.4712L89.1767 33.4633C89.1767 33.4633 98.2355 33.7979 101.039 24.276C101.039 24.276 104.588 14.8889 94.3132 14.9831L88.1044 14.9822ZM88.8976 29.21C88.8976 29.21 88.9214 29.2029 89.7605 29.2029C91.0309 29.2029 93.3852 28.9229 94.9691 25.0702C97.569 18.739 93.9407 18.953 93.9407 18.953H92.5391L88.8976 29.21ZM22.4429 48.3302H34.3507L35.7999 44.1825H28.0926L36.8846 41.1389L37.4666 39.459L23.937 43.8955L22.4429 48.3302ZM43.3126 55.9785C43.1242 55.9785 43.1242 55.3763 43.1242 55.3763L45.3138 49.5637C45.3138 49.5637 48.0431 54.9184 48.2298 55.2918C48.4164 55.6668 48.3222 55.9776 48.3222 55.9776H54.8497C54.2264 55.9776 53.5846 54.7943 53.5846 54.7943L50.3358 48.9615C54.8814 48.9615 56.3341 44.4581 56.3341 44.4581C58.5757 37.2967 51.0322 37.4833 51.0322 37.4833H43.3117C43.8717 38.1058 43.435 39.4141 43.435 39.4141C43.435 39.4141 38.6411 53.1206 38.2677 54.1798C37.8936 55.2389 37.2086 55.9767 37.2086 55.9767L43.3126 55.9785ZM47.9392 41.7376L46.6741 45.4556H47.8574C47.8574 45.4556 50.1623 45.6599 51.0119 43.8268C51.0119 43.8268 52.0068 41.727 49.2264 41.727C48.6172 41.727 47.9392 41.7376 47.9392 41.7376ZM110.855 56.0472C110.389 56.0577 110.714 54.914 110.714 54.914L112.669 49.6315C112.669 49.6315 115.302 54.988 115.487 55.3631C115.675 55.7364 115.582 56.0472 115.582 56.0472H122.342C121.717 56.0472 121.033 54.8621 121.033 54.8621L117.784 49.031C122.33 49.031 123.699 44.687 123.699 44.687C126.086 37.1893 118.482 37.552 118.482 37.552H110.823C111.384 38.1745 110.949 39.4828 110.949 39.4828C110.949 39.4828 105.953 53.243 105.58 54.3004C105.345 54.9505 104.973 55.5424 104.488 56.0357L110.855 56.0472ZM115.307 45.5234C115.307 45.5234 117.594 45.6951 118.294 43.9034C119.121 41.7939 117.06 41.8485 117.06 41.8485H115.369L114.123 45.5234H115.307ZM64.4077 56.4381C71.1456 56.4381 75.1559 49.8278 75.1559 45.0867C75.1559 40.1123 73.1107 37.0079 68.4427 37.0079C62.4857 37.0079 58.5995 41.5289 57.5967 47.1487C56.6749 52.3159 59.5935 56.4381 64.4077 56.4381ZM64.832 52.0667C66.5128 52.3784 68.3608 51.1678 69.3257 47.3036C70.789 41.4549 68.0922 41.4074 67.6001 41.3467C66.1086 41.1644 64.118 42.8821 63.3089 46.4628C62.9382 48.0978 62.5456 51.6424 64.832 52.0667ZM76.7557 37.5538C76.7557 37.5538 77.2179 37.8029 77.2179 38.9845V54.9889C77.2179 54.9889 77.1545 55.864 76.8243 56.048H81.8304C81.8304 56.048 81.8304 55.673 82.327 55.0505C82.8253 54.428 93.2241 40.4803 93.2241 40.4803C93.2241 40.4803 95.5951 37.5538 96.2175 37.5538H89.0517C89.0517 37.5538 89.6143 37.9271 89.1776 38.6112C88.7427 39.297 82.3719 48.8241 82.3719 48.8241L82.4529 39.2151C82.4529 39.2151 82.4406 37.6744 83.0595 37.5458L76.7557 37.5538ZM107.024 41.9163L108.644 37.5485L96.5019 37.5502C96.5019 37.5502 96.9386 37.9359 96.3778 39.4916C95.8169 41.0499 90.8971 54.3092 90.8971 54.3092C90.8971 54.3092 90.0272 56.0516 89.7789 56.0516H102.292L103.787 51.6318C103.787 51.6318 103.601 51.8792 102.417 51.8792H97.1244L98.2451 48.8902H102.353C102.353 48.8902 103.225 48.8285 103.412 49.0777L105.092 44.3542C105.092 44.3542 104.97 44.7803 103.847 44.7803H99.8634L101.047 41.4822H106.091C106.092 41.4822 106.777 41.388 107.024 41.9163ZM43.7282 33.4351H49.7186C49.7186 33.4351 49.7001 32.9755 49.8559 32.6771C50.1403 32.1374 50.8834 30.8352 50.8834 30.8352H56.9126L56.924 32.4587C56.924 32.4587 56.9548 33.0187 56.5111 33.4501H62.4892C62.4892 33.4501 62.0455 33.2009 61.9636 32.4658L61.2126 16.2157C61.2126 16.2157 61.18 15.1768 61.6748 14.9576H55.7442C55.7442 14.9576 56.1598 15.4709 55.3657 16.6392C54.5724 17.8067 44.4413 32.8285 44.4413 32.8285C44.4413 32.8285 44.2406 33.2133 43.7282 33.4351ZM56.7964 21.2482L53.4675 26.6638H56.843L56.7964 21.2482Z" fill="#C5C8CC"/>
</svg>
