<svg width="144" height="25" viewBox="0 0 144 25" fill="none" xmlns="http://www.w3.org/2000/svg">
<path fill-rule="evenodd" clip-rule="evenodd" d="M0 0.548033V16.1037C0.0481879 20.4619 2.96887 24.0049 10.821 24.0049H21.7924V19.6917H10.8202C7.1849 19.5398 7.26412 16.0613 7.26412 16.0613V0.548033H0ZM48.5538 9.77888H31.7918C32.5579 4.9805 35.7905 4.86045 35.7905 4.86045H48.553V0.245026H35.5635C35.5635 0.245026 23.4569 0.169064 23.4569 12.2765C23.4569 24.3823 35.5635 24.0041 35.5635 24.0041H48.553V19.6909H35.7905C35.7905 19.6909 32.4574 19.5667 31.7583 14.5462H48.553V9.77888H48.5538ZM80.1316 23.929L69.4625 11.7693L79.3753 0.47208H71.127L65.3069 7.03298L59.5505 0.47208H51.0759L61.1015 11.7742L50.3188 23.929H58.7933L65.3028 16.5097L71.8841 23.929H80.1316ZM141.233 0H121.446C121.446 0 113.803 -2.33672e-06 113.803 6.81001C113.803 13.6192 121.446 13.9974 123.867 13.9974H132.569C132.569 13.9974 135.52 14.3771 135.52 16.419C135.52 18.4625 133.476 19.2188 132.645 19.2188H115.543V23.987H135.597C135.597 23.987 143.541 24.1389 143.541 16.6477C143.541 9.15652 135.066 9.45871 134.537 9.45871H124.171C124.171 9.45871 121.282 9.22676 121.447 6.58295C121.599 4.16131 125.609 4.46433 125.609 4.46433H141.234V0H141.233ZM96.4861 23.9518C110.958 23.9518 110.532 15.2976 110.532 15.2976V0.401019H103.082V14.3755C103.082 14.3755 102.87 19.6255 96.344 19.6255C89.8182 19.6255 89.6042 14.3755 89.6042 14.3755V0.401019H82.1563V15.2976C82.1563 15.2976 81.7308 23.9518 96.2018 23.9518H96.4861Z" fill="#C5C8CC"/>
</svg>
