<svg width="15" height="12" viewBox="0 0 15 12" fill="none" xmlns="http://www.w3.org/2000/svg">
<path fill-rule="evenodd" clip-rule="evenodd" d="M1.65265 2.14017L7.4999 5.99545L13.3472 2.14017C13.2286 1.82726 12.9224 1.5999 12.5555 1.5999H2.44435C2.0774 1.5999 1.77123 1.82726 1.65265 2.14017ZM13.3999 3.54275L7.83017 7.21504C7.62981 7.34715 7.37 7.34715 7.16963 7.21504L1.5999 3.54275V9.57133C1.5999 10.0227 1.97171 10.3999 2.44435 10.3999H12.5555C13.0281 10.3999 13.3999 10.0227 13.3999 9.57133V3.54275ZM0.399902 2.42847C0.399902 1.30189 1.3215 0.399902 2.44435 0.399902H12.5555C13.6783 0.399902 14.5999 1.30189 14.5999 2.42847V9.57133C14.5999 10.6979 13.6783 11.5999 12.5555 11.5999H2.44435C1.3215 11.5999 0.399902 10.6979 0.399902 9.57133V2.42847Z" fill="#F0A431"/>
</svg>
