<svg width="92" height="75" viewBox="0 0 92 75" fill="none" xmlns="http://www.w3.org/2000/svg">
<path fill-rule="evenodd" clip-rule="evenodd" d="M46 54.0741C50.1138 55.3704 49.9268 39.6296 65.2602 35.9259C76.6667 33.1481 80.2195 31.6667 81.7154 28.1481L83.3984 24.6296C83.3984 24.6296 82.6504 40.3704 80.2195 48.3333C77.7886 56.1111 72.9268 68.5185 46 68.8889C18.8862 68.7037 14.0244 56.2963 11.7805 48.3333C9.34959 40.3704 8.60163 24.6296 8.60163 24.6296L10.2846 28.1481C11.9675 31.6667 15.3333 32.963 26.7398 35.9259C42.0732 39.6296 41.8862 55.3704 46 54.0741ZM33.2846 74.0741C37.0244 74.8148 41.5122 75 46 75C50.4878 75 54.9756 74.6296 58.7154 74.0741C66.3821 72.963 73.3008 70.9259 77.6016 67.7778C87.6992 60.7407 92 48.7037 92 35.7407C92 22.7778 84.8943 6.85185 69.374 2.59259C66.0081 1.66667 62.4553 1.11111 58.9024 0.740741C58.9024 0.740741 57.4065 0.555556 55.1626 0.37037C51.9837 0.185185 48.8049 0 46 0C43.1951 0 40.0163 0 36.8374 0.37037C34.4065 0.555556 33.0976 0.740741 33.0976 0.740741C29.5447 1.11111 25.8049 1.66667 22.626 2.59259C7.29268 6.66667 0 22.7778 0 35.7407C0 48.7037 4.4878 60.5556 14.3984 67.7778C18.6992 70.7407 25.6179 72.963 33.2846 74.0741ZM44.6911 5.55556H47.3089C51.2358 5.55556 59.0894 6.11111 67.5041 9.07407C79.4715 13.3333 77.4146 18.8889 77.4146 18.8889C77.4146 18.8889 57.2195 26.6667 51.2358 33.5185C47.4959 37.7778 46.374 40.1852 46 41.4815C45.626 40.1852 44.5041 37.7778 40.7642 33.5185C34.7805 26.6667 14.5854 18.8889 14.5854 18.8889C14.5854 18.8889 12.5285 13.3333 24.4959 9.07407C32.9106 6.11111 40.7642 5.55556 44.6911 5.55556Z" fill="#C5C8CC"/>
</svg>
