<svg width="85" height="85" viewBox="0 0 85 85" fill="none" xmlns="http://www.w3.org/2000/svg">
<path fill-rule="evenodd" clip-rule="evenodd" d="M0 42.5C0 65.9714 19.0281 85 42.5 85C65.9724 85 85 65.9714 85 42.5C85 19.0281 65.9724 0 42.5 0C19.0281 0 0 19.0281 0 42.5ZM8.00619 63.2015L42.5115 48.9199L77.1638 62.9805C69.9677 75.2323 56.8299 82.7612 42.6585 82.798C28.4509 82.8715 15.2764 75.4175 8.00619 63.2015ZM42.0332 2.40953L36.5346 38.8335L7.49159 62.3044C0.516432 49.9414 0.590431 34.811 7.71262 22.522C14.798 10.233 27.8618 2.5938 42.0332 2.40953ZM77.6799 62.049L48.3051 39.3166L43.0643 2.41243C50.0057 2.51859 56.8014 4.42001 62.79 7.93164C68.7785 11.4433 73.756 16.4455 77.2378 22.4514C84.3596 34.6664 84.5075 49.6865 77.6799 62.049Z" fill="#C5C8CC"/>
</svg>
