<svg width="15" height="15" viewBox="0 0 15 15" fill="none" xmlns="http://www.w3.org/2000/svg">
<path fill-rule="evenodd" clip-rule="evenodd" d="M2.52931 1.5999C2.28282 1.5999 2.04642 1.69782 1.87212 1.87212C1.70164 2.0426 1.60423 2.27249 1.60004 2.51313C1.77691 5.34226 2.98054 8.0098 4.98527 10.0145C6.99001 12.0193 9.65755 13.2229 12.4867 13.3998C12.7273 13.3956 12.9572 13.2982 13.1277 13.1277C13.302 12.9534 13.3999 12.717 13.3999 12.4705V9.81789L10.428 8.62912L9.54381 10.1027C9.38315 10.3705 9.04398 10.4703 8.76393 10.3321C6.9849 9.45475 5.54505 8.01491 4.66767 6.23588C4.52955 5.95583 4.62933 5.61665 4.89709 5.45599L6.37069 4.57183L5.18192 1.5999H2.52931ZM1.02359 1.02359C1.42293 0.62425 1.96456 0.399902 2.52931 0.399902H5.58814C5.83348 0.399902 6.05411 0.549273 6.14522 0.777068L7.67464 4.6006C7.78401 4.87403 7.67877 5.18641 7.42625 5.33793L6.00505 6.19065C6.68292 7.3509 7.6489 8.31689 8.80916 8.99476L9.66188 7.57356C9.81339 7.32103 10.1258 7.2158 10.3992 7.32517L14.2227 8.85458C14.4505 8.9457 14.5999 9.16632 14.5999 9.41167V12.4705C14.5999 13.0352 14.3756 13.5769 13.9762 13.9762C13.5769 14.3756 13.0352 14.5999 12.4705 14.5999C12.4584 14.5999 12.4462 14.5995 12.4341 14.5988C9.3049 14.4086 6.3535 13.0798 4.13674 10.8631C1.91999 8.64631 0.59117 5.6949 0.401007 2.56571C0.400271 2.55359 0.399902 2.54145 0.399902 2.52931C0.399902 1.96456 0.62425 1.42293 1.02359 1.02359Z" fill="#F0A431"/>
</svg>
