<svg width="24" height="24" viewBox="0 0 24 24" fill="none" xmlns="http://www.w3.org/2000/svg">
<path fill-rule="evenodd" clip-rule="evenodd" d="M2 5C2 4.44772 2.44772 4 3 4H21C21.5523 4 22 4.44772 22 5C22 5.55228 21.5523 6 21 6H3C2.44772 6 2 5.55228 2 5Z" fill="#161E29"/>
<path fill-rule="evenodd" clip-rule="evenodd" d="M2 12C2 11.4477 2.44772 11 3 11H15.375C15.9273 11 16.375 11.4477 16.375 12C16.375 12.5523 15.9273 13 15.375 13H3C2.44772 13 2 12.5523 2 12Z" fill="#161E29"/>
<path fill-rule="evenodd" clip-rule="evenodd" d="M2 19C2 18.4477 2.44772 18 3 18H10.875C11.4273 18 11.875 18.4477 11.875 19C11.875 19.5523 11.4273 20 10.875 20H3C2.44772 20 2 19.5523 2 19Z" fill="#161E29"/>
</svg>
