<svg width="151" height="108" viewBox="0 0 151 108" fill="none" xmlns="http://www.w3.org/2000/svg">
<g opacity="0.3">
<path d="M39.2574 94.554C35.959 94.554 33.2851 91.88 33.2851 88.5816C33.2851 85.2832 35.959 82.6093 39.2574 82.6093C42.5559 82.6093 45.2298 85.2832 45.2298 88.5816C45.2298 91.88 42.5559 94.554 39.2574 94.554Z" fill="#99372A"/>
<path d="M142.506 88.5816C142.506 91.88 145.18 94.554 148.478 94.554C151.777 94.554 154.451 91.88 154.451 88.5816C154.451 85.2832 151.777 82.6093 148.478 82.6093C145.18 82.6093 142.506 85.2832 142.506 88.5816Z" fill="#99372A"/>
<path fill-rule="evenodd" clip-rule="evenodd" d="M75.2719 30.7965C71.612 30.7924 68.3639 30.9745 65.3502 31.3397C65.2016 33.6551 64.7828 35.8969 64.1251 38.034C67.3646 37.4791 70.9074 37.2015 75.2784 37.2064H77.0925V50.0276H56.9084C54.3152 52.631 51.2334 54.7473 47.812 56.2272C48.1721 56.3641 48.5575 56.4362 48.9504 56.4362H77.0912V88.4846H58.5555C58.5451 77.8675 49.9415 69.2639 39.3244 69.2535C38.6514 69.2535 38.0111 69.2887 37.3694 69.3526C37.2309 69.3655 37.0958 69.3887 36.9602 69.412C36.8636 69.4286 36.7666 69.4452 36.6678 69.4582C36.555 69.4748 36.4419 69.4902 36.3288 69.5056C36.0405 69.5448 35.7522 69.584 35.4693 69.6421C35.3289 69.6711 35.1927 69.7085 35.0565 69.746C34.9535 69.7743 34.8504 69.8026 34.7455 69.8273C34.6468 69.8518 34.548 69.8755 34.4493 69.8992C34.1751 69.9649 33.9016 70.0304 33.633 70.1129C33.4616 70.1671 33.3155 70.2227 33.1509 70.2855L33.1498 70.2859C33.0529 70.3228 32.9496 70.3621 32.831 70.4051C32.7432 70.4366 32.6516 70.4686 32.5594 70.5009C32.316 70.586 32.0674 70.673 31.8698 70.7572C31.6901 70.8329 31.5284 70.9131 31.3547 70.9993C31.3101 71.0215 31.2645 71.0441 31.2177 71.0671C31.1705 71.0903 31.122 71.1139 31.0717 71.138C31.0168 71.1642 30.9611 71.1905 30.9049 71.2169L30.8109 71.2609C30.5952 71.362 30.3784 71.4636 30.194 71.5619C29.9344 71.6988 29.7101 71.8396 29.4336 72.0196C29.2966 72.1092 29.1563 72.1914 29.0183 72.2723C28.8792 72.3538 28.7422 72.434 28.6133 72.5191C28.4289 72.6423 28.2507 72.7785 28.0741 72.9133L27.9938 72.9746C27.9525 73.006 27.9112 73.0373 27.8699 73.0682C27.7879 73.1299 27.7052 73.1892 27.6224 73.2485C27.4604 73.3646 27.2974 73.4814 27.137 73.6185C26.9927 73.742 26.8507 73.8746 26.7128 74.0033L26.7122 74.0039L26.7109 74.0051L26.7105 74.0055C26.6162 74.0936 26.5239 74.1799 26.4341 74.2602C26.4037 74.2874 26.3735 74.3143 26.3432 74.341C26.3077 74.3723 26.2722 74.4033 26.2368 74.4343C26.083 74.5687 25.9295 74.7029 25.7742 74.8601C25.6623 74.9739 25.5501 75.1002 25.4408 75.2232C25.3349 75.3425 25.2313 75.459 25.1338 75.5578L25.1163 75.5755C24.9231 75.7713 24.7366 75.9602 24.5378 76.1994C24.3738 76.3968 24.2132 76.6151 24.0653 76.8162L24.0628 76.8196C24.0269 76.8684 23.9917 76.9162 23.9575 76.9624C23.8938 77.0482 23.831 77.13 23.7681 77.212L23.7668 77.2138L23.7663 77.2145C23.6557 77.3586 23.5447 77.5033 23.428 77.6705C23.2454 77.9327 23.0693 78.2248 22.9259 78.4817C22.8587 78.6003 22.7862 78.7144 22.7127 78.8302C22.6277 78.9639 22.5414 79.0998 22.4603 79.2473C22.361 79.4295 22.2696 79.6221 22.1803 79.8105C22.1347 79.9066 22.0896 80.0016 22.0443 80.0937C22.0042 80.1749 21.9627 80.2552 21.9211 80.3356C21.8232 80.5248 21.7252 80.7143 21.6465 80.9166C21.5851 81.0751 21.5276 81.2371 21.4702 81.399L21.4697 81.4003C21.4224 81.5337 21.3751 81.667 21.3257 81.7982C21.2944 81.8826 21.2625 81.9664 21.2306 82.0502C21.1521 82.2563 21.0739 82.4618 21.0062 82.6733C20.9455 82.861 20.8977 83.0524 20.8498 83.2442L20.8497 83.2448C20.8214 83.3578 20.7932 83.471 20.7623 83.5836C20.7455 83.645 20.7283 83.707 20.711 83.7695C20.6423 84.0175 20.572 84.271 20.521 84.5043C20.4776 84.702 20.4462 84.9136 20.4141 85.1296C20.3991 85.2312 20.3838 85.3342 20.3671 85.4368C20.359 85.4877 20.3506 85.5386 20.342 85.5895C20.3377 85.6151 20.3333 85.6408 20.3289 85.6664L20.3206 85.7155L20.3205 85.7161C20.2817 85.9431 20.2429 86.1705 20.2197 86.398C20.2001 86.5989 20.1903 86.8095 20.1808 87.0113L20.1808 87.0122L20.1807 87.0135L20.1805 87.0178C20.1782 87.0668 20.1759 87.1154 20.1735 87.1631C20.1701 87.2303 20.1666 87.2959 20.1624 87.3591C20.156 87.4555 20.1476 87.5517 20.1393 87.6477C20.1221 87.8452 20.105 88.0424 20.105 88.2407L10.912 84.5487C8.71577 83.6814 7.27596 81.5556 7.28379 79.1938V66.0531H13.6938C15.4642 66.0531 16.8994 64.6179 16.8994 62.8475C16.8994 61.077 15.4642 59.6418 13.6937 59.6418H7.28379V56.0098L20.6525 54.1012C18.2387 52.5719 16.0648 50.698 14.2001 48.5486L3.62432 50.0589C2.04629 50.2858 0.87385 51.6382 0.87385 53.2319V79.1938C0.856899 84.1796 3.89429 88.6685 8.53188 90.5048L18.913 94.6702C19.2925 94.8215 19.6968 94.8985 20.105 94.8985H21.2552C23.1815 100.394 27.5035 104.716 32.9992 106.642C42.9852 110.143 53.9179 104.884 57.4183 94.8985H130.345C132.271 100.394 136.592 104.716 142.089 106.642C152.075 110.143 163.007 104.884 166.508 94.8985H178.794C180.565 94.8985 182 93.4639 182 91.6928V72.6613C181.992 67.4277 177.664 62.5958 173.123 59.9914C161.948 53.6218 149.335 50.201 136.473 50.0563L125.486 44.0624C109.523 35.3701 95.7041 30.8095 79.0539 30.7965H75.2719ZM83.5024 88.4885H129.195C129.195 77.8675 137.803 69.2574 148.424 69.2574C159.045 69.2574 167.655 77.8675 167.655 88.4885H175.659V72.6613C175.655 69.7256 172.489 67.0142 169.94 65.5562C159.481 59.5845 147.647 56.4414 135.604 56.4375H83.5024V88.4885ZM83.5024 50.0276H123.034L122.416 49.6898C108.713 42.2431 97.5573 38.0215 83.5024 37.3472V50.0276ZM39.2574 101.504C32.1206 101.504 26.3351 95.7184 26.3351 88.5816C26.3351 81.4448 32.1206 75.6593 39.2574 75.6593C46.3943 75.6593 52.1798 81.4448 52.1798 88.5816C52.1798 95.7184 46.3943 101.504 39.2574 101.504ZM135.556 88.5816C135.556 95.7184 141.341 101.504 148.478 101.504C155.615 101.504 161.401 95.7184 161.401 88.5816C161.401 81.4448 155.615 75.6593 148.478 75.6593C141.341 75.6593 135.556 81.4448 135.556 88.5816Z" fill="#99372A"/>
<path d="M33.5148 15.8406V14.2664C33.5148 12.7098 34.7763 11.4482 36.3319 11.4482C37.8874 11.4482 39.149 12.7098 39.149 14.2664V15.8208C40.437 16.2479 41.868 17.0306 43.298 18.4144C44.4154 19.4966 44.4452 21.28 43.363 22.3985C42.2809 23.5158 40.4976 23.5456 39.379 22.4634C38.3837 21.5001 37.3304 20.9904 36.3319 20.9904C34.7786 20.9904 33.5148 22.2553 33.5148 23.8087C33.5148 25.362 34.7786 26.6258 36.3319 26.6258C40.9929 26.6258 44.7844 30.4172 44.7844 35.0782C44.7844 38.7507 42.4283 41.8827 39.149 43.0463V44.6205C39.149 46.1772 37.8874 47.4377 36.3319 47.4377C34.7763 47.4377 33.5148 46.1772 33.5148 44.6205V43.0595C31.6376 42.4298 29.8665 41.1814 28.3604 39.3903C27.3587 38.1992 27.5128 36.4224 28.7039 35.4206C29.895 34.4199 31.6719 34.5729 32.6736 35.7641C33.8284 37.1391 35.1287 37.8954 36.3319 37.8954C37.8852 37.8954 39.149 36.6316 39.149 35.0782C39.149 33.5249 37.8852 32.2611 36.3319 32.2611C31.6707 32.2611 27.8794 28.4686 27.8794 23.8087C27.8794 20.1351 30.2352 17.0031 33.5148 15.8406Z" fill="#99372A"/>
<path fill-rule="evenodd" clip-rule="evenodd" d="M65.4109 29.4429C65.4109 45.5526 52.3513 58.612 36.2418 58.612C20.1321 58.612 7.07261 45.5526 7.07261 29.4429C7.07261 13.3333 20.1321 0.273804 36.2418 0.273804C52.3513 0.273804 65.4109 13.3333 65.4109 29.4429ZM59.3127 29.4429C59.3127 42.1846 48.9836 52.5138 36.2418 52.5138C23.5 52.5138 13.1708 42.1846 13.1708 29.4429C13.1708 16.7012 23.5 6.37198 36.2418 6.37198C48.9836 6.37198 59.3127 16.7012 59.3127 29.4429Z" fill="#99372A"/>
</g>
</svg>
