<svg width="15" height="13" viewBox="0 0 15 13" fill="none" xmlns="http://www.w3.org/2000/svg">
<path fill-rule="evenodd" clip-rule="evenodd" d="M14.5771 0.847059H12.4595V0.423529C12.4595 0.186353 12.2731 0 12.0359 0C11.7988 0 11.6124 0.186353 11.6124 0.423529V0.847059H9.46653V0.423529C9.46653 0.186353 9.28017 0 9.043 0C8.80582 0 8.61947 0.186353 8.61947 0.423529V0.847059H6.50182V0.423529C6.50182 0.186353 6.31546 0 6.07829 0C5.84111 0 5.65476 0.186353 5.65476 0.423529V0.847059H3.53711C3.29994 0.847059 3.11358 1.03341 3.11358 1.27059V2.54118H15.0006V1.27059C15.0006 1.03341 14.8143 0.847059 14.5771 0.847059ZM0.689727 10.335H11.758C11.8572 10.335 11.9532 10.3003 12.0293 10.237C12.1356 10.148 14.5606 8.0618 14.7085 3.55855H2.82144C2.67413 7.64629 0.440776 9.56765 0.417567 9.58682C0.281501 9.70179 0.23144 9.88958 0.292654 10.0567C0.353445 10.2234 0.511873 10.335 0.689727 10.335ZM12.0359 11.3059C12.3325 11.3059 12.6212 11.2016 12.8511 11.0101C13.0446 10.8482 14.1841 9.83214 15.0006 7.82881V12.5765C15.0006 12.8106 14.8112 13 14.5771 13H3.53711C3.30301 13 3.11358 12.8106 3.11358 12.5765V11.3059H12.0359Z" fill="#54555a"/>
</svg>
