<svg width="11" height="14" viewBox="0 0 11 14" fill="none" xmlns="http://www.w3.org/2000/svg">
<path d="M11 11.2001V4.19998C11 2.65376 9.7687 1.40006 8.2501 1.40006C8.2501 0.630207 7.63095 0 6.87505 0H2.7501C1.99379 0 1.37505 0.630207 1.37505 1.40006V12.5999H0V14H9.62495V12.5999H8.2501V11.2001H11ZM8.2501 2.80013C9.00951 2.80013 9.62495 3.42697 9.62495 4.20019V9.80002H8.2501V2.80013ZM5.84381 8.39996H3.78134V7.0001H5.84381V8.39996ZM5.84381 4.90012C5.84381 5.28504 5.53444 5.60004 5.15639 5.60004H4.46897C4.09071 5.60004 3.78134 5.28504 3.78134 4.90012V2.80013C3.78134 2.4152 4.09071 2.1002 4.46876 2.1002H5.15619C5.53424 2.1002 5.84361 2.4152 5.84361 2.80013V4.90012H5.84381Z" fill="#54555a"/>
</svg>
