<svg width="102" height="85" viewBox="0 0 102 85" fill="none" xmlns="http://www.w3.org/2000/svg">
<path d="M59.4393 45.8964C59.3583 45.9165 59.0345 45.9165 58.8929 45.9165H48.45V48.3353H59.075C59.156 48.3353 59.7833 48.3353 59.9048 48.3152C62.0702 48.1136 63.0619 46.3197 63.0619 44.7474C63.0619 43.1349 62.0298 41.4015 60.0667 41.2201C59.6821 41.1797 59.3583 41.1797 59.2167 41.1797H52.275C51.9714 41.1797 51.6274 41.1596 51.506 41.1193C50.9595 40.9782 50.7571 40.4944 50.7571 40.0913C50.7571 39.7285 50.9595 39.2447 51.5262 39.0835C51.6881 39.0432 51.8702 39.023 52.2548 39.023H62.2726V36.6445H52.0929C51.6679 36.6445 51.344 36.6647 51.081 36.705C49.3405 36.9469 48.1262 38.3377 48.1262 40.1115C48.1262 41.5627 49.0369 43.2559 51.0405 43.5381C51.4048 43.5784 51.9107 43.5784 52.1333 43.5784H58.8929C59.0143 43.5784 59.3179 43.5784 59.3786 43.5985C60.1476 43.6993 60.4107 44.2637 60.4107 44.7676C60.4107 45.2514 60.1071 45.7754 59.4393 45.8964ZM39.6464 45.8964C39.5655 45.9165 39.2417 45.9165 39.1202 45.9165H28.6571V48.3353H39.2821C39.3631 48.3353 39.9905 48.3353 40.1119 48.3152C42.2774 48.1136 43.2691 46.3197 43.2691 44.7474C43.2691 43.1349 42.2369 41.4015 40.2738 41.2201C39.8893 41.1797 39.5655 41.1797 39.4238 41.1797H32.4821C32.1786 41.1797 31.8345 41.1596 31.7131 41.1193C31.1667 40.9782 30.9643 40.4944 30.9643 40.0913C30.9643 39.7285 31.1667 39.2447 31.7333 39.0835C31.8952 39.0432 32.0774 39.023 32.4619 39.023H42.4798V36.6445H32.3C31.875 36.6445 31.5512 36.6647 31.2881 36.705C29.5476 36.9469 28.3333 38.3377 28.3333 40.1115C28.3333 41.5627 29.244 43.2559 31.2476 43.5381C31.6119 43.5784 32.1179 43.5784 32.3405 43.5784H39.1C39.2214 43.5784 39.525 43.5784 39.5857 43.5985C40.3548 43.6993 40.6179 44.2637 40.6179 44.7676C40.6179 45.2514 40.3345 45.7754 39.6464 45.8964ZM20.5821 36.5639H23.2131V48.3958H20.5821V36.5639ZM3.37976 36.5639H0V48.3958H2.63095V39.5269L11.4548 48.3958H14.7738V36.5639H12.1429V45.3925L3.37976 36.5639ZM87.2464 48.3958H89.8774V39.5269L98.681 48.3958H102V36.5639H99.3893V45.3925L90.6262 36.5639H87.2464V48.3958ZM73.5452 36.5639L66.1381 48.3958H69.3357L70.6512 46.2793H79.2929L80.6083 48.3958H83.7857L76.3786 36.5639H73.5452ZM77.9369 44.042H72.0071L74.9821 39.285L77.9369 44.042ZM14.6321 29.8518C19.9345 14.4321 34.5464 4.07161 51.0202 4.07161C67.4941 4.07161 82.1262 14.4321 87.4083 29.8518L87.4488 29.9727H99.0452V28.5819L94.2286 28.0175C91.2536 27.6749 90.6262 26.3647 89.8167 24.7119L89.6143 24.3087C82.6524 9.55418 67.4941 0 51.0202 0C34.5262 0 19.3881 9.55419 12.4262 24.3491L12.2238 24.7522C11.4143 26.405 10.7869 27.7152 7.8119 28.0579L2.99524 28.6222V30.013H14.5714L14.6321 29.8518ZM87.4488 55.0071L87.4083 55.1281C82.106 70.5478 67.4941 80.8881 51.0202 80.8881C34.5464 80.8881 19.9143 70.5276 14.6321 55.1079L14.5917 54.987H3.01548V56.3778L7.83214 56.9421C10.8071 57.2848 11.4345 58.595 12.244 60.2478L12.4464 60.6509C19.4083 75.4458 34.5667 85 51.0405 85C67.5143 85 82.6726 75.4458 89.6345 60.6711L89.8369 60.268C90.6464 58.6151 91.2738 57.305 94.2488 56.9623L99.0655 56.3979V55.0071H87.4488Z" fill="#C5C8CC"/>
</svg>
