<svg width="16" height="16" viewBox="0 0 16 16" fill="none" xmlns="http://www.w3.org/2000/svg">
<path d="M2.54412 1.875H5.63235L7.17647 5.73529L5.24632 6.89338C6.07317 8.56993 7.43007 9.92683 9.10662 10.7537L10.2647 8.82353L14.125 10.3676V13.4559C14.125 13.8654 13.9623 14.2582 13.6727 14.5477C13.3832 14.8373 12.9904 15 12.5809 15C9.56929 14.817 6.7288 13.5381 4.59535 11.4047C2.4619 9.27121 1.18302 6.43072 1 3.41912C1 3.00959 1.16268 2.61684 1.45226 2.32726C1.74184 2.03768 2.13459 1.875 2.54412 1.875" stroke="#F0A431" stroke-width="1.2" stroke-linecap="round" stroke-linejoin="round"/>
<path d="M10.625 4.5C10.8571 4.5 11.0796 4.59219 11.2437 4.75628C11.4078 4.92038 11.5 5.14294 11.5 5.375" stroke="#F0A431" stroke-width="1.2" stroke-linecap="round" stroke-linejoin="round"/>
<path d="M10.625 1C11.7853 1 12.8981 1.46094 13.7186 2.28141C14.5391 3.10188 15 4.21468 15 5.375" stroke="#F0A431" stroke-width="1.2" stroke-linecap="round" stroke-linejoin="round"/>
</svg>
