<svg width="24" height="24" viewBox="0 0 24 24" fill="none" xmlns="http://www.w3.org/2000/svg">
<g opacity="0.4">
<path d="M20.917 16.5938L16.5444 6.59375C16.3882 6.25 16.0447 6 15.6699 6H12.6403L12.7027 6.75C12.734 6.875 12.609 7 12.4529 7H11.5471C11.391 7 11.266 6.875 11.2973 6.75L11.3597 6H8.33012C7.95532 6 7.61176 6.25 7.45559 6.59375L3.08296 16.5938C2.80186 17.25 3.27036 18 3.95749 18H10.1104L10.4227 14.9688C10.454 14.7188 10.6726 14.5 10.9225 14.5H13.0775C13.3274 14.5 13.546 14.7188 13.5773 14.9688L13.8896 18H20.0425C20.7296 18 21.1981 17.25 20.917 16.5938ZM11.1411 8.25C11.1411 8.125 11.266 8 11.391 8H12.609C12.734 8 12.8589 8.125 12.8589 8.25L13.0151 9.59375C13.0151 9.8125 12.8589 10 12.6403 10H11.3597C11.1411 10 10.9849 9.8125 10.9849 9.59375L11.1411 8.25ZM12.8589 13.5H11.1411C10.8288 13.5 10.6101 13.25 10.6414 12.9688L10.7975 11.4688C10.8288 11.2188 11.0474 11 11.2973 11H12.7027C12.9526 11 13.1712 11.2188 13.2025 11.4688L13.3586 12.9688C13.3899 13.25 13.1712 13.5 12.8589 13.5Z" fill="#161E29"/>
</g>
</svg>
