<svg width="13" height="16" viewBox="0 0 13 16" fill="none" xmlns="http://www.w3.org/2000/svg">
<path d="M7.22227 4.48608C7.63483 4.48608 8.0305 4.64997 8.32222 4.9417C8.61395 5.23342 8.77784 5.62909 8.77784 6.04165V15.3751L4.88892 13.0417L1 15.3751V6.04165C1 5.62909 1.16389 5.23342 1.45562 4.9417C1.74734 4.64997 2.14301 4.48608 2.55557 4.48608H7.22227Z" stroke="#F0A431" stroke-width="1.2" stroke-linecap="round" stroke-linejoin="round"/>
<path d="M4.31714 2.15279C4.45386 1.91597 4.6506 1.71938 4.88751 1.58283C5.12442 1.44628 5.39315 1.3746 5.66659 1.375H10.3333C10.7459 1.375 11.1415 1.53889 11.4332 1.83062C11.725 2.12234 11.8889 2.51801 11.8889 2.93057V12.264L11.1111 11.7973" stroke="#F0A431" stroke-width="1.2" stroke-linecap="round" stroke-linejoin="round"/>
</svg>
