<svg width="68" height="69" viewBox="0 0 68 69" fill="none" xmlns="http://www.w3.org/2000/svg">
<path d="M24.4115 17.3937C25.0475 15.3253 26.6581 16.3808 26.6581 16.3808C26.6581 16.3808 30.8319 19.5465 42.2799 26.8022C53.7279 34.058 68 23.9889 68 23.9889L34.1026 0C19.235 15.6963 0.205169 21.3234 0.205169 21.3234L0.259137 21.3443L43.5885 51.6063C42.9525 53.6747 41.3419 52.6196 41.3419 52.6196C41.3419 52.6196 37.1681 49.4535 25.7201 42.1973C14.2722 34.9416 0 45.0111 0 45.0111L33.8974 69C48.765 53.3033 67.7948 47.6766 67.7948 47.6766L67.74 47.6552L24.4115 17.3937Z" fill="#C5C8CC"/>
</svg>
