<svg width="146" height="107" viewBox="0 0 146 107" fill="none" xmlns="http://www.w3.org/2000/svg">
<g opacity="0.3">
<path d="M35.3083 10.9655C31.996 10.6138 28.6544 11.266 25.7175 12.8375C25.4201 12.9963 25.1569 13.2122 24.943 13.4728C24.7291 13.7335 24.5687 14.0338 24.4709 14.3566C24.3732 14.6794 24.3401 15.0183 24.3736 15.3539C24.407 15.6895 24.5063 16.0152 24.6658 16.3124C24.8253 16.6095 25.0419 16.8723 25.3031 17.0857C25.5643 17.299 25.865 17.4587 26.188 17.5557C26.511 17.6527 26.85 17.685 27.1855 17.6508C27.521 17.6166 27.8465 17.5165 28.1433 17.3563C30.188 16.2636 32.5157 15.8156 34.8199 16.0714C36.4211 16.2491 37.9588 16.7609 39.3371 17.5649C38.9402 17.6867 38.5751 17.9042 38.2762 18.2031C37.7953 18.684 37.5251 19.3363 37.5251 20.0164C37.5251 20.6965 37.7953 21.3488 38.2762 21.8297C38.7571 22.3106 39.4094 22.5808 40.0895 22.5808H45.6019C46.282 22.5808 46.9343 22.3106 47.4152 21.8297C47.8962 21.3488 48.1663 20.6965 48.1663 20.0164V14.5041C48.1663 13.824 47.8962 13.1717 47.4152 12.6908C46.9343 12.2099 46.282 11.9397 45.6019 11.9397C44.9218 11.9397 44.2695 12.2099 43.7886 12.6908C43.4537 13.0257 43.2209 13.4438 43.1105 13.8965C40.8079 12.2771 38.1239 11.2645 35.3083 10.9655Z" fill="#192C4B"/>
<path d="M19.8416 18.5615C20.4306 18.2215 21.1305 18.1293 21.7875 18.3054C22.4444 18.4814 23.0045 18.9112 23.3445 19.5002L26.0997 24.2721C26.2699 24.5632 26.3811 24.8851 26.4268 25.2192C26.4726 25.5543 26.4517 25.8951 26.3653 26.2221C26.2788 26.5491 26.1285 26.8557 25.9231 27.1243C25.7177 27.393 25.4611 27.6184 25.1683 27.7875C24.8754 27.9566 24.5519 28.0661 24.2166 28.1097C23.8812 28.1532 23.5405 28.1301 23.2141 28.0415C22.8877 27.9528 22.5821 27.8006 22.3148 27.5933C22.2347 27.5312 22.1584 27.4645 22.0864 27.3936C22.0742 29.3023 22.5382 31.1893 23.4431 32.881C24.4933 34.8444 26.0919 36.4599 28.0441 37.5307C28.3414 37.6904 28.6043 37.9072 28.8176 38.1688C29.0319 38.4314 29.192 38.7338 29.2886 39.0587C29.3853 39.3835 29.4166 39.7243 29.3807 40.0614C29.3448 40.3984 29.2425 40.7249 29.0796 41.0222C28.9168 41.3194 28.6966 41.5814 28.4318 41.793C28.1671 42.0046 27.863 42.1617 27.5372 42.2551C27.2114 42.3485 26.8703 42.3763 26.5337 42.3371C26.1983 42.298 25.874 42.193 25.5793 42.0283C22.7541 40.4789 20.4406 38.141 18.9208 35.2997C17.4005 32.4573 16.7402 29.2339 17.0205 26.0226L17.0206 26.0212L17.0214 26.0122C16.5881 26.1289 16.1277 26.1309 15.687 26.0122C15.0315 25.8355 14.4728 25.4062 14.1333 24.8183C13.7939 24.2303 13.7014 23.5318 13.8762 22.8758C14.051 22.2198 14.4788 21.6599 15.0657 21.3188L15.0676 21.3177L19.8416 18.5615Z" fill="#192C4B"/>
<path fill-rule="evenodd" clip-rule="evenodd" d="M47.5747 24.8218L47.5783 24.8218L47.5871 24.8218C48.2651 24.8218 48.9155 25.0903 49.3961 25.5686C49.8767 26.0469 50.1483 26.6961 50.1515 27.3741C50.1538 27.8855 50.1324 28.4046 50.0875 28.9162C49.8113 32.0703 48.6387 35.0797 46.7081 37.5892C45.0812 39.7039 42.9733 41.3893 40.5684 42.5109C40.9067 42.8339 41.1531 43.2461 41.2755 43.7055C41.4503 44.3614 41.3578 45.06 41.0184 45.6479C40.6789 46.2358 40.1202 46.6652 39.4647 46.8418C38.8092 47.0184 38.1104 46.9279 37.5215 46.5901L32.7459 43.8333C32.1571 43.4934 31.7274 42.9337 31.5512 42.2771C31.3751 41.621 31.4666 40.9218 31.8055 40.333L32.4666 40.7125L31.8062 40.3319L31.8114 40.3227L34.5646 35.5545C34.9057 34.9675 35.4656 34.5397 36.1216 34.3649C36.7776 34.1902 37.4761 34.2826 38.064 34.6221C38.652 34.9615 39.0813 35.5202 39.2579 36.1757C39.367 36.5806 39.3742 37.002 39.2841 37.4038C40.5661 36.664 41.6987 35.6797 42.6141 34.4997C43.9652 32.7582 44.786 30.6643 44.9782 28.4686C45.0094 28.1131 45.0243 27.7529 45.0226 27.3984C45.0194 26.7183 45.2865 26.0648 45.765 25.5816C46.2436 25.0984 46.8946 24.8251 47.5747 24.8218ZM47.5804 26.3463L47.582 26.3463L47.5783 25.5841V26.3463H47.5804Z" fill="#192C4B"/>
<path fill-rule="evenodd" clip-rule="evenodd" d="M16.9552 0.971924C11.0613 0.971924 6.28341 5.74985 6.28341 11.6437V44.3818C6.28341 50.2757 11.0613 55.0536 16.9552 55.0536H49.6933C55.5872 55.0536 60.3651 50.2757 60.3651 44.3818V11.6437C60.3651 5.74986 55.5872 0.971924 49.6933 0.971924H16.9552ZM49.6933 7.0701H16.9552C14.4293 7.0701 12.3816 9.11778 12.3816 11.6437V44.3818C12.3816 46.9078 14.4293 48.9555 16.9552 48.9555H49.6933C52.2193 48.9555 54.2669 46.9078 54.2669 44.3818V11.6437C54.2669 9.11778 52.2192 7.0701 49.6933 7.0701Z" fill="#192C4B"/>
<path d="M38.3836 93.554C35.0852 93.554 32.4113 90.88 32.4113 87.5816C32.4113 84.2832 35.0852 81.6093 38.3836 81.6093C41.6821 81.6093 44.356 84.2832 44.356 87.5816C44.356 90.88 41.6821 93.554 38.3836 93.554Z" fill="#192C4B"/>
<path d="M141.632 87.5816C141.632 90.88 144.306 93.554 147.604 93.554C150.903 93.554 153.577 90.88 153.577 87.5816C153.577 84.2832 150.903 81.6093 147.604 81.6093C144.306 81.6093 141.632 84.2832 141.632 87.5816Z" fill="#192C4B"/>
<path fill-rule="evenodd" clip-rule="evenodd" d="M6.41001 57.3385H6.34931V56.2457C6.34931 54.327 4.64998 52.8531 2.75054 53.1243C1.17251 53.3513 7.0585e-05 54.7037 7.0585e-05 56.2973V78.1938C-0.0168802 83.1796 3.02051 87.6685 7.6581 89.5048L18.0392 93.6702C18.4187 93.8215 18.823 93.8985 19.2312 93.8985H20.3815C22.3077 99.3942 26.6297 103.716 32.1254 105.642C42.1114 109.143 53.0441 103.884 56.5445 93.8985H129.471C131.397 99.3942 135.718 103.716 141.215 105.642C151.201 109.143 162.134 103.884 165.634 93.8985H177.921C179.692 93.8985 181.126 92.4639 181.126 90.6928V71.6613C181.118 66.4277 176.79 61.5958 172.249 58.9914C161.075 52.6218 148.461 49.201 135.599 49.0563L124.612 43.0624C108.649 34.3701 94.8304 29.8095 78.1801 29.7964H74.3981C72.1085 29.7939 69.9801 29.8642 67.9694 30.0067C66.3515 30.1213 65.1324 31.4906 65.1324 33.1126C65.1324 35.0377 66.8284 36.5193 68.7488 36.3853C70.4881 36.2639 72.3553 36.2041 74.4046 36.2064H76.2187V49.0276H68.3367C66.567 49.0276 65.1324 50.4622 65.1324 52.2319C65.1324 54.0016 66.567 55.4362 68.3367 55.4362H76.2174V87.4846H57.6817C57.6713 76.8675 49.0678 68.2639 38.4506 68.2535C37.7777 68.2535 37.1373 68.2887 36.4957 68.3526C36.3571 68.3655 36.2221 68.3887 36.0864 68.412L36.0858 68.4121C35.9893 68.4287 35.8926 68.4453 35.794 68.4582C35.6812 68.4748 35.5681 68.4902 35.455 68.5056C35.1668 68.5448 34.8783 68.5841 34.5955 68.6421C34.4553 68.6711 34.3193 68.7084 34.1832 68.7458L34.1827 68.746C34.0797 68.7743 33.9767 68.8026 33.8717 68.8273C33.773 68.8518 33.6742 68.8755 33.5756 68.8991C33.3013 68.9649 33.0278 69.0304 32.7592 69.1129C32.5878 69.1671 32.4417 69.2227 32.2771 69.2855L32.2742 69.2866C32.1779 69.3233 32.0751 69.3624 31.9572 69.4051C31.8694 69.4366 31.7778 69.4686 31.6856 69.5009C31.4422 69.5861 31.1936 69.673 30.996 69.7572C30.8163 69.8329 30.6547 69.9131 30.481 69.9993C30.4363 70.0215 30.3907 70.0442 30.3439 70.0671C30.2967 70.0903 30.2482 70.1139 30.1979 70.138C30.1737 70.1496 30.1493 70.1611 30.1249 70.1727L30.0849 70.1916L30.0311 70.2169L29.9372 70.2609C29.7215 70.362 29.5046 70.4636 29.3202 70.5619C29.0606 70.6988 28.8363 70.8396 28.5599 71.0196C28.4229 71.1092 28.2827 71.1913 28.1448 71.2721C28.0057 71.3536 27.8684 71.434 27.7395 71.5191C27.5552 71.6423 27.3769 71.7785 27.2003 71.9133L27.12 71.9746C27.0787 72.006 27.0374 72.0373 26.9962 72.0682C26.9141 72.1299 26.8314 72.1892 26.7486 72.2485C26.5866 72.3646 26.4236 72.4814 26.2632 72.6185C26.1195 72.7415 25.9781 72.8735 25.8406 73.0018L25.8391 73.0033L25.8384 73.0039L25.8371 73.0051L25.8368 73.0055C25.7424 73.0936 25.6501 73.1799 25.5603 73.2602C25.53 73.2874 25.4997 73.3143 25.4695 73.341L25.4407 73.3663L25.363 73.4343C25.2092 73.5687 25.0558 73.7029 24.9004 73.8601C24.7885 73.9739 24.6763 74.1002 24.567 74.2232C24.4611 74.3424 24.3575 74.4591 24.26 74.5578L24.2425 74.5755C24.0493 74.7713 23.8628 74.9602 23.664 75.1994C23.5 75.3968 23.3394 75.6151 23.1916 75.8162L23.189 75.8196L23.1504 75.8722L23.0976 75.9436L23.0837 75.9624C23.0201 76.0482 22.9573 76.13 22.8943 76.212L22.893 76.2138L22.8925 76.2145C22.7819 76.3586 22.671 76.5032 22.5542 76.6705C22.3716 76.9327 22.1956 77.2248 22.0521 77.4817C21.9849 77.6003 21.9124 77.7144 21.8389 77.8302C21.7539 77.9639 21.6676 78.0998 21.5865 78.2473C21.4872 78.4295 21.3959 78.6221 21.3065 78.8105C21.2609 78.9066 21.2159 79.0016 21.1705 79.0937C21.1304 79.1749 21.0889 79.2552 21.0473 79.3356C20.9494 79.5248 20.8514 79.7143 20.7727 79.9166C20.7113 80.0751 20.6538 80.2371 20.5964 80.399L20.5959 80.4003C20.5486 80.5337 20.5013 80.667 20.4519 80.7982C20.4206 80.8826 20.3887 80.9664 20.3568 81.0502C20.2783 81.2563 20.2001 81.4618 20.1324 81.6733C20.0717 81.861 20.0239 82.0524 19.9761 82.2442L19.9759 82.2448C19.9477 82.3578 19.9194 82.4711 19.8885 82.5836C19.8717 82.645 19.8545 82.7071 19.8372 82.7695C19.7685 83.0175 19.6983 83.271 19.6472 83.5043C19.6038 83.702 19.5724 83.9136 19.5404 84.1296L19.5399 84.133C19.525 84.2335 19.5098 84.3353 19.4933 84.4368C19.4889 84.4647 19.4844 84.4925 19.4798 84.5204L19.4682 84.5895L19.4468 84.7155L19.4467 84.7161C19.4079 84.9431 19.3691 85.1705 19.346 85.398C19.3264 85.5989 19.3165 85.8096 19.307 86.0113L19.307 86.0122L19.3069 86.0135L19.3067 86.0178L19.3033 86.091L19.2997 86.1631C19.2964 86.2303 19.2928 86.2959 19.2886 86.3591C19.2822 86.4552 19.2739 86.551 19.2656 86.6467L19.2655 86.6477C19.2483 86.8453 19.2312 87.0424 19.2312 87.2407L10.0382 83.5487C7.84199 82.6814 6.40218 80.5556 6.41001 78.1938V65.0531H12.82C14.5904 65.0531 16.0256 63.6179 16.0256 61.8475C16.0256 60.077 14.5904 58.6418 12.82 58.6418H6.41001V57.3385ZM128.321 87.4885H82.6286V55.4375H134.731C146.773 55.4414 158.607 58.5845 169.067 64.5562C171.615 66.0143 174.781 68.7256 174.785 71.6613V87.4885H166.782C166.782 76.8675 158.172 68.2574 147.551 68.2574C136.93 68.2574 128.321 76.8675 128.321 87.4885ZM122.16 49.0276H82.6286V36.3472C96.6836 37.0215 107.839 41.243 121.542 48.6898L122.16 49.0276ZM25.4613 87.5816C25.4613 94.7184 31.2469 100.504 38.3837 100.504C45.5205 100.504 51.306 94.7184 51.306 87.5816C51.306 80.4448 45.5205 74.6593 38.3837 74.6593C31.2469 74.6593 25.4613 80.4448 25.4613 87.5816ZM147.604 100.504C140.468 100.504 134.682 94.7184 134.682 87.5816C134.682 80.4448 140.468 74.6593 147.604 74.6593C154.741 74.6593 160.527 80.4448 160.527 87.5816C160.527 94.7184 154.741 100.504 147.604 100.504Z" fill="#192C4B"/>
</g>
</svg>
