<svg width="95" height="61" viewBox="0 0 95 61" fill="none" xmlns="http://www.w3.org/2000/svg">
<path fill-rule="evenodd" clip-rule="evenodd" d="M2.39347 40.0927C7.52532 50.6021 20.1217 58.1021 36.8235 60.6484C41.7221 61.3892 57.7241 60.8799 62.5761 59.8614C82.497 55.5558 95 44.0742 95 30.139C95 15.6482 80.071 3.56475 58.6105 0.694367C45.034 -1.0649 30.6653 0.555478 20.1217 5.13884C2.99997 12.5926 -4.13797 26.713 2.39347 40.0927ZM66.355 20.7408C71.5335 18.8889 74.9391 16.0185 74.9391 13.4722C74.9391 11.5741 72.6531 9.16664 69.4807 7.68515C65.7951 5.92588 58.8905 4.3055 53.8519 3.98142L49.5132 3.65735L50.9594 4.62957C54.4584 6.9444 56.6511 11.9444 58.4239 21.6204C58.6105 22.5926 58.6572 22.5926 61.5035 21.9908C63.1359 21.6667 65.2819 21.1112 66.355 20.7408ZM44.3347 4.62957C41.1156 6.57403 38.643 11.4815 37.29 18.5648C36.8235 20.8334 36.357 22.7315 36.2175 22.6852C27.4934 21.0649 21.9416 18.3334 20.4954 14.9537C19.8422 13.3796 19.8422 13.1018 20.6353 11.6204C21.1485 10.7407 22.3615 9.44442 23.3879 8.74997C26.8397 6.43514 37.57 3.74994 43.4016 3.74994H45.7809L44.3347 4.62957ZM54.2718 23.0093C54.5517 22.7315 52.9189 16.9445 52.0791 15.3704C51.0527 13.3333 48.6734 11.1574 47.4604 11.1574C45.3144 11.1574 42.8422 14.6296 41.6288 19.3056C41.2094 20.8797 40.8823 22.4075 40.8823 22.6389C40.8823 22.9167 41.7683 23.2408 42.8884 23.3334C44.7079 23.5186 54.0385 23.2871 54.2718 23.0093ZM54.8787 32.1297C54.8787 37.1761 52.7322 43.8891 50.3996 46.2502C48.3468 48.2872 46.8539 48.1946 44.6146 45.9724C42.4685 43.8428 40.929 39.3983 40.5558 34.2131L40.2758 30.6019H54.8787V32.1297ZM59.217 56.4354C71.7201 53.6113 81.5639 47.0372 85.716 38.7501C88.0487 34.0742 88.8418 29.8149 88.0958 25.926C87.536 23.0093 85.716 18.9352 84.1769 17.3148L83.1972 16.2963L82.1709 18.4722C79.7911 23.426 73.073 27.176 63.0426 29.213L59.3103 29.9538L58.7505 36.1575C57.8641 46.7131 56.0913 52.1298 52.2657 55.8799L50.3067 57.8706L52.6861 57.5928C54.0385 57.454 56.9777 56.9447 59.217 56.4354ZM36.357 35.7409C36.9635 45.9261 39.3432 52.9169 43.2616 56.2502C45.2211 57.8706 45.1278 58.1484 42.7485 57.6854C42.3752 57.5928 40.4625 57.2688 38.5497 56.991C25.3473 54.8613 13.5902 47.5928 9.20484 38.7501C5.70585 31.6668 6.03242 24.213 10.0912 18.2871L11.6308 16.1111L12.4239 17.7778C13.8235 20.6482 15.1298 22.1297 17.7419 23.8426C21.1947 26.1112 26.2799 28.0556 31.5517 29.1205L35.9838 30.0001L36.357 35.7409Z" fill="#C5C8CC"/>
</svg>
