<svg width="73" height="40" viewBox="0 0 73 40" fill="none" xmlns="http://www.w3.org/2000/svg">
<path d="M15.3455 35.0965C14.0299 35.0965 12.9634 34.1011 12.9634 32.8733C12.9634 31.6454 14.0299 30.65 15.3455 30.65C16.6611 30.65 17.7276 31.6454 17.7276 32.8733C17.7276 34.1011 16.6611 35.0965 15.3455 35.0965Z" fill="#F0A431"/>
<path d="M56.5263 32.8733C56.5263 34.1011 57.5928 35.0965 58.9084 35.0965C60.224 35.0965 61.2905 34.1011 61.2905 32.8733C61.2905 31.6454 60.224 30.65 58.9084 30.65C57.5928 30.65 56.5263 31.6454 56.5263 32.8733Z" fill="#F0A431"/>
<path fill-rule="evenodd" clip-rule="evenodd" d="M29.7099 11.3623C28.2502 11.3608 26.9547 11.4286 25.7526 11.5645C25.6934 12.4264 25.5263 13.261 25.264 14.0565C26.5561 13.85 27.9691 13.7466 29.7125 13.7484H30.4361V18.5212H22.3856C21.3513 19.4904 20.1221 20.2782 18.7575 20.8291C18.9011 20.8801 19.0549 20.9069 19.2116 20.9069H30.4355V32.8372H23.0426C23.0384 28.8848 19.6069 25.6821 15.3722 25.6782C15.1038 25.6782 14.8484 25.6913 14.5925 25.7151C14.5372 25.7199 14.4834 25.7286 14.4293 25.7372C14.3907 25.7434 14.352 25.7496 14.3126 25.7545C14.2676 25.7606 14.2225 25.7663 14.1774 25.7721C14.0624 25.7867 13.9474 25.8013 13.8346 25.8229C13.7786 25.8337 13.7243 25.8476 13.67 25.8616C13.6289 25.8721 13.5878 25.8826 13.5459 25.8918C13.5065 25.901 13.4672 25.9098 13.4278 25.9186C13.3184 25.9431 13.2093 25.9675 13.1022 25.9982C13.0338 26.0183 12.9756 26.039 12.9099 26.0624C12.8713 26.0761 12.8296 26.0909 12.7823 26.1069C12.7473 26.1187 12.7108 26.1306 12.674 26.1426C12.5769 26.1743 12.4777 26.2067 12.3989 26.238C12.3272 26.2662 12.2628 26.296 12.1935 26.3281C12.1757 26.3364 12.1575 26.3448 12.1388 26.3534C12.12 26.362 12.1007 26.3708 12.0806 26.3798C12.0587 26.3895 12.0365 26.3993 12.0141 26.4091L11.9766 26.4255C11.8906 26.4631 11.8041 26.501 11.7305 26.5375C11.627 26.5885 11.5375 26.6409 11.4273 26.7079C11.3726 26.7413 11.3167 26.7719 11.2616 26.802C11.2061 26.8323 11.1515 26.8622 11.1001 26.8939C11.0266 26.9398 10.9554 26.9904 10.885 27.0406L10.853 27.0634C10.8365 27.0751 10.82 27.0868 10.8036 27.0983C10.7709 27.1213 10.7379 27.1433 10.7048 27.1654C10.6402 27.2086 10.5752 27.2521 10.5113 27.3031C10.4537 27.3491 10.3971 27.3985 10.3421 27.4464L10.3413 27.4471C10.3037 27.4799 10.2667 27.5121 10.2309 27.542C10.2188 27.5522 10.2067 27.5622 10.1947 27.5721C10.1805 27.5837 10.1663 27.5953 10.1522 27.6068C10.0909 27.6569 10.0297 27.7068 9.96769 27.7653C9.92306 27.8077 9.87831 27.8547 9.83472 27.9005C9.79247 27.9449 9.75118 27.9883 9.71229 28.0251L9.70531 28.0317C9.62822 28.1045 9.55385 28.1748 9.47457 28.2639C9.40916 28.3374 9.3451 28.4187 9.28612 28.4935L9.28512 28.4948C9.27079 28.5129 9.25677 28.5307 9.2431 28.5479C9.21772 28.5799 9.19267 28.6103 9.16758 28.6409L9.16683 28.6418C9.12274 28.6954 9.07848 28.7493 9.03191 28.8115C8.95909 28.9091 8.88886 29.0179 8.83165 29.1135C8.80486 29.1577 8.77594 29.2001 8.74661 29.2432C8.71272 29.293 8.67829 29.3436 8.64595 29.3985C8.60633 29.4663 8.5699 29.538 8.53426 29.6082C8.51608 29.6439 8.49811 29.6793 8.48001 29.7136C8.46404 29.7438 8.44747 29.7737 8.43089 29.8036C8.39184 29.8741 8.35276 29.9446 8.32136 30.0199C8.29687 30.0789 8.27394 30.1392 8.25103 30.1995C8.23216 30.2491 8.21311 30.2993 8.1934 30.3481C8.18092 30.3795 8.16819 30.4107 8.15547 30.4419C8.12417 30.5186 8.09296 30.5951 8.06596 30.6739C8.04177 30.7438 8.02271 30.815 8.00361 30.8864C7.99236 30.9284 7.98102 30.9708 7.96869 31.0127C7.962 31.0356 7.95514 31.0587 7.94824 31.0819C7.92084 31.1742 7.89282 31.2686 7.87246 31.3555C7.85513 31.4291 7.84261 31.5078 7.82984 31.5882C7.82382 31.6261 7.81774 31.6644 7.81108 31.7026C7.80785 31.7215 7.80449 31.7405 7.80106 31.7594C7.79934 31.769 7.7976 31.7785 7.79585 31.7881L7.79251 31.8064C7.77705 31.8909 7.76152 31.9757 7.7523 32.0604C7.74448 32.1352 7.74054 32.2136 7.73677 32.2887L7.73666 32.2911C7.73573 32.3094 7.73482 32.3275 7.73387 32.3452C7.73252 32.3702 7.73108 32.3946 7.72941 32.4182C7.72686 32.4541 7.72353 32.4899 7.7202 32.5256C7.71336 32.5992 7.70653 32.6726 7.70653 32.7464L4.03988 31.372C3.16392 31.0491 2.58965 30.2578 2.59278 29.3786V24.4869H5.1494C5.85553 24.4869 6.42796 23.9526 6.42796 23.2935C6.42796 22.6345 5.85552 22.1002 5.14939 22.1002H2.59278V20.7481L7.92491 20.0377C6.96215 19.4684 6.09509 18.7708 5.35134 17.9707L1.13319 18.5329C0.50379 18.6174 0.036161 19.1208 0.036161 19.7141V29.3786C0.0294001 31.2346 1.24087 32.9056 3.09058 33.5892L7.2311 35.1398C7.38246 35.1961 7.54372 35.2248 7.70653 35.2248H8.16531C8.9336 37.2706 10.6574 38.8795 12.8494 39.5966C16.8323 40.8996 21.1929 38.9421 22.589 35.2248H51.6758C52.4441 37.2706 54.1674 38.8795 56.3599 39.5966C60.3428 40.8996 64.7034 38.9421 66.0995 35.2248H71C71.7064 35.2248 72.2786 34.6907 72.2786 34.0315V26.9468C72.2754 24.9986 70.549 23.1998 68.7378 22.2303C64.281 19.8592 59.25 18.5858 54.1201 18.5319L49.7377 16.3006C43.3709 13.0649 37.8594 11.3672 31.2184 11.3623H29.7099ZM32.9927 32.8386H51.2171C51.2171 28.8848 54.6507 25.6797 58.8869 25.6797C63.1231 25.6797 66.5573 28.8848 66.5573 32.8386H69.7495V26.9468C69.7479 25.854 68.485 24.8447 67.4686 24.3019C63.2969 22.0789 58.5769 20.9088 53.7737 20.9074H32.9927V32.8386ZM32.9927 18.5212H48.7598L48.5132 18.3955C43.0479 15.6234 38.5985 14.0519 32.9927 13.8009V18.5212ZM15.3455 37.6837C12.499 37.6837 10.1914 35.53 10.1914 32.8733C10.1914 30.2165 12.499 28.0628 15.3455 28.0628C18.192 28.0628 20.4996 30.2165 20.4996 32.8733C20.4996 35.53 18.192 37.6837 15.3455 37.6837ZM53.7543 32.8733C53.7543 35.53 56.0619 37.6837 58.9084 37.6837C61.7549 37.6837 64.0625 35.53 64.0625 32.8733C64.0625 30.2165 61.7549 28.0628 58.9084 28.0628C56.0619 28.0628 53.7543 30.2165 53.7543 32.8733Z" fill="#F0A431"/>
<path d="M13.055 5.79486V5.20885C13.055 4.62938 13.5582 4.15974 14.1786 4.15974C14.7991 4.15974 15.3022 4.62938 15.3022 5.20885V5.78748C15.816 5.94649 16.3867 6.23786 16.9571 6.75299C17.4028 7.15583 17.4146 7.81971 16.983 8.23608C16.5514 8.65203 15.8401 8.66309 15.394 8.26025C14.997 7.90167 14.5769 7.71193 14.1786 7.71193C13.5591 7.71193 13.055 8.1828 13.055 8.76104C13.055 9.33927 13.5591 9.80973 14.1786 9.80973C16.0377 9.80973 17.5499 11.2211 17.5499 12.9562C17.5499 14.3233 16.6102 15.4892 15.3022 15.9224V16.5084C15.3022 17.0879 14.7991 17.5571 14.1786 17.5571C13.5582 17.5571 13.055 17.0879 13.055 16.5084V15.9273C12.3063 15.6929 11.5999 15.2282 10.9992 14.5614C10.5997 14.118 10.6611 13.4566 11.1362 13.0837C11.6113 12.7112 12.32 12.7681 12.7195 13.2115C13.1801 13.7234 13.6987 14.0049 14.1786 14.0049C14.7982 14.0049 15.3022 13.5345 15.3022 12.9562C15.3022 12.378 14.7982 11.9075 14.1786 11.9075C12.3195 11.9075 10.8074 10.4958 10.8074 8.76104C10.8074 7.39351 11.747 6.22762 13.055 5.79486Z" fill="#F0A431"/>
<path fill-rule="evenodd" clip-rule="evenodd" d="M25.7768 10.8584C25.7768 16.8554 20.568 21.7169 14.1427 21.7169C7.71734 21.7169 2.50855 16.8554 2.50855 10.8584C2.50855 4.86148 7.71734 0 14.1427 0C20.568 0 25.7768 4.86148 25.7768 10.8584ZM23.3446 10.8584C23.3446 15.6016 19.2248 19.4468 14.1427 19.4468C9.06065 19.4468 4.94081 15.6016 4.94081 10.8584C4.94081 6.11522 9.06065 2.27009 14.1427 2.27009C19.2248 2.27009 23.3446 6.11522 23.3446 10.8584Z" fill="#F0A431"/>
</svg>
