<svg width="91" height="92" viewBox="0 0 91 92" fill="none" xmlns="http://www.w3.org/2000/svg">
<g opacity="0.3">
<path fill-rule="evenodd" clip-rule="evenodd" d="M77.4455 65.8054L88.0911 76.4507C91.4872 79.8468 91.4872 85.3728 88.0912 88.7689C84.6865 92.1734 79.177 92.1731 75.773 88.7689L65.1275 78.1236C62.4214 75.4174 61.874 71.3603 63.4803 68.1046L60.0271 64.6514C53.6627 70.1137 45.3958 73.4192 36.3707 73.4192C16.3158 73.4192 0 57.1034 0 37.0485C0 16.9937 16.3158 0.677856 36.3707 0.677856C56.4255 0.677856 72.7414 16.9937 72.7414 37.0485C72.7414 46.0737 69.4358 54.3405 63.9735 60.7049L67.4238 64.1552C70.6345 62.5634 74.6974 63.057 77.4455 65.8054ZM79.7195 84.8225C80.9425 86.0455 82.9218 86.0453 84.1446 84.8225C85.3647 83.6024 85.3647 81.6172 84.1448 80.3971L73.4993 69.7518C72.2762 68.5288 70.297 68.529 69.0741 69.7518C67.8539 70.9719 67.8539 72.9571 69.074 74.1771L79.7195 84.8225ZM5.62122 37.1551C5.62122 54.0316 19.3512 67.7616 36.2277 67.7616C53.1042 67.7616 66.8342 54.0316 66.8342 37.1551C66.8342 20.2786 53.1042 6.54859 36.2277 6.54859C19.3512 6.54859 5.62122 20.2786 5.62122 37.1551Z" fill="#B4541E"/>
<path fill-rule="evenodd" clip-rule="evenodd" d="M39.8169 42.1802C36.2544 45.7427 36.2544 51.5394 39.8169 55.1019C43.3794 58.6644 49.1759 58.6645 52.7386 55.1019C56.3012 51.5392 56.3011 45.7427 52.7386 42.1802C49.1761 38.6177 43.3794 38.6177 39.8169 42.1802ZM48.4312 50.7946C47.2437 51.9822 45.3115 51.9822 44.1239 50.7946C42.9365 49.6071 42.9363 47.6748 44.1239 46.4872C45.3115 45.2996 47.2437 45.2996 48.4313 46.4872C49.6187 47.675 49.6187 49.6071 48.4312 50.7946Z" fill="#B4541E"/>
<path fill-rule="evenodd" clip-rule="evenodd" d="M32.9251 31.8428C36.4876 28.2804 36.4876 22.4836 32.9252 18.9212C29.3627 15.3587 23.5661 15.3585 20.0034 18.9212C16.4408 22.4838 16.441 28.2804 20.0035 31.8428C23.5659 35.4053 29.3626 35.4053 32.9251 31.8428ZM24.3106 23.2283C25.4982 22.0407 27.4304 22.0407 28.618 23.2283C29.8056 24.4159 29.8056 26.3481 28.618 27.5357C27.4304 28.7233 25.4982 28.7233 24.3106 27.5357C23.123 26.3481 23.123 24.4159 24.3106 23.2283Z" fill="#B4541E"/>
<path d="M51.3267 21.9892L26.7782 56.357C25.6654 57.9163 23.4957 58.2786 21.9353 57.164C20.3752 56.0497 20.0139 53.8813 21.1283 52.3211L45.6768 17.9533C46.7903 16.3937 48.9588 16.0312 50.5197 17.1463C52.0798 18.2606 52.4412 20.429 51.3267 21.9892Z" fill="#B4541E"/>
</g>
</svg>
