<svg width="85" height="85" viewBox="0 0 85 85" fill="none" xmlns="http://www.w3.org/2000/svg">
<path d="M42.5 79.9911C22.0089 79.9911 5.16071 62.9911 5.16071 42.5C5.16071 38.25 5.91964 34.1518 7.28571 30.2054L29.1429 72.7054C29.4464 73.3125 29.75 73.7679 30.5089 73.7679C31.2679 73.7679 31.5714 73.3125 31.875 72.7054L42.0446 50.0893C42.1964 49.7857 42.3482 49.6339 42.5 49.6339C42.8036 49.6339 42.8036 49.9375 42.9554 50.0893L53.2768 72.7054C53.5804 73.3125 53.8839 73.7679 54.6429 73.7679C55.4018 73.7679 55.7054 73.3125 56.0089 72.7054L77.8661 30.2054C79.2321 34 79.9911 38.0982 79.9911 42.5C79.8393 62.9911 62.9911 79.9911 42.5 79.9911ZM42.5 32.7857C42.1964 32.7857 42.1964 32.4821 42.0446 32.3304L30.3571 7.13393C34.1518 5.76786 38.25 5.00893 42.5 5.00893C46.75 5.00893 50.8482 5.76786 54.6429 7.13393L42.9554 32.3304C42.8036 32.4821 42.8036 32.7857 42.5 32.7857ZM30.2054 60.1071C29.9018 60.1071 29.9018 59.8036 29.75 59.6518L10.625 22.9196C13.9643 17.4554 18.8214 12.9018 24.4375 9.71429L37.9464 38.8571C38.25 39.4643 38.5536 39.6161 39.0089 39.6161H45.9911C46.4464 39.6161 46.75 39.4643 47.0536 38.8571L60.4107 9.71429C66.0268 12.9018 70.8839 17.4554 74.2232 22.9196L55.25 59.6518C55.0982 59.9554 54.9464 60.1071 54.7946 60.1071C54.4911 60.1071 54.4911 59.8036 54.3393 59.6518L47.0536 43.5625C46.75 42.9554 46.4464 42.8036 45.9911 42.8036H39.0089C38.5536 42.8036 38.25 42.9554 37.9464 43.5625L30.6607 59.6518C30.5089 59.8036 30.5089 60.1071 30.2054 60.1071ZM42.5 85C66.0268 85 85 66.0268 85 42.5C85 18.9732 66.0268 0 42.5 0C18.9732 0 0 18.9732 0 42.5C0 66.0268 18.9732 85 42.5 85Z" fill="#002D77"/>
</svg>
