<svg width="18" height="18" viewBox="0 0 18 18" fill="none" xmlns="http://www.w3.org/2000/svg">
<path d="M8.22126 5.11428V4.66454C8.22126 4.21983 8.58167 3.8594 9.02608 3.8594C9.47049 3.8594 9.83089 4.21983 9.83089 4.66454V5.10861C10.1989 5.23064 10.6077 5.45426 11.0162 5.8496C11.3355 6.15875 11.344 6.66825 11.0348 6.98779C10.7257 7.30702 10.2162 7.31551 9.8966 7.00635C9.61227 6.73116 9.31134 6.58554 9.02608 6.58554C8.58231 6.58554 8.22126 6.94691 8.22126 7.39068C8.22126 7.83445 8.58231 8.1955 9.02608 8.1955C10.3577 8.1955 11.4409 9.27866 11.4409 10.6103C11.4409 11.6595 10.7678 12.5543 9.83089 12.8867V13.3364C9.83089 13.7811 9.47049 14.1413 9.02608 14.1413C8.58167 14.1413 8.22126 13.7811 8.22126 13.3364V12.8905C7.68498 12.7106 7.17897 12.3539 6.7487 11.8422C6.46252 11.5019 6.50655 10.9943 6.84685 10.7081C7.18712 10.4222 7.69477 10.4659 7.98095 10.8062C8.31087 11.199 8.68233 11.4151 9.02608 11.4151C9.46985 11.4151 9.83089 11.0541 9.83089 10.6103C9.83089 10.1665 9.46985 9.80547 9.02608 9.80547C7.69441 9.80547 6.61128 8.72199 6.61128 7.39068C6.61128 6.34117 7.28431 5.4464 8.22126 5.11428Z" fill="white"/>
<path fill-rule="evenodd" clip-rule="evenodd" d="M17.3337 9.00033C17.3337 13.6027 13.6027 17.3337 9.00034 17.3337C4.39796 17.3337 0.666992 13.6027 0.666992 9.00033C0.666992 4.39795 4.39796 0.666992 9.00034 0.666992C13.6027 0.666992 17.3337 4.39795 17.3337 9.00033ZM15.5915 9.00033C15.5915 12.6405 12.6405 15.5915 9.00034 15.5915C5.36015 15.5915 2.40918 12.6405 2.40918 9.00033C2.40918 5.36014 5.36015 2.40918 9.00034 2.40918C12.6405 2.40918 15.5915 5.36014 15.5915 9.00033Z" fill="white"/>
</svg>
