<svg width="15" height="15" viewBox="0 0 15 15" fill="none" xmlns="http://www.w3.org/2000/svg">
<path fill-rule="evenodd" clip-rule="evenodd" d="M2.74702 1.85086C2.55364 1.85086 2.36817 1.92769 2.23143 2.06443C2.09925 2.19661 2.02306 2.37431 2.01811 2.56068C2.18916 5.26808 3.34181 7.82053 5.26047 9.7392C7.17914 11.6579 9.73159 12.8105 12.439 12.9816C12.6254 12.9766 12.8031 12.9004 12.9352 12.7682C13.072 12.6315 13.1488 12.446 13.1488 12.2527V9.79028L10.5057 8.73305L9.7222 10.0389C9.51899 10.3776 9.08998 10.5038 8.73574 10.3291C6.9702 9.4584 5.54127 8.02947 4.67054 6.26393C4.49584 5.9097 4.62204 5.48068 4.96072 5.27747L6.26662 4.49393L5.20939 1.85086H2.74702ZM1.15814 0.991146C1.57954 0.569747 2.15108 0.333008 2.74702 0.333008H5.72321C6.03354 0.333008 6.31261 0.521944 6.42786 0.810077L7.91596 4.53032C8.0543 4.87617 7.92119 5.2713 7.60177 5.46295L6.36914 6.20253C6.9776 7.19037 7.80931 8.02208 8.79714 8.63054L9.53672 7.3979C9.72837 7.07849 10.1235 6.94538 10.4694 7.08372L14.1896 8.57181C14.4777 8.68707 14.6667 8.96613 14.6667 9.27646V12.2527C14.6667 12.8486 14.4299 13.4201 14.0085 13.8415C13.5871 14.2629 13.0156 14.4997 12.4196 14.4997C12.4043 14.4997 12.3889 14.4992 12.3736 14.4983C9.28625 14.3107 6.37431 12.9996 4.18719 10.8125C2.00007 8.62537 0.689018 5.71342 0.501398 2.62607C0.500466 2.61074 0.5 2.59539 0.5 2.58003C0.5 1.98408 0.736739 1.41254 1.15814 0.991146Z" fill="white"/>
</svg>
