<svg width="21" height="15" viewBox="0 0 21 15" fill="none" xmlns="http://www.w3.org/2000/svg">
<path fill-rule="evenodd" clip-rule="evenodd" d="M16.7218 3.50216H17.9238V0H19.5265V3.50216H20.7284L18.7253 6.6777L16.7218 3.50216ZM19.512 8.20349L15.7996 7.5287L12.639 4.91609C12.3258 4.65974 11.933 4.51945 11.5277 4.5191H6.87136C6.60896 4.51848 6.34982 4.57698 6.11332 4.69022C5.87682 4.80347 5.66909 4.96853 5.50566 5.17305L3.48689 7.5287H2.12624C1.74686 7.52912 1.38315 7.67945 1.11489 7.94672C0.846627 8.21398 0.695733 8.57634 0.695312 8.95431V10.6967C0.695828 11.1587 0.880253 11.6016 1.20813 11.9282C1.536 12.2549 1.98054 12.4386 2.44422 12.4391H2.80772C2.73717 12.0725 2.74876 11.6949 2.84168 11.3333C2.9346 10.9717 3.10654 10.635 3.34523 10.3473C3.58391 10.0596 3.88344 9.82793 4.22241 9.66892C4.56138 9.5099 4.93142 9.42745 5.30608 9.42745C5.68075 9.42745 6.05078 9.5099 6.38975 9.66892C6.72872 9.82793 7.02825 10.0596 7.26693 10.3473C7.50562 10.635 7.67756 10.9717 7.77048 11.3333C7.8634 11.6949 7.87499 12.0725 7.80444 12.4391H14.2551C14.1846 12.0725 14.1962 11.6949 14.2891 11.3333C14.382 10.9717 14.554 10.635 14.7926 10.3473C15.0313 10.0596 15.3309 9.82793 15.6698 9.66892C16.0088 9.5099 16.3788 9.42745 16.7535 9.42745C17.1282 9.42745 17.4982 9.5099 17.8372 9.66892C18.1761 9.82793 18.4757 10.0596 18.7144 10.3473C18.953 10.635 19.125 10.9717 19.2179 11.3333C19.3108 11.6949 19.3224 12.0725 19.2519 12.4391H19.2974C19.6768 12.4387 20.0405 12.2884 20.3087 12.0211C20.577 11.7538 20.7279 11.3915 20.7283 11.0135V9.61294C20.73 9.27143 20.6079 8.9408 20.3844 8.68184C20.161 8.42288 19.8512 8.25302 19.512 8.20349ZM7.69096 7.0535C7.69096 7.17953 7.64071 7.3004 7.55126 7.38952C7.46181 7.47864 7.34049 7.5287 7.21398 7.5287H5.11708C5.07148 7.52873 5.02683 7.51573 4.98841 7.49125C4.95 7.46676 4.91944 7.43182 4.90035 7.39056C4.88127 7.3493 4.87445 7.30345 4.88072 7.25845C4.88698 7.21345 4.90607 7.17119 4.93571 7.13666L6.32355 5.51702C6.36836 5.46483 6.42399 5.42293 6.48661 5.39422C6.54923 5.36551 6.61735 5.35066 6.68629 5.3507H7.21398C7.34049 5.3507 7.46181 5.40076 7.55126 5.48988C7.64071 5.579 7.69096 5.69987 7.69096 5.8259V7.0535ZM10.0758 9.27111H9.43987C9.31337 9.27111 9.19205 9.22104 9.1026 9.13193C9.01315 9.04281 8.9629 8.92194 8.9629 8.79591C8.9629 8.66988 9.01315 8.54901 9.1026 8.45989C9.19205 8.37077 9.31337 8.32071 9.43987 8.32071H10.0758C10.2023 8.32071 10.3237 8.37077 10.4131 8.45989C10.5026 8.54901 10.5528 8.66988 10.5528 8.79591C10.5528 8.92194 10.5026 9.04281 10.4131 9.13193C10.3237 9.22104 10.2023 9.27111 10.0758 9.27111ZM13.8312 7.54035L9.27977 7.52981C9.15346 7.52952 9.03242 7.47932 8.94321 7.39024C8.854 7.30115 8.8039 7.18045 8.8039 7.05461V5.8259C8.8039 5.69987 8.85416 5.579 8.94361 5.48988C9.03306 5.40076 9.15438 5.3507 9.28088 5.3507H11.5683C11.6755 5.35071 11.7796 5.3867 11.8637 5.45287L13.9795 7.11607C14.0185 7.14666 14.0469 7.18862 14.0608 7.23609C14.0747 7.28355 14.0735 7.33416 14.0571 7.38087C14.0408 7.42757 14.0103 7.46804 13.9698 7.49662C13.9293 7.52521 13.8808 7.5405 13.8312 7.54035ZM4.18931 10.2301C4.53407 9.99971 4.9394 9.87675 5.35405 9.87675C5.90987 9.87738 6.44276 10.0985 6.83578 10.4915C7.22881 10.8845 7.44989 11.4174 7.45052 11.9732C7.45052 12.3879 7.32757 12.7932 7.0972 13.138C6.86684 13.4827 6.53942 13.7514 6.15633 13.9101C5.77325 14.0688 5.35172 14.1103 4.94504 14.0294C4.53837 13.9485 4.16481 13.7489 3.87161 13.4557C3.57842 13.1625 3.37875 12.7889 3.29785 12.3822C3.21696 11.9756 3.25848 11.554 3.41716 11.1709C3.57583 10.7879 3.84454 10.4604 4.18931 10.2301ZM4.81647 12.7778C4.9756 12.8841 5.16267 12.9408 5.35405 12.9408C5.61067 12.9408 5.85679 12.8389 6.03825 12.6574C6.21971 12.476 6.32165 12.2299 6.32165 11.9732C6.32165 11.7819 6.2649 11.5948 6.15858 11.4357C6.05226 11.2765 5.90114 11.1525 5.72433 11.0793C5.54753 11.006 5.35297 10.9869 5.16528 11.0242C4.97758 11.0616 4.80517 11.1537 4.66985 11.289C4.53453 11.4244 4.44237 11.5968 4.40503 11.7845C4.3677 11.9722 4.38686 12.1667 4.4601 12.3435C4.53333 12.5203 4.65735 12.6714 4.81647 12.7778ZM15.6035 10.2301C15.9483 9.99971 16.3536 9.87675 16.7683 9.87675C17.3241 9.87738 17.857 10.0985 18.25 10.4915C18.643 10.8845 18.8641 11.4174 18.8647 11.9732C18.8647 12.3879 18.7418 12.7932 18.5114 13.138C18.281 13.4827 17.9536 13.7514 17.5705 13.9101C17.1875 14.0688 16.7659 14.1103 16.3593 14.0294C15.9526 13.9485 15.579 13.7489 15.2858 13.4557C14.9926 13.1625 14.793 12.7889 14.7121 12.3822C14.6312 11.9756 14.6727 11.554 14.8314 11.1709C14.99 10.7879 15.2588 10.4604 15.6035 10.2301ZM16.2307 12.7778C16.3898 12.8841 16.5769 12.9408 16.7683 12.9408C17.0249 12.9408 17.271 12.8389 17.4525 12.6574C17.6339 12.476 17.7359 12.2299 17.7359 11.9732C17.7359 11.7819 17.6791 11.5948 17.5728 11.4357C17.4665 11.2765 17.3153 11.1525 17.1385 11.0793C16.9617 11.006 16.7672 10.9869 16.5795 11.0242C16.3918 11.0616 16.2194 11.1537 16.0841 11.289C15.9487 11.4244 15.8566 11.5968 15.8192 11.7845C15.7819 11.9722 15.8011 12.1667 15.8743 12.3435C15.9475 12.5203 16.0716 12.6714 16.2307 12.7778Z" fill="#54555a"/>
</svg>
